solid OpenSCAD_Model
  facet normal 0 0.978148 0.207912
    outer loop
      vertex -17 1.2349 -1
      vertex -17.8 2.29768 -6
      vertex -17.8 1.2349 -1
    endloop
  endfacet
  facet normal 0 0.978148 0.207912
    outer loop
      vertex -17 1.2349 -1
      vertex -17 2.29768 -6
      vertex -17.8 2.29768 -6
    endloop
  endfacet
  facet normal 1 0 0
    outer loop
      vertex -17.8 2.29768 -6
      vertex -17.8 4.85353 -6
      vertex -17.8 3.79075 -1
    endloop
  endfacet
  facet normal 1 -0 0
    outer loop
      vertex -17.8 1.2349 -1
      vertex -17.8 2.29768 -6
      vertex -17.8 3.79075 -1
    endloop
  endfacet
  facet normal 0 -0.978148 -0.207912
    outer loop
      vertex -17.8 3.79075 -1
      vertex -17.8 4.85353 -6
      vertex -17 4.85353 -6
    endloop
  endfacet
  facet normal -0 -0.978148 -0.207912
    outer loop
      vertex -17 3.79075 -1
      vertex -17.8 3.79075 -1
      vertex -17 4.85353 -6
    endloop
  endfacet
  facet normal -1 0 -0
    outer loop
      vertex -17 3.79075 -1
      vertex -17 4.85353 -6
      vertex -17 2.29768 -6
    endloop
  endfacet
  facet normal -1 0 0
    outer loop
      vertex -17 1.2349 -1
      vertex -17 3.79075 -1
      vertex -17 2.29768 -6
    endloop
  endfacet
  facet normal 0 0.978148 0.207912
    outer loop
      vertex -18.5714 1.2349 -1
      vertex -19.3714 2.29768 -6
      vertex -19.3714 1.2349 -1
    endloop
  endfacet
  facet normal 0 0.978148 0.207912
    outer loop
      vertex -18.5714 1.2349 -1
      vertex -18.5714 2.29768 -6
      vertex -19.3714 2.29768 -6
    endloop
  endfacet
  facet normal 1 0 0
    outer loop
      vertex -19.3714 2.29768 -6
      vertex -19.3714 4.85353 -6
      vertex -19.3714 3.79075 -1
    endloop
  endfacet
  facet normal 1 -0 0
    outer loop
      vertex -19.3714 1.2349 -1
      vertex -19.3714 2.29768 -6
      vertex -19.3714 3.79075 -1
    endloop
  endfacet
  facet normal 0 -0.978148 -0.207912
    outer loop
      vertex -19.3714 3.79075 -1
      vertex -19.3714 4.85353 -6
      vertex -18.5714 4.85353 -6
    endloop
  endfacet
  facet normal -0 -0.978148 -0.207912
    outer loop
      vertex -18.5714 3.79075 -1
      vertex -19.3714 3.79075 -1
      vertex -18.5714 4.85353 -6
    endloop
  endfacet
  facet normal -1 0 -0
    outer loop
      vertex -18.5714 3.79075 -1
      vertex -18.5714 4.85353 -6
      vertex -18.5714 2.29768 -6
    endloop
  endfacet
  facet normal -1 0 0
    outer loop
      vertex -18.5714 1.2349 -1
      vertex -18.5714 3.79075 -1
      vertex -18.5714 2.29768 -6
    endloop
  endfacet
  facet normal 0 0.978148 0.207912
    outer loop
      vertex -20.1429 1.2349 -1
      vertex -20.9429 2.29768 -6
      vertex -20.9429 1.2349 -1
    endloop
  endfacet
  facet normal 0 0.978148 0.207912
    outer loop
      vertex -20.1429 1.2349 -1
      vertex -20.1429 2.29768 -6
      vertex -20.9429 2.29768 -6
    endloop
  endfacet
  facet normal 1 0 0
    outer loop
      vertex -20.9429 2.29768 -6
      vertex -20.9429 4.85353 -6
      vertex -20.9429 3.79075 -1
    endloop
  endfacet
  facet normal 1 -0 0
    outer loop
      vertex -20.9429 1.2349 -1
      vertex -20.9429 2.29768 -6
      vertex -20.9429 3.79075 -1
    endloop
  endfacet
  facet normal 0 -0.978148 -0.207912
    outer loop
      vertex -20.9429 3.79075 -1
      vertex -20.9429 4.85353 -6
      vertex -20.1429 4.85353 -6
    endloop
  endfacet
  facet normal -0 -0.978148 -0.207912
    outer loop
      vertex -20.1429 3.79075 -1
      vertex -20.9429 3.79075 -1
      vertex -20.1429 4.85353 -6
    endloop
  endfacet
  facet normal -1 0 -0
    outer loop
      vertex -20.1429 3.79075 -1
      vertex -20.1429 4.85353 -6
      vertex -20.1429 2.29768 -6
    endloop
  endfacet
  facet normal -1 0 0
    outer loop
      vertex -20.1429 1.2349 -1
      vertex -20.1429 3.79075 -1
      vertex -20.1429 2.29768 -6
    endloop
  endfacet
  facet normal -2.30828e-016 0.978148 0.207912
    outer loop
      vertex -21.7143 2.29768 -6
      vertex -22.5143 2.29768 -6
      vertex -22.5143 1.2349 -1
    endloop
  endfacet
  facet normal -5.77071e-017 0.978148 0.207912
    outer loop
      vertex -21.7143 1.2349 -1
      vertex -21.7143 2.29768 -6
      vertex -22.5143 1.2349 -1
    endloop
  endfacet
  facet normal 1 0 0
    outer loop
      vertex -22.5143 2.29768 -6
      vertex -22.5143 4.85353 -6
      vertex -22.5143 3.79075 -1
    endloop
  endfacet
  facet normal 1 -0 0
    outer loop
      vertex -22.5143 1.2349 -1
      vertex -22.5143 2.29768 -6
      vertex -22.5143 3.79075 -1
    endloop
  endfacet
  facet normal 2.30873e-016 -0.978148 -0.207912
    outer loop
      vertex -22.5143 3.79075 -1
      vertex -22.5143 4.85353 -6
      vertex -21.7143 4.85353 -6
    endloop
  endfacet
  facet normal 5.77071e-017 -0.978148 -0.207912
    outer loop
      vertex -21.7143 3.79075 -1
      vertex -22.5143 3.79075 -1
      vertex -21.7143 4.85353 -6
    endloop
  endfacet
  facet normal -1 0 -0
    outer loop
      vertex -21.7143 3.79075 -1
      vertex -21.7143 4.85353 -6
      vertex -21.7143 2.29768 -6
    endloop
  endfacet
  facet normal -1 0 0
    outer loop
      vertex -21.7143 1.2349 -1
      vertex -21.7143 3.79075 -1
      vertex -21.7143 2.29768 -6
    endloop
  endfacet
  facet normal 0 0.978148 0.207912
    outer loop
      vertex -23.2857 2.29768 -6
      vertex -24.0857 2.29768 -6
      vertex -24.0857 1.2349 -1
    endloop
  endfacet
  facet normal -5.77071e-017 0.978148 0.207912
    outer loop
      vertex -23.2857 1.2349 -1
      vertex -23.2857 2.29768 -6
      vertex -24.0857 1.2349 -1
    endloop
  endfacet
  facet normal 1 0 0
    outer loop
      vertex -24.0857 2.29768 -6
      vertex -24.0857 4.85353 -6
      vertex -24.0857 3.79075 -1
    endloop
  endfacet
  facet normal 1 -0 0
    outer loop
      vertex -24.0857 1.2349 -1
      vertex -24.0857 2.29768 -6
      vertex -24.0857 3.79075 -1
    endloop
  endfacet
  facet normal 0 -0.978148 -0.207912
    outer loop
      vertex -24.0857 3.79075 -1
      vertex -24.0857 4.85353 -6
      vertex -23.2857 4.85353 -6
    endloop
  endfacet
  facet normal 5.77071e-017 -0.978148 -0.207912
    outer loop
      vertex -23.2857 3.79075 -1
      vertex -24.0857 3.79075 -1
      vertex -23.2857 4.85353 -6
    endloop
  endfacet
  facet normal -1 0 -0
    outer loop
      vertex -23.2857 3.79075 -1
      vertex -23.2857 4.85353 -6
      vertex -23.2857 2.29768 -6
    endloop
  endfacet
  facet normal -1 0 0
    outer loop
      vertex -23.2857 1.2349 -1
      vertex -23.2857 3.79075 -1
      vertex -23.2857 2.29768 -6
    endloop
  endfacet
  facet normal 0 0.978148 0.207912
    outer loop
      vertex -24.8571 2.29768 -6
      vertex -25.6571 2.29768 -6
      vertex -25.6571 1.2349 -1
    endloop
  endfacet
  facet normal -5.77071e-017 0.978148 0.207912
    outer loop
      vertex -24.8571 1.2349 -1
      vertex -24.8571 2.29768 -6
      vertex -25.6571 1.2349 -1
    endloop
  endfacet
  facet normal 1 0 0
    outer loop
      vertex -25.6571 2.29768 -6
      vertex -25.6571 4.85353 -6
      vertex -25.6571 3.79075 -1
    endloop
  endfacet
  facet normal 1 -0 0
    outer loop
      vertex -25.6571 1.2349 -1
      vertex -25.6571 2.29768 -6
      vertex -25.6571 3.79075 -1
    endloop
  endfacet
  facet normal 0 -0.978148 -0.207912
    outer loop
      vertex -25.6571 3.79075 -1
      vertex -25.6571 4.85353 -6
      vertex -24.8571 4.85353 -6
    endloop
  endfacet
  facet normal 5.77071e-017 -0.978148 -0.207912
    outer loop
      vertex -24.8571 3.79075 -1
      vertex -25.6571 3.79075 -1
      vertex -24.8571 4.85353 -6
    endloop
  endfacet
  facet normal -1 0 -0
    outer loop
      vertex -24.8571 3.79075 -1
      vertex -24.8571 4.85353 -6
      vertex -24.8571 2.29768 -6
    endloop
  endfacet
  facet normal -1 0 0
    outer loop
      vertex -24.8571 1.2349 -1
      vertex -24.8571 3.79075 -1
      vertex -24.8571 2.29768 -6
    endloop
  endfacet
  facet normal 0 0.978148 0.207912
    outer loop
      vertex -26.4286 2.29768 -6
      vertex -27.2286 2.29768 -6
      vertex -27.2286 1.2349 -1
    endloop
  endfacet
  facet normal -5.77071e-017 0.978148 0.207912
    outer loop
      vertex -26.4286 1.2349 -1
      vertex -26.4286 2.29768 -6
      vertex -27.2286 1.2349 -1
    endloop
  endfacet
  facet normal 1 0 0
    outer loop
      vertex -27.2286 2.29768 -6
      vertex -27.2286 4.85353 -6
      vertex -27.2286 3.79075 -1
    endloop
  endfacet
  facet normal 1 -0 0
    outer loop
      vertex -27.2286 1.2349 -1
      vertex -27.2286 2.29768 -6
      vertex -27.2286 3.79075 -1
    endloop
  endfacet
  facet normal 0 -0.978148 -0.207912
    outer loop
      vertex -27.2286 3.79075 -1
      vertex -27.2286 4.85353 -6
      vertex -26.4286 4.85353 -6
    endloop
  endfacet
  facet normal 5.77071e-017 -0.978148 -0.207912
    outer loop
      vertex -26.4286 3.79075 -1
      vertex -27.2286 3.79075 -1
      vertex -26.4286 4.85353 -6
    endloop
  endfacet
  facet normal -1 0 -0
    outer loop
      vertex -26.4286 3.79075 -1
      vertex -26.4286 4.85353 -6
      vertex -26.4286 2.29768 -6
    endloop
  endfacet
  facet normal -1 0 0
    outer loop
      vertex -26.4286 1.2349 -1
      vertex -26.4286 3.79075 -1
      vertex -26.4286 2.29768 -6
    endloop
  endfacet
  facet normal 1 0 1.22461e-016
    outer loop
      vertex 0 5 0
      vertex 0 2.07107 0
      vertex 7.34764e-016 2.07107 -6
    endloop
  endfacet
  facet normal 1 0 1.22461e-016
    outer loop
      vertex 7.34764e-016 5 -6
      vertex 0 5 0
      vertex 7.34764e-016 2.07107 -6
    endloop
  endfacet
  facet normal 0 -1 0
    outer loop
      vertex -30.9289 0 -6
      vertex -17.0711 0 -2.09053e-015
      vertex -30.9289 0 -3.78758e-015
    endloop
  endfacet
  facet normal 0 -1 0
    outer loop
      vertex -30.9289 0 -6
      vertex -17.0711 0 -6
      vertex -17.0711 0 -2.09053e-015
    endloop
  endfacet
  facet normal 0 -1 0
    outer loop
      vertex -3.92893 0 -6
      vertex -2.07107 0 -2.53624e-016
      vertex -3.92893 0 -4.8114e-016
    endloop
  endfacet
  facet normal 0 -1 0
    outer loop
      vertex -3.92893 0 -6
      vertex -2.07107 0 -6
      vertex -2.07107 0 -2.53624e-016
    endloop
  endfacet
  facet normal -1.22461e-016 0 1
    outer loop
      vertex -3.97788 1.4591 -4.87134e-016
      vertex -4.33037 1.7507 -5.303e-016
      vertex -3.92893 0 -4.8114e-016
    endloop
  endfacet
  facet normal -1.22461e-016 0 1
    outer loop
      vertex -3.97788 4.5409 -4.87134e-016
      vertex -6 6 -7.34764e-016
      vertex -4.33037 4.2493 -5.303e-016
    endloop
  endfacet
  facet normal -1.22461e-016 0 1
    outer loop
      vertex -16.75 1 -2.05122e-015
      vertex -17.0711 0 -2.09053e-015
      vertex -15 2.07107 -1.83691e-015
    endloop
  endfacet
  facet normal -1.22461e-016 0 1
    outer loop
      vertex -31.3304 1.7507 -3.83674e-015
      vertex -31.5993 2.1208 -3.86967e-015
      vertex -33 2.07107 -4.0412e-015
    endloop
  endfacet
  facet normal -1.22461e-016 0 1
    outer loop
      vertex -30.564 1.26432 -3.74288e-015
      vertex -30.9779 1.4591 -3.79357e-015
      vertex -30.9289 0 -3.78758e-015
    endloop
  endfacet
  facet normal -1.22461e-016 0 1
    outer loop
      vertex -29.658 4.79267 -3.63194e-015
      vertex -29.223 4.65131 -3.57866e-015
      vertex -31 6 -3.79628e-015
    endloop
  endfacet
  facet normal -1.22461e-016 0 1
    outer loop
      vertex -31.7677 3.45386 -3.89029e-015
      vertex -31.5993 3.8792 -3.86967e-015
      vertex -33 4 -4.0412e-015
    endloop
  endfacet
  facet normal -1.22461e-016 0 1
    outer loop
      vertex -3.56396 1.26432 -4.36444e-016
      vertex -3.97788 1.4591 -4.87134e-016
      vertex -3.92893 0 -4.8114e-016
    endloop
  endfacet
  facet normal -1.22461e-016 0 1
    outer loop
      vertex -20.5 6 -2.51044e-015
      vertex -31 6 -3.79628e-015
      vertex -27.5 4.1 -3.36767e-015
    endloop
  endfacet
  facet normal -1.22461e-016 0 1
    outer loop
      vertex -28.3032 3.67183 -3.46602e-015
      vertex -28.1894 3.22873 -3.45209e-015
      vertex -27.5 4.1 -3.36767e-015
    endloop
  endfacet
  facet normal -1.22461e-016 0 1
    outer loop
      vertex -16.4289 10 -2.0119e-015
      vertex -15 6 -1.83691e-015
      vertex -5 10 -6.12303e-016
    endloop
  endfacet
  facet normal -1.22461e-016 0 1
    outer loop
      vertex -16.4289 10 -2.0119e-015
      vertex -20.4645 5.96447 -2.50609e-015
      vertex -15 6 -1.83691e-015
    endloop
  endfacet
  facet normal -1.22461e-016 0 1
    outer loop
      vertex -15 6 -1.83691e-015
      vertex -6 6 -7.34764e-016
      vertex -5 10 -6.12303e-016
    endloop
  endfacet
  facet normal -1.22461e-016 0 1
    outer loop
      vertex -1.30316 2.32817 -1.59586e-016
      vertex -1.52354 1.92729 -1.86574e-016
      vertex 0 2.07107 0
    endloop
  endfacet
  facet normal -1.22461e-016 0 1
    outer loop
      vertex -1.8367 1.59381 -2.24924e-016
      vertex -2.22295 1.34869 -2.72224e-016
      vertex -2.07107 0 -2.53624e-016
    endloop
  endfacet
  facet normal -1.22461e-016 0 1
    outer loop
      vertex 0 5 0
      vertex -1.18939 3.22873 -1.45654e-016
      vertex 0 2.07107 0
    endloop
  endfacet
  facet normal -1.22461e-016 0 1
    outer loop
      vertex -4.59926 3.8792 -5.63228e-016
      vertex -6 6 -7.34764e-016
      vertex -4.76766 3.45386 -5.83851e-016
    endloop
  endfacet
  facet normal -1.22461e-016 0 1
    outer loop
      vertex -1.18939 3.22873 -1.45654e-016
      vertex -1.18939 2.77127 -1.45654e-016
      vertex 0 2.07107 0
    endloop
  endfacet
  facet normal -1.22461e-016 0 1
    outer loop
      vertex -4.825 3 -5.90873e-016
      vertex -4.76766 3.45386 -5.83851e-016
      vertex -6 2.07107 -7.34764e-016
    endloop
  endfacet
  facet normal -1.22461e-016 0 1
    outer loop
      vertex -1.18939 2.77127 -1.45654e-016
      vertex -1.30316 2.32817 -1.59586e-016
      vertex 0 2.07107 0
    endloop
  endfacet
  facet normal -1.22461e-016 0 1
    outer loop
      vertex 0 2.07107 0
      vertex -1.52354 1.92729 -1.86574e-016
      vertex -1.8367 1.59381 -2.24924e-016
    endloop
  endfacet
  facet normal -1.22461e-016 0 1
    outer loop
      vertex 0 2.07107 0
      vertex -1.8367 1.59381 -2.24924e-016
      vertex -2.07107 0 -2.53624e-016
    endloop
  endfacet
  facet normal -1.22461e-016 0 1
    outer loop
      vertex -2.07107 0 -2.53624e-016
      vertex -2.22295 1.34869 -2.72224e-016
      vertex -2.65803 1.20733 -3.25504e-016
    endloop
  endfacet
  facet normal -1.22461e-016 0 1
    outer loop
      vertex -2.07107 0 -2.53624e-016
      vertex -2.65803 1.20733 -3.25504e-016
      vertex -3.11459 1.1786 -3.81415e-016
    endloop
  endfacet
  facet normal -1.22461e-016 0 1
    outer loop
      vertex -2.07107 0 -2.53624e-016
      vertex -3.11459 1.1786 -3.81415e-016
      vertex -3.92893 0 -4.8114e-016
    endloop
  endfacet
  facet normal -1.22461e-016 0 1
    outer loop
      vertex -3.11459 1.1786 -3.81415e-016
      vertex -3.56396 1.26432 -4.36444e-016
      vertex -3.92893 0 -4.8114e-016
    endloop
  endfacet
  facet normal -1.22461e-016 0 1
    outer loop
      vertex -4.33037 1.7507 -5.303e-016
      vertex -6 2.07107 -7.34764e-016
      vertex -3.92893 0 -4.8114e-016
    endloop
  endfacet
  facet normal -1.22461e-016 0 1
    outer loop
      vertex -4.59926 2.1208 -5.63228e-016
      vertex -6 2.07107 -7.34764e-016
      vertex -4.33037 1.7507 -5.303e-016
    endloop
  endfacet
  facet normal -1.22461e-016 0 1
    outer loop
      vertex -4.76766 2.54614 -5.83851e-016
      vertex -6 2.07107 -7.34764e-016
      vertex -4.59926 2.1208 -5.63228e-016
    endloop
  endfacet
  facet normal -1.22461e-016 0 1
    outer loop
      vertex -4.825 3 -5.90873e-016
      vertex -6 2.07107 -7.34764e-016
      vertex -4.76766 2.54614 -5.83851e-016
    endloop
  endfacet
  facet normal -1.22461e-016 0 1
    outer loop
      vertex -4.76766 3.45386 -5.83851e-016
      vertex -6 6 -7.34764e-016
      vertex -6 2.07107 -7.34764e-016
    endloop
  endfacet
  facet normal -1.22461e-016 0 1
    outer loop
      vertex -2.65803 4.79267 -3.25504e-016
      vertex 0 5 0
      vertex -5 10 -6.12303e-016
    endloop
  endfacet
  facet normal -1.22461e-016 0 1
    outer loop
      vertex -4.33037 4.2493 -5.303e-016
      vertex -6 6 -7.34764e-016
      vertex -4.59926 3.8792 -5.63228e-016
    endloop
  endfacet
  facet normal -1.22461e-016 0 1
    outer loop
      vertex -3.97788 4.5409 -4.87134e-016
      vertex -3.56396 4.73568 -4.36444e-016
      vertex -6 6 -7.34764e-016
    endloop
  endfacet
  facet normal -1.22461e-016 0 1
    outer loop
      vertex -3.56396 4.73568 -4.36444e-016
      vertex -3.11459 4.8214 -3.81415e-016
      vertex -6 6 -7.34764e-016
    endloop
  endfacet
  facet normal -1.22461e-016 0 1
    outer loop
      vertex -3.11459 4.8214 -3.81415e-016
      vertex -5 10 -6.12303e-016
      vertex -6 6 -7.34764e-016
    endloop
  endfacet
  facet normal -1.22461e-016 0 1
    outer loop
      vertex -2.65803 4.79267 -3.25504e-016
      vertex -5 10 -6.12303e-016
      vertex -3.11459 4.8214 -3.81415e-016
    endloop
  endfacet
  facet normal -1.22461e-016 0 1
    outer loop
      vertex -2.22295 4.65131 -2.72224e-016
      vertex 0 5 0
      vertex -2.65803 4.79267 -3.25504e-016
    endloop
  endfacet
  facet normal -1.22461e-016 0 1
    outer loop
      vertex -1.8367 4.40619 -2.24924e-016
      vertex 0 5 0
      vertex -2.22295 4.65131 -2.72224e-016
    endloop
  endfacet
  facet normal -1.22461e-016 0 1
    outer loop
      vertex -1.52354 4.07271 -1.86574e-016
      vertex 0 5 0
      vertex -1.8367 4.40619 -2.24924e-016
    endloop
  endfacet
  facet normal -1.22461e-016 0 1
    outer loop
      vertex -1.30316 3.67183 -1.59586e-016
      vertex 0 5 0
      vertex -1.52354 4.07271 -1.86574e-016
    endloop
  endfacet
  facet normal -1.22461e-016 0 1
    outer loop
      vertex -1.18939 3.22873 -1.45654e-016
      vertex 0 5 0
      vertex -1.30316 3.67183 -1.59586e-016
    endloop
  endfacet
  facet normal -1.22461e-016 0 1
    outer loop
      vertex -15 6 -1.83691e-015
      vertex -16.75 4.1 -2.05122e-015
      vertex -15 2.07107 -1.83691e-015
    endloop
  endfacet
  facet normal -1.22461e-016 0 1
    outer loop
      vertex -15 6 -1.83691e-015
      vertex -20.4645 5.96447 -2.50609e-015
      vertex -16.75 4.1 -2.05122e-015
    endloop
  endfacet
  facet normal -1.22461e-016 0 1
    outer loop
      vertex -16.75 4.1 -2.05122e-015
      vertex -16.75 1 -2.05122e-015
      vertex -15 2.07107 -1.83691e-015
    endloop
  endfacet
  facet normal -1.22461e-016 0 1
    outer loop
      vertex -20.5 6 -2.51044e-015
      vertex -27.5 4.1 -3.36767e-015
      vertex -20.4645 5.96447 -2.50609e-015
    endloop
  endfacet
  facet normal -1.22461e-016 0 1
    outer loop
      vertex -30.9289 0 -3.78758e-015
      vertex -17.0711 0 -2.09053e-015
      vertex -27.5 1 -3.36767e-015
    endloop
  endfacet
  facet normal -1.22461e-016 0 1
    outer loop
      vertex -16.75 1 -2.05122e-015
      vertex -27.5 1 -3.36767e-015
      vertex -17.0711 0 -2.09053e-015
    endloop
  endfacet
  facet normal -1.22461e-016 0 1
    outer loop
      vertex -28.1894 2.77127 -3.45209e-015
      vertex -27.5 4.1 -3.36767e-015
      vertex -28.1894 3.22873 -3.45209e-015
    endloop
  endfacet
  facet normal -1.22461e-016 0 1
    outer loop
      vertex -27.5 4.1 -3.36767e-015
      vertex -16.75 4.1 -2.05122e-015
      vertex -20.4645 5.96447 -2.50609e-015
    endloop
  endfacet
  facet normal -1.22461e-016 0 1
    outer loop
      vertex -27.5 1 -3.36767e-015
      vertex -27.5 4.1 -3.36767e-015
      vertex -28.1894 2.77127 -3.45209e-015
    endloop
  endfacet
  facet normal -1.22461e-016 0 1
    outer loop
      vertex -27.5 1 -3.36767e-015
      vertex -28.1894 2.77127 -3.45209e-015
      vertex -28.3032 2.32817 -3.46602e-015
    endloop
  endfacet
  facet normal -1.22461e-016 0 1
    outer loop
      vertex -27.5 1 -3.36767e-015
      vertex -28.3032 2.32817 -3.46602e-015
      vertex -28.5235 1.92729 -3.49301e-015
    endloop
  endfacet
  facet normal -1.22461e-016 0 1
    outer loop
      vertex -27.5 1 -3.36767e-015
      vertex -28.8367 1.59381 -3.53136e-015
      vertex -29.223 1.34869 -3.57866e-015
    endloop
  endfacet
  facet normal -1.22461e-016 0 1
    outer loop
      vertex -27.5 1 -3.36767e-015
      vertex -28.5235 1.92729 -3.49301e-015
      vertex -28.8367 1.59381 -3.53136e-015
    endloop
  endfacet
  facet normal -1.22461e-016 0 1
    outer loop
      vertex -27.5 1 -3.36767e-015
      vertex -29.223 1.34869 -3.57866e-015
      vertex -29.658 1.20733 -3.63194e-015
    endloop
  endfacet
  facet normal -1.22461e-016 0 1
    outer loop
      vertex -27.5 1 -3.36767e-015
      vertex -29.658 1.20733 -3.63194e-015
      vertex -30.9289 0 -3.78758e-015
    endloop
  endfacet
  facet normal -1.22461e-016 0 1
    outer loop
      vertex -29.658 1.20733 -3.63194e-015
      vertex -30.1146 1.1786 -3.68785e-015
      vertex -30.9289 0 -3.78758e-015
    endloop
  endfacet
  facet normal -1.22461e-016 0 1
    outer loop
      vertex -30.1146 1.1786 -3.68785e-015
      vertex -30.564 1.26432 -3.74288e-015
      vertex -30.9289 0 -3.78758e-015
    endloop
  endfacet
  facet normal -1.22461e-016 0 1
    outer loop
      vertex -30.9289 0 -3.78758e-015
      vertex -30.9779 1.4591 -3.79357e-015
      vertex -31.3304 1.7507 -3.83674e-015
    endloop
  endfacet
  facet normal -1.22461e-016 0 1
    outer loop
      vertex -30.9289 0 -3.78758e-015
      vertex -31.3304 1.7507 -3.83674e-015
      vertex -33 2.07107 -4.0412e-015
    endloop
  endfacet
  facet normal -1.22461e-016 0 1
    outer loop
      vertex -33 2.07107 -4.0412e-015
      vertex -31.5993 2.1208 -3.86967e-015
      vertex -31.7677 2.54614 -3.89029e-015
    endloop
  endfacet
  facet normal -1.22461e-016 0 1
    outer loop
      vertex -33 2.07107 -4.0412e-015
      vertex -31.7677 2.54614 -3.89029e-015
      vertex -31.825 3 -3.89731e-015
    endloop
  endfacet
  facet normal -1.22461e-016 0 1
    outer loop
      vertex -33 2.07107 -4.0412e-015
      vertex -31.825 3 -3.89731e-015
      vertex -33 4 -4.0412e-015
    endloop
  endfacet
  facet normal -1.22461e-016 0 1
    outer loop
      vertex -31.825 3 -3.89731e-015
      vertex -31.7677 3.45386 -3.89029e-015
      vertex -33 4 -4.0412e-015
    endloop
  endfacet
  facet normal -1.22461e-016 0 1
    outer loop
      vertex -33 4 -4.0412e-015
      vertex -31.5993 3.8792 -3.86967e-015
      vertex -31.3304 4.2493 -3.83674e-015
    endloop
  endfacet
  facet normal -1.22461e-016 0 1
    outer loop
      vertex -33 4 -4.0412e-015
      vertex -31.3304 4.2493 -3.83674e-015
      vertex -31 6 -3.79628e-015
    endloop
  endfacet
  facet normal -1.22461e-016 0 1
    outer loop
      vertex -31.3304 4.2493 -3.83674e-015
      vertex -30.9779 4.5409 -3.79357e-015
      vertex -31 6 -3.79628e-015
    endloop
  endfacet
  facet normal -1.22461e-016 0 1
    outer loop
      vertex -30.9779 4.5409 -3.79357e-015
      vertex -30.564 4.73568 -3.74288e-015
      vertex -31 6 -3.79628e-015
    endloop
  endfacet
  facet normal -1.22461e-016 0 1
    outer loop
      vertex -30.564 4.73568 -3.74288e-015
      vertex -30.1146 4.8214 -3.68785e-015
      vertex -31 6 -3.79628e-015
    endloop
  endfacet
  facet normal -1.22461e-016 0 1
    outer loop
      vertex -30.1146 4.8214 -3.68785e-015
      vertex -29.658 4.79267 -3.63194e-015
      vertex -31 6 -3.79628e-015
    endloop
  endfacet
  facet normal -1.22461e-016 0 1
    outer loop
      vertex -31 6 -3.79628e-015
      vertex -29.223 4.65131 -3.57866e-015
      vertex -27.5 4.1 -3.36767e-015
    endloop
  endfacet
  facet normal -1.22461e-016 0 1
    outer loop
      vertex -29.223 4.65131 -3.57866e-015
      vertex -28.8367 4.40619 -3.53136e-015
      vertex -27.5 4.1 -3.36767e-015
    endloop
  endfacet
  facet normal -1.22461e-016 0 1
    outer loop
      vertex -28.8367 4.40619 -3.53136e-015
      vertex -28.5235 4.07271 -3.49301e-015
      vertex -27.5 4.1 -3.36767e-015
    endloop
  endfacet
  facet normal -1.22461e-016 0 1
    outer loop
      vertex -28.5235 4.07271 -3.49301e-015
      vertex -28.3032 3.67183 -3.46602e-015
      vertex -27.5 4.1 -3.36767e-015
    endloop
  endfacet
  facet normal 0 1 0
    outer loop
      vertex -16.4289 10 -6
      vertex -5 10 -6.12303e-016
      vertex -5 10 -6
    endloop
  endfacet
  facet normal 0 1 -0
    outer loop
      vertex -16.4289 10 -6
      vertex -16.4289 10 -2.0119e-015
      vertex -5 10 -6.12303e-016
    endloop
  endfacet
  facet normal 0 0 -1
    outer loop
      vertex -1.18939 2.77127 -6
      vertex -1.18939 3.22873 -6
      vertex 7.34764e-016 2.07107 -6
    endloop
  endfacet
  facet normal -0 0 -1
    outer loop
      vertex -4.59926 3.8792 -6
      vertex -4.76766 3.45386 -6
      vertex -6 6 -6
    endloop
  endfacet
  facet normal 0 0 -1
    outer loop
      vertex -1.18939 3.22873 -6
      vertex 7.34764e-016 5 -6
      vertex 7.34764e-016 2.07107 -6
    endloop
  endfacet
  facet normal 1.97373e-016 -4.93432e-017 -1
    outer loop
      vertex -15 6 -6
      vertex -5 10 -6
      vertex -6 6 -6
    endloop
  endfacet
  facet normal 1.55426e-016 5.55234e-017 -1
    outer loop
      vertex -16.4289 10 -6
      vertex -5 10 -6
      vertex -15 6 -6
    endloop
  endfacet
  facet normal -0 0 -1
    outer loop
      vertex -20.4645 5.96447 -6
      vertex -20.9429 4.85353 -6
      vertex -20.5 6 -6
    endloop
  endfacet
  facet normal -0 0 -1
    outer loop
      vertex -30.564 4.73568 -6
      vertex -30.9779 4.5409 -6
      vertex -31 6 -6
    endloop
  endfacet
  facet normal -0 0 -1
    outer loop
      vertex -30.9779 4.5409 -6
      vertex -31.3304 4.2493 -6
      vertex -31 6 -6
    endloop
  endfacet
  facet normal 0 0 -1
    outer loop
      vertex -17 2.29768 -6
      vertex -17 4.85353 -6
      vertex -15 2.07107 -6
    endloop
  endfacet
  facet normal 0 -0 -1
    outer loop
      vertex -16.4289 10 -6
      vertex -15 6 -6
      vertex -17 4.85353 -6
    endloop
  endfacet
  facet normal 0 0 -1
    outer loop
      vertex -20.9429 2.29768 -6
      vertex -20.1429 2.29768 -6
      vertex -17.0711 0 -6
    endloop
  endfacet
  facet normal 0 0 -1
    outer loop
      vertex -17 4.85353 -6
      vertex -17.8 4.85353 -6
      vertex -16.4289 10 -6
    endloop
  endfacet
  facet normal 0 0 -1
    outer loop
      vertex -21.7143 4.85353 -6
      vertex -20.9429 2.29768 -6
      vertex -21.7143 2.29768 -6
    endloop
  endfacet
  facet normal 0 0 -1
    outer loop
      vertex -1.52354 4.07271 -6
      vertex -1.8367 4.40619 -6
      vertex 7.34764e-016 5 -6
    endloop
  endfacet
  facet normal 0 0 -1
    outer loop
      vertex -2.65803 4.79267 -6
      vertex -3.11459 4.8214 -6
      vertex -5 10 -6
    endloop
  endfacet
  facet normal 0 0 -1
    outer loop
      vertex -1.30316 3.67183 -6
      vertex 7.34764e-016 5 -6
      vertex -1.18939 3.22873 -6
    endloop
  endfacet
  facet normal 0 0 -1
    outer loop
      vertex -1.52354 4.07271 -6
      vertex 7.34764e-016 5 -6
      vertex -1.30316 3.67183 -6
    endloop
  endfacet
  facet normal 0 0 -1
    outer loop
      vertex -1.8367 4.40619 -6
      vertex -2.22295 4.65131 -6
      vertex 7.34764e-016 5 -6
    endloop
  endfacet
  facet normal 0 0 -1
    outer loop
      vertex -2.22295 4.65131 -6
      vertex -2.65803 4.79267 -6
      vertex 7.34764e-016 5 -6
    endloop
  endfacet
  facet normal 0 0 -1
    outer loop
      vertex -2.65803 4.79267 -6
      vertex -5 10 -6
      vertex 7.34764e-016 5 -6
    endloop
  endfacet
  facet normal 0 0 -1
    outer loop
      vertex -3.11459 4.8214 -6
      vertex -6 6 -6
      vertex -5 10 -6
    endloop
  endfacet
  facet normal 0 0 -1
    outer loop
      vertex -3.56396 4.73568 -6
      vertex -6 6 -6
      vertex -3.11459 4.8214 -6
    endloop
  endfacet
  facet normal 0 0 -1
    outer loop
      vertex -3.97788 4.5409 -6
      vertex -6 6 -6
      vertex -3.56396 4.73568 -6
    endloop
  endfacet
  facet normal 0 0 -1
    outer loop
      vertex -4.33037 4.2493 -6
      vertex -6 6 -6
      vertex -3.97788 4.5409 -6
    endloop
  endfacet
  facet normal 0 0 -1
    outer loop
      vertex -4.59926 3.8792 -6
      vertex -6 6 -6
      vertex -4.33037 4.2493 -6
    endloop
  endfacet
  facet normal -0 0 -1
    outer loop
      vertex -4.76766 3.45386 -6
      vertex -6 2.07107 -6
      vertex -6 6 -6
    endloop
  endfacet
  facet normal -0 0 -1
    outer loop
      vertex -4.825 3 -6
      vertex -6 2.07107 -6
      vertex -4.76766 3.45386 -6
    endloop
  endfacet
  facet normal -0 0 -1
    outer loop
      vertex -4.76766 2.54614 -6
      vertex -6 2.07107 -6
      vertex -4.825 3 -6
    endloop
  endfacet
  facet normal -0 0 -1
    outer loop
      vertex -4.59926 2.1208 -6
      vertex -6 2.07107 -6
      vertex -4.76766 2.54614 -6
    endloop
  endfacet
  facet normal 0 0 -1
    outer loop
      vertex -4.33037 1.7507 -6
      vertex -6 2.07107 -6
      vertex -4.59926 2.1208 -6
    endloop
  endfacet
  facet normal 0 0 -1
    outer loop
      vertex -3.92893 0 -6
      vertex -6 2.07107 -6
      vertex -4.33037 1.7507 -6
    endloop
  endfacet
  facet normal 0 0 -1
    outer loop
      vertex -3.92893 0 -6
      vertex -3.97788 1.4591 -6
      vertex -3.56396 1.26432 -6
    endloop
  endfacet
  facet normal 0 0 -1
    outer loop
      vertex -3.92893 0 -6
      vertex -4.33037 1.7507 -6
      vertex -3.97788 1.4591 -6
    endloop
  endfacet
  facet normal -0 0 -1
    outer loop
      vertex -3.11459 1.1786 -6
      vertex -3.92893 0 -6
      vertex -3.56396 1.26432 -6
    endloop
  endfacet
  facet normal 0 0 -1
    outer loop
      vertex -2.07107 0 -6
      vertex -3.92893 0 -6
      vertex -3.11459 1.1786 -6
    endloop
  endfacet
  facet normal 0 0 -1
    outer loop
      vertex -2.07107 0 -6
      vertex -3.11459 1.1786 -6
      vertex -2.65803 1.20733 -6
    endloop
  endfacet
  facet normal 0 0 -1
    outer loop
      vertex -2.07107 0 -6
      vertex -2.22295 1.34869 -6
      vertex -1.8367 1.59381 -6
    endloop
  endfacet
  facet normal 0 0 -1
    outer loop
      vertex -2.07107 0 -6
      vertex -2.65803 1.20733 -6
      vertex -2.22295 1.34869 -6
    endloop
  endfacet
  facet normal 0 0 -1
    outer loop
      vertex 7.34764e-016 2.07107 -6
      vertex -2.07107 0 -6
      vertex -1.8367 1.59381 -6
    endloop
  endfacet
  facet normal 0 0 -1
    outer loop
      vertex 7.34764e-016 2.07107 -6
      vertex -1.8367 1.59381 -6
      vertex -1.52354 1.92729 -6
    endloop
  endfacet
  facet normal 0 0 -1
    outer loop
      vertex 7.34764e-016 2.07107 -6
      vertex -1.30316 2.32817 -6
      vertex -1.18939 2.77127 -6
    endloop
  endfacet
  facet normal -0 0 -1
    outer loop
      vertex 7.34764e-016 2.07107 -6
      vertex -1.52354 1.92729 -6
      vertex -1.30316 2.32817 -6
    endloop
  endfacet
  facet normal 0 0 -1
    outer loop
      vertex -17.0711 0 -6
      vertex -17 2.29768 -6
      vertex -15 2.07107 -6
    endloop
  endfacet
  facet normal 0 0 -1
    outer loop
      vertex -17.8 2.29768 -6
      vertex -18.5714 2.29768 -6
      vertex -18.5714 4.85353 -6
    endloop
  endfacet
  facet normal 0 0 -1
    outer loop
      vertex -15 2.07107 -6
      vertex -17 4.85353 -6
      vertex -15 6 -6
    endloop
  endfacet
  facet normal 0 0 -1
    outer loop
      vertex -17.8 4.85353 -6
      vertex -20.4645 5.96447 -6
      vertex -16.4289 10 -6
    endloop
  endfacet
  facet normal 0 0 -1
    outer loop
      vertex -17.0711 0 -6
      vertex -17.8 2.29768 -6
      vertex -17 2.29768 -6
    endloop
  endfacet
  facet normal 1.28184e-016 4.78187e-018 -1
    outer loop
      vertex -17.0711 0 -6
      vertex -30.9289 0 -6
      vertex -24.0857 2.29768 -6
    endloop
  endfacet
  facet normal -0 -0 -1
    outer loop
      vertex -17.8 2.29768 -6
      vertex -17.0711 0 -6
      vertex -18.5714 2.29768 -6
    endloop
  endfacet
  facet normal 0 0 -1
    outer loop
      vertex -17.8 4.85353 -6
      vertex -18.5714 4.85353 -6
      vertex -20.4645 5.96447 -6
    endloop
  endfacet
  facet normal -0 -0 -1
    outer loop
      vertex -17.8 4.85353 -6
      vertex -17.8 2.29768 -6
      vertex -18.5714 4.85353 -6
    endloop
  endfacet
  facet normal 0 0 -1
    outer loop
      vertex -18.5714 4.85353 -6
      vertex -19.3714 4.85353 -6
      vertex -20.4645 5.96447 -6
    endloop
  endfacet
  facet normal 0 0 -1
    outer loop
      vertex -20.1429 4.85353 -6
      vertex -19.3714 2.29768 -6
      vertex -20.1429 2.29768 -6
    endloop
  endfacet
  facet normal -0 -0 -1
    outer loop
      vertex -18.5714 2.29768 -6
      vertex -17.0711 0 -6
      vertex -19.3714 2.29768 -6
    endloop
  endfacet
  facet normal 0 -0 -1
    outer loop
      vertex -20.4645 5.96447 -6
      vertex -20.1429 4.85353 -6
      vertex -20.9429 4.85353 -6
    endloop
  endfacet
  facet normal -0 -0 -1
    outer loop
      vertex -19.3714 2.29768 -6
      vertex -17.0711 0 -6
      vertex -20.1429 2.29768 -6
    endloop
  endfacet
  facet normal 0 0 -1
    outer loop
      vertex -19.3714 4.85353 -6
      vertex -20.1429 4.85353 -6
      vertex -20.4645 5.96447 -6
    endloop
  endfacet
  facet normal -0 -0 -1
    outer loop
      vertex -19.3714 4.85353 -6
      vertex -19.3714 2.29768 -6
      vertex -20.1429 4.85353 -6
    endloop
  endfacet
  facet normal 0 0 -1
    outer loop
      vertex -20.5 6 -6
      vertex -20.9429 4.85353 -6
      vertex -21.7143 4.85353 -6
    endloop
  endfacet
  facet normal 0 0 -1
    outer loop
      vertex -21.7143 2.29768 -6
      vertex -20.9429 2.29768 -6
      vertex -17.0711 0 -6
    endloop
  endfacet
  facet normal 0 0 -1
    outer loop
      vertex -23.2857 2.29768 -6
      vertex -23.2857 4.85353 -6
      vertex -22.5143 2.29768 -6
    endloop
  endfacet
  facet normal 0 0 -1
    outer loop
      vertex -21.7143 4.85353 -6
      vertex -20.9429 4.85353 -6
      vertex -20.9429 2.29768 -6
    endloop
  endfacet
  facet normal 1.11022e-015 -1.1759e-015 -1
    outer loop
      vertex -22.5143 4.85353 -6
      vertex -20.5 6 -6
      vertex -21.7143 4.85353 -6
    endloop
  endfacet
  facet normal 0 7.74708e-016 -1
    outer loop
      vertex -23.2857 4.85353 -6
      vertex -20.5 6 -6
      vertex -22.5143 4.85353 -6
    endloop
  endfacet
  facet normal 1.11022e-015 2.24357e-015 -1
    outer loop
      vertex -17.0711 0 -6
      vertex -22.5143 2.29768 -6
      vertex -21.7143 2.29768 -6
    endloop
  endfacet
  facet normal 0 7.74708e-016 -1
    outer loop
      vertex -23.2857 4.85353 -6
      vertex -24.0857 4.85353 -6
      vertex -20.5 6 -6
    endloop
  endfacet
  facet normal 0 -3.86554e-016 -1
    outer loop
      vertex -17.0711 0 -6
      vertex -23.2857 2.29768 -6
      vertex -22.5143 2.29768 -6
    endloop
  endfacet
  facet normal 0 0 -1
    outer loop
      vertex -24.0857 2.29768 -6
      vertex -24.8571 2.29768 -6
      vertex -24.8571 4.85353 -6
    endloop
  endfacet
  facet normal 0 0 -1
    outer loop
      vertex -22.5143 2.29768 -6
      vertex -23.2857 4.85353 -6
      vertex -22.5143 4.85353 -6
    endloop
  endfacet
  facet normal 0 7.74708e-016 -1
    outer loop
      vertex -24.0857 4.85353 -6
      vertex -24.8571 4.85353 -6
      vertex -20.5 6 -6
    endloop
  endfacet
  facet normal 0 0 -1
    outer loop
      vertex -26.4286 4.85353 -6
      vertex -25.6571 2.29768 -6
      vertex -26.4286 2.29768 -6
    endloop
  endfacet
  facet normal -0 -3.86554e-016 -1
    outer loop
      vertex -23.2857 2.29768 -6
      vertex -17.0711 0 -6
      vertex -24.0857 2.29768 -6
    endloop
  endfacet
  facet normal 0 3.86554e-016 -1
    outer loop
      vertex -25.6571 2.29768 -6
      vertex -24.8571 2.29768 -6
      vertex -30.9289 0 -6
    endloop
  endfacet
  facet normal 0 3.86554e-016 -1
    outer loop
      vertex -24.0857 2.29768 -6
      vertex -30.9289 0 -6
      vertex -24.8571 2.29768 -6
    endloop
  endfacet
  facet normal 0 7.74708e-016 -1
    outer loop
      vertex -20.5 6 -6
      vertex -24.8571 4.85353 -6
      vertex -25.6571 4.85353 -6
    endloop
  endfacet
  facet normal -0 -0 -1
    outer loop
      vertex -24.0857 4.85353 -6
      vertex -24.0857 2.29768 -6
      vertex -24.8571 4.85353 -6
    endloop
  endfacet
  facet normal 1.69177e-016 1.37024e-017 -1
    outer loop
      vertex -20.5 6 -6
      vertex -25.6571 4.85353 -6
      vertex -31 6 -6
    endloop
  endfacet
  facet normal 3.75484e-016 -4.74956e-016 -1
    outer loop
      vertex -29.223 1.34869 -6
      vertex -25.6571 2.29768 -6
      vertex -30.9289 0 -6
    endloop
  endfacet
  facet normal 0 0 -1
    outer loop
      vertex -28.1894 2.77127 -6
      vertex -28.1894 3.22873 -6
      vertex -27.2286 2.29768 -6
    endloop
  endfacet
  facet normal 0 0 -1
    outer loop
      vertex -26.4286 4.85353 -6
      vertex -25.6571 4.85353 -6
      vertex -25.6571 2.29768 -6
    endloop
  endfacet
  facet normal 0 -7.74708e-016 -1
    outer loop
      vertex -31 6 -6
      vertex -25.6571 4.85353 -6
      vertex -26.4286 4.85353 -6
    endloop
  endfacet
  facet normal 0 -7.74708e-016 -1
    outer loop
      vertex -31 6 -6
      vertex -26.4286 4.85353 -6
      vertex -27.2286 4.85353 -6
    endloop
  endfacet
  facet normal -0 0 -1
    outer loop
      vertex -31.5993 3.8792 -6
      vertex -31.7677 3.45386 -6
      vertex -33 4 -6
    endloop
  endfacet
  facet normal 0 0 -1
    outer loop
      vertex -28.3032 2.32817 -6
      vertex -28.1894 2.77127 -6
      vertex -27.2286 2.29768 -6
    endloop
  endfacet
  facet normal -0 0 -1
    outer loop
      vertex -30.1146 1.1786 -6
      vertex -30.9289 0 -6
      vertex -30.564 1.26432 -6
    endloop
  endfacet
  facet normal 0 -0 -1
    outer loop
      vertex -27.2286 4.85353 -6
      vertex -27.2286 2.29768 -6
      vertex -28.1894 3.22873 -6
    endloop
  endfacet
  facet normal 0 0 -1
    outer loop
      vertex -27.2286 4.85353 -6
      vertex -28.1894 3.22873 -6
      vertex -28.3032 3.67183 -6
    endloop
  endfacet
  facet normal 0 0 -1
    outer loop
      vertex -27.2286 4.85353 -6
      vertex -28.3032 3.67183 -6
      vertex -28.5235 4.07271 -6
    endloop
  endfacet
  facet normal 7.00774e-016 -2.51917e-015 -1
    outer loop
      vertex -27.2286 4.85353 -6
      vertex -28.8367 4.40619 -6
      vertex -29.223 4.65131 -6
    endloop
  endfacet
  facet normal 0 0 -1
    outer loop
      vertex -27.2286 4.85353 -6
      vertex -28.5235 4.07271 -6
      vertex -28.8367 4.40619 -6
    endloop
  endfacet
  facet normal 3.92855e-016 5.17629e-016 -1
    outer loop
      vertex -27.2286 4.85353 -6
      vertex -29.223 4.65131 -6
      vertex -31 6 -6
    endloop
  endfacet
  facet normal 0 0 -1
    outer loop
      vertex -29.223 4.65131 -6
      vertex -29.658 4.79267 -6
      vertex -31 6 -6
    endloop
  endfacet
  facet normal 0 0 -1
    outer loop
      vertex -29.658 4.79267 -6
      vertex -30.1146 4.8214 -6
      vertex -31 6 -6
    endloop
  endfacet
  facet normal -0 0 -1
    outer loop
      vertex -30.1146 4.8214 -6
      vertex -30.564 4.73568 -6
      vertex -31 6 -6
    endloop
  endfacet
  facet normal -0 0 -1
    outer loop
      vertex -31.3304 4.2493 -6
      vertex -33 4 -6
      vertex -31 6 -6
    endloop
  endfacet
  facet normal 0 0 -1
    outer loop
      vertex -31.5993 3.8792 -6
      vertex -33 4 -6
      vertex -31.3304 4.2493 -6
    endloop
  endfacet
  facet normal -0 0 -1
    outer loop
      vertex -31.7677 3.45386 -6
      vertex -31.825 3 -6
      vertex -33 4 -6
    endloop
  endfacet
  facet normal -0 0 -1
    outer loop
      vertex -31.825 3 -6
      vertex -33 2.07107 -6
      vertex -33 4 -6
    endloop
  endfacet
  facet normal -0 0 -1
    outer loop
      vertex -31.7677 2.54614 -6
      vertex -33 2.07107 -6
      vertex -31.825 3 -6
    endloop
  endfacet
  facet normal -0 0 -1
    outer loop
      vertex -31.5993 2.1208 -6
      vertex -33 2.07107 -6
      vertex -31.7677 2.54614 -6
    endloop
  endfacet
  facet normal 0 0 -1
    outer loop
      vertex -33 2.07107 -6
      vertex -31.5993 2.1208 -6
      vertex -31.3304 1.7507 -6
    endloop
  endfacet
  facet normal 0 0 -1
    outer loop
      vertex -33 2.07107 -6
      vertex -31.3304 1.7507 -6
      vertex -30.9289 0 -6
    endloop
  endfacet
  facet normal 0 0 -1
    outer loop
      vertex -31.3304 1.7507 -6
      vertex -30.9779 1.4591 -6
      vertex -30.9289 0 -6
    endloop
  endfacet
  facet normal 0 0 -1
    outer loop
      vertex -30.9779 1.4591 -6
      vertex -30.564 1.26432 -6
      vertex -30.9289 0 -6
    endloop
  endfacet
  facet normal 0 0 -1
    outer loop
      vertex -29.658 1.20733 -6
      vertex -30.9289 0 -6
      vertex -30.1146 1.1786 -6
    endloop
  endfacet
  facet normal -1.96334e-015 6.71716e-015 -1
    outer loop
      vertex -28.8367 1.59381 -6
      vertex -26.4286 2.29768 -6
      vertex -29.223 1.34869 -6
    endloop
  endfacet
  facet normal 0 9.35921e-016 -1
    outer loop
      vertex -25.6571 2.29768 -6
      vertex -29.223 1.34869 -6
      vertex -26.4286 2.29768 -6
    endloop
  endfacet
  facet normal 0 0 -1
    outer loop
      vertex -30.9289 0 -6
      vertex -29.658 1.20733 -6
      vertex -29.223 1.34869 -6
    endloop
  endfacet
  facet normal -0 0 -1
    outer loop
      vertex -26.4286 2.29768 -6
      vertex -28.8367 1.59381 -6
      vertex -27.2286 2.29768 -6
    endloop
  endfacet
  facet normal 0 0 -1
    outer loop
      vertex -28.8367 1.59381 -6
      vertex -28.5235 1.92729 -6
      vertex -27.2286 2.29768 -6
    endloop
  endfacet
  facet normal 0 0 -1
    outer loop
      vertex -28.5235 1.92729 -6
      vertex -28.3032 2.32817 -6
      vertex -27.2286 2.29768 -6
    endloop
  endfacet
  facet normal -1 0 -1.18424e-015
    outer loop
      vertex -33 2.07107 -6
      vertex -33 2.07107 -4.0412e-015
      vertex -33 4 -4.0412e-015
    endloop
  endfacet
  facet normal -1 -0 -1.18424e-015
    outer loop
      vertex -33 4 -6
      vertex -33 2.07107 -6
      vertex -33 4 -4.0412e-015
    endloop
  endfacet
  facet normal 0 1 0
    outer loop
      vertex -20.5 6 -2.51044e-015
      vertex -31 6 -6
      vertex -31 6 -3.79628e-015
    endloop
  endfacet
  facet normal 0 1 0
    outer loop
      vertex -20.5 6 -2.51044e-015
      vertex -20.5 6 -6
      vertex -31 6 -6
    endloop
  endfacet
  facet normal -1 0 -1.4803e-016
    outer loop
      vertex -6 6 -7.34764e-016
      vertex -6 6 -6
      vertex -6 2.07107 -6
    endloop
  endfacet
  facet normal -1 0 -1.4803e-016
    outer loop
      vertex -6 2.07107 -7.34764e-016
      vertex -6 6 -7.34764e-016
      vertex -6 2.07107 -6
    endloop
  endfacet
  facet normal 0 -1 -0
    outer loop
      vertex -6 6 -7.34764e-016
      vertex -15 6 -6
      vertex -6 6 -6
    endloop
  endfacet
  facet normal 0 -1 0
    outer loop
      vertex -6 6 -7.34764e-016
      vertex -15 6 -1.83691e-015
      vertex -15 6 -6
    endloop
  endfacet
  facet normal 1 -0 2.96059e-016
    outer loop
      vertex -15 2.07107 -6
      vertex -15 6 -6
      vertex -15 6 -1.83691e-015
    endloop
  endfacet
  facet normal 1 -0 2.96059e-016
    outer loop
      vertex -15 2.07107 -1.83691e-015
      vertex -15 2.07107 -6
      vertex -15 6 -1.83691e-015
    endloop
  endfacet
  facet normal 0.707107 0.707107 1.04673e-016
    outer loop
      vertex 0 5 0
      vertex -5 10 -6
      vertex -5 10 -6.12303e-016
    endloop
  endfacet
  facet normal 0.707107 0.707107 8.65927e-017
    outer loop
      vertex 0 5 0
      vertex 7.34764e-016 5 -6
      vertex -5 10 -6
    endloop
  endfacet
  facet normal -0.707107 0.707107 -8.37383e-016
    outer loop
      vertex -31 6 -3.79628e-015
      vertex -33 4 -6
      vertex -33 4 -4.0412e-015
    endloop
  endfacet
  facet normal -0.707107 0.707107 -4.18691e-016
    outer loop
      vertex -31 6 -3.79628e-015
      vertex -31 6 -6
      vertex -33 4 -6
    endloop
  endfacet
  facet normal -0.707107 -0.707107 -4.18691e-016
    outer loop
      vertex -30.9289 0 -3.78758e-015
      vertex -33 2.07107 -6
      vertex -30.9289 0 -6
    endloop
  endfacet
  facet normal -0.707107 -0.707107 -8.37373e-016
    outer loop
      vertex -30.9289 0 -3.78758e-015
      vertex -33 2.07107 -4.0412e-015
      vertex -33 2.07107 -6
    endloop
  endfacet
  facet normal -0.707107 -0.707107 -1.04673e-016
    outer loop
      vertex -3.92893 0 -4.8114e-016
      vertex -6 2.07107 -6
      vertex -3.92893 0 -6
    endloop
  endfacet
  facet normal -0.707107 -0.707107 -1.04684e-016
    outer loop
      vertex -3.92893 0 -4.8114e-016
      vertex -6 2.07107 -7.34764e-016
      vertex -6 2.07107 -6
    endloop
  endfacet
  facet normal 0.707107 -0.707107 8.65927e-017
    outer loop
      vertex 0 2.07107 0
      vertex -2.07107 0 -6
      vertex 7.34764e-016 2.07107 -6
    endloop
  endfacet
  facet normal 0.707107 -0.707107 1.04684e-016
    outer loop
      vertex 0 2.07107 0
      vertex -2.07107 0 -2.53624e-016
      vertex -2.07107 0 -6
    endloop
  endfacet
  facet normal 0.707107 -0.707107 2.09346e-016
    outer loop
      vertex -15 2.07107 -1.83691e-015
      vertex -17.0711 0 -6
      vertex -15 2.07107 -6
    endloop
  endfacet
  facet normal 0.707107 -0.707107 4.18687e-016
    outer loop
      vertex -15 2.07107 -1.83691e-015
      vertex -17.0711 0 -2.09053e-015
      vertex -17.0711 0 -6
    endloop
  endfacet
  facet normal -0.707107 0.707107 -4.18703e-016
    outer loop
      vertex -16.4289 10 -2.0119e-015
      vertex -20.4645 5.96447 -6
      vertex -20.4645 5.96447 -2.50609e-015
    endloop
  endfacet
  facet normal -0.707107 0.707107 -4.18691e-016
    outer loop
      vertex -16.4289 10 -2.0119e-015
      vertex -16.4289 10 -6
      vertex -20.4645 5.96447 -6
    endloop
  endfacet
  facet normal 0.707107 0.707107 4.18691e-016
    outer loop
      vertex -20.4645 5.96447 -2.50609e-015
      vertex -20.5 6 -6
      vertex -20.5 6 -2.51044e-015
    endloop
  endfacet
  facet normal 0.707107 0.707107 4.18691e-016
    outer loop
      vertex -20.4645 5.96447 -2.50609e-015
      vertex -20.4645 5.96447 -6
      vertex -20.5 6 -6
    endloop
  endfacet
  facet normal 0.992115 -0.125333 1.46862e-016
    outer loop
      vertex -4.76766 3.45386 -5.83851e-016
      vertex -4.825 3 -6
      vertex -4.76766 3.45386 -6
    endloop
  endfacet
  facet normal 0.992115 -0.125333 1.46862e-016
    outer loop
      vertex -4.76766 3.45386 -5.83851e-016
      vertex -4.825 3 -5.90873e-016
      vertex -4.825 3 -6
    endloop
  endfacet
  facet normal 0.929776 -0.368125 1.37635e-016
    outer loop
      vertex -4.59926 3.8792 -5.63228e-016
      vertex -4.76766 3.45386 -6
      vertex -4.59926 3.8792 -6
    endloop
  endfacet
  facet normal 0.929776 -0.368125 1.37634e-016
    outer loop
      vertex -4.59926 3.8792 -5.63228e-016
      vertex -4.76766 3.45386 -5.83851e-016
      vertex -4.76766 3.45386 -6
    endloop
  endfacet
  facet normal 0.809018 -0.587784 1.19759e-016
    outer loop
      vertex -4.33037 4.2493 -5.303e-016
      vertex -4.59926 3.8792 -6
      vertex -4.33037 4.2493 -6
    endloop
  endfacet
  facet normal 0.809018 -0.587784 1.1976e-016
    outer loop
      vertex -4.33037 4.2493 -5.303e-016
      vertex -4.59926 3.8792 -5.63228e-016
      vertex -4.59926 3.8792 -6
    endloop
  endfacet
  facet normal 0.637424 -0.770513 9.43578e-017
    outer loop
      vertex -3.97788 4.5409 -4.87134e-016
      vertex -4.33037 4.2493 -6
      vertex -3.97788 4.5409 -6
    endloop
  endfacet
  facet normal 0.637424 -0.770513 9.43587e-017
    outer loop
      vertex -3.97788 4.5409 -4.87134e-016
      vertex -4.33037 4.2493 -5.303e-016
      vertex -4.33037 4.2493 -6
    endloop
  endfacet
  facet normal 0.425779 -0.904827 6.30279e-017
    outer loop
      vertex -3.56396 4.73568 -4.36444e-016
      vertex -3.97788 4.5409 -6
      vertex -3.56396 4.73568 -6
    endloop
  endfacet
  facet normal 0.425779 -0.904827 6.30276e-017
    outer loop
      vertex -3.56396 4.73568 -4.36444e-016
      vertex -3.97788 4.5409 -4.87134e-016
      vertex -3.97788 4.5409 -6
    endloop
  endfacet
  facet normal 0.187382 -0.982287 2.77381e-017
    outer loop
      vertex -3.11459 4.8214 -3.81415e-016
      vertex -3.56396 4.73568 -6
      vertex -3.11459 4.8214 -6
    endloop
  endfacet
  facet normal 0.187382 -0.982287 2.77378e-017
    outer loop
      vertex -3.11459 4.8214 -3.81415e-016
      vertex -3.56396 4.73568 -4.36444e-016
      vertex -3.56396 4.73568 -6
    endloop
  endfacet
  facet normal -0.0627909 -0.998027 -9.29492e-018
    outer loop
      vertex -2.65803 4.79267 -3.25504e-016
      vertex -3.11459 4.8214 -6
      vertex -2.65803 4.79267 -6
    endloop
  endfacet
  facet normal -0.0627909 -0.998027 -9.29492e-018
    outer loop
      vertex -2.65803 4.79267 -3.25504e-016
      vertex -3.11459 4.8214 -3.81415e-016
      vertex -3.11459 4.8214 -6
    endloop
  endfacet
  facet normal -0.309017 -0.951056 -4.57437e-017
    outer loop
      vertex -2.22295 4.65131 -2.72224e-016
      vertex -2.65803 4.79267 -6
      vertex -2.22295 4.65131 -6
    endloop
  endfacet
  facet normal -0.309017 -0.951056 -4.57437e-017
    outer loop
      vertex -2.22295 4.65131 -2.72224e-016
      vertex -2.65803 4.79267 -3.25504e-016
      vertex -2.65803 4.79267 -6
    endloop
  endfacet
  facet normal -0.535826 -0.844329 -7.93181e-017
    outer loop
      vertex -1.8367 4.40619 -2.24924e-016
      vertex -2.22295 4.65131 -6
      vertex -1.8367 4.40619 -6
    endloop
  endfacet
  facet normal -0.535826 -0.844329 -7.93191e-017
    outer loop
      vertex -1.8367 4.40619 -2.24924e-016
      vertex -2.22295 4.65131 -2.72224e-016
      vertex -2.22295 4.65131 -6
    endloop
  endfacet
  facet normal -0.728969 -0.684547 -1.07909e-016
    outer loop
      vertex -1.52354 4.07271 -1.86574e-016
      vertex -1.8367 4.40619 -6
      vertex -1.52354 4.07271 -6
    endloop
  endfacet
  facet normal -0.728969 -0.684547 -1.0791e-016
    outer loop
      vertex -1.52354 4.07271 -1.86574e-016
      vertex -1.8367 4.40619 -2.24924e-016
      vertex -1.8367 4.40619 -6
    endloop
  endfacet
  facet normal -0.876306 -0.481754 -1.29719e-016
    outer loop
      vertex -1.30316 3.67183 -1.59586e-016
      vertex -1.52354 4.07271 -6
      vertex -1.30316 3.67183 -6
    endloop
  endfacet
  facet normal -0.876306 -0.481754 -1.29719e-016
    outer loop
      vertex -1.30316 3.67183 -1.59586e-016
      vertex -1.52354 4.07271 -1.86574e-016
      vertex -1.52354 4.07271 -6
    endloop
  endfacet
  facet normal -0.968583 -0.248689 -1.43379e-016
    outer loop
      vertex -1.18939 3.22873 -1.45654e-016
      vertex -1.30316 3.67183 -6
      vertex -1.18939 3.22873 -6
    endloop
  endfacet
  facet normal -0.968583 -0.248689 -1.43379e-016
    outer loop
      vertex -1.18939 3.22873 -1.45654e-016
      vertex -1.30316 3.67183 -1.59586e-016
      vertex -1.30316 3.67183 -6
    endloop
  endfacet
  facet normal -1 0 -1.4803e-016
    outer loop
      vertex -1.18939 3.22873 -1.45654e-016
      vertex -1.18939 3.22873 -6
      vertex -1.18939 2.77127 -6
    endloop
  endfacet
  facet normal -1 0 -1.4803e-016
    outer loop
      vertex -1.18939 2.77127 -1.45654e-016
      vertex -1.18939 3.22873 -1.45654e-016
      vertex -1.18939 2.77127 -6
    endloop
  endfacet
  facet normal -0.968583 0.248689 -1.43379e-016
    outer loop
      vertex -1.18939 2.77127 -1.45654e-016
      vertex -1.30316 2.32817 -6
      vertex -1.30316 2.32817 -1.59586e-016
    endloop
  endfacet
  facet normal -0.968583 0.248689 -1.43379e-016
    outer loop
      vertex -1.18939 2.77127 -1.45654e-016
      vertex -1.18939 2.77127 -6
      vertex -1.30316 2.32817 -6
    endloop
  endfacet
  facet normal -0.876306 0.481754 -1.29719e-016
    outer loop
      vertex -1.30316 2.32817 -1.59586e-016
      vertex -1.52354 1.92729 -6
      vertex -1.52354 1.92729 -1.86574e-016
    endloop
  endfacet
  facet normal -0.876306 0.481754 -1.29719e-016
    outer loop
      vertex -1.30316 2.32817 -1.59586e-016
      vertex -1.30316 2.32817 -6
      vertex -1.52354 1.92729 -6
    endloop
  endfacet
  facet normal -0.728969 0.684547 -1.0791e-016
    outer loop
      vertex -1.52354 1.92729 -1.86574e-016
      vertex -1.8367 1.59381 -6
      vertex -1.8367 1.59381 -2.24924e-016
    endloop
  endfacet
  facet normal -0.728969 0.684547 -1.07909e-016
    outer loop
      vertex -1.52354 1.92729 -1.86574e-016
      vertex -1.52354 1.92729 -6
      vertex -1.8367 1.59381 -6
    endloop
  endfacet
  facet normal -0.535826 0.844329 -7.93191e-017
    outer loop
      vertex -1.8367 1.59381 -2.24924e-016
      vertex -2.22295 1.34869 -6
      vertex -2.22295 1.34869 -2.72224e-016
    endloop
  endfacet
  facet normal -0.535826 0.844329 -7.93181e-017
    outer loop
      vertex -1.8367 1.59381 -2.24924e-016
      vertex -1.8367 1.59381 -6
      vertex -2.22295 1.34869 -6
    endloop
  endfacet
  facet normal -0.309017 0.951056 -4.57437e-017
    outer loop
      vertex -2.22295 1.34869 -2.72224e-016
      vertex -2.65803 1.20733 -6
      vertex -2.65803 1.20733 -3.25504e-016
    endloop
  endfacet
  facet normal -0.309017 0.951056 -4.57437e-017
    outer loop
      vertex -2.22295 1.34869 -2.72224e-016
      vertex -2.22295 1.34869 -6
      vertex -2.65803 1.20733 -6
    endloop
  endfacet
  facet normal -0.0627909 0.998027 -9.29492e-018
    outer loop
      vertex -2.65803 1.20733 -3.25504e-016
      vertex -3.11459 1.1786 -6
      vertex -3.11459 1.1786 -3.81415e-016
    endloop
  endfacet
  facet normal -0.0627909 0.998027 -9.29492e-018
    outer loop
      vertex -2.65803 1.20733 -3.25504e-016
      vertex -2.65803 1.20733 -6
      vertex -3.11459 1.1786 -6
    endloop
  endfacet
  facet normal 0.187382 0.982287 2.77378e-017
    outer loop
      vertex -3.11459 1.1786 -3.81415e-016
      vertex -3.56396 1.26432 -6
      vertex -3.56396 1.26432 -4.36444e-016
    endloop
  endfacet
  facet normal 0.187382 0.982287 2.77381e-017
    outer loop
      vertex -3.11459 1.1786 -3.81415e-016
      vertex -3.11459 1.1786 -6
      vertex -3.56396 1.26432 -6
    endloop
  endfacet
  facet normal 0.425779 0.904827 6.30276e-017
    outer loop
      vertex -3.56396 1.26432 -4.36444e-016
      vertex -3.97788 1.4591 -6
      vertex -3.97788 1.4591 -4.87134e-016
    endloop
  endfacet
  facet normal 0.425779 0.904827 6.30279e-017
    outer loop
      vertex -3.56396 1.26432 -4.36444e-016
      vertex -3.56396 1.26432 -6
      vertex -3.97788 1.4591 -6
    endloop
  endfacet
  facet normal 0.637424 0.770513 9.43587e-017
    outer loop
      vertex -3.97788 1.4591 -4.87134e-016
      vertex -4.33037 1.7507 -6
      vertex -4.33037 1.7507 -5.303e-016
    endloop
  endfacet
  facet normal 0.637424 0.770513 9.43578e-017
    outer loop
      vertex -3.97788 1.4591 -4.87134e-016
      vertex -3.97788 1.4591 -6
      vertex -4.33037 1.7507 -6
    endloop
  endfacet
  facet normal 0.809018 0.587784 1.1976e-016
    outer loop
      vertex -4.33037 1.7507 -5.303e-016
      vertex -4.59926 2.1208 -6
      vertex -4.59926 2.1208 -5.63228e-016
    endloop
  endfacet
  facet normal 0.809018 0.587784 1.19759e-016
    outer loop
      vertex -4.33037 1.7507 -5.303e-016
      vertex -4.33037 1.7507 -6
      vertex -4.59926 2.1208 -6
    endloop
  endfacet
  facet normal 0.929776 0.368125 1.37634e-016
    outer loop
      vertex -4.59926 2.1208 -5.63228e-016
      vertex -4.76766 2.54614 -6
      vertex -4.76766 2.54614 -5.83851e-016
    endloop
  endfacet
  facet normal 0.929776 0.368125 1.37635e-016
    outer loop
      vertex -4.59926 2.1208 -5.63228e-016
      vertex -4.59926 2.1208 -6
      vertex -4.76766 2.54614 -6
    endloop
  endfacet
  facet normal 0.992115 0.125333 1.46862e-016
    outer loop
      vertex -4.76766 2.54614 -5.83851e-016
      vertex -4.825 3 -6
      vertex -4.825 3 -5.90873e-016
    endloop
  endfacet
  facet normal 0.992115 0.125333 1.46862e-016
    outer loop
      vertex -4.76766 2.54614 -5.83851e-016
      vertex -4.76766 2.54614 -6
      vertex -4.825 3 -6
    endloop
  endfacet
  facet normal 0.992115 -0.125333 5.8745e-016
    outer loop
      vertex -31.7677 3.45386 -3.89029e-015
      vertex -31.825 3 -6
      vertex -31.7677 3.45386 -6
    endloop
  endfacet
  facet normal 0.992115 -0.125333 5.8745e-016
    outer loop
      vertex -31.7677 3.45386 -3.89029e-015
      vertex -31.825 3 -3.89731e-015
      vertex -31.825 3 -6
    endloop
  endfacet
  facet normal 0.929776 -0.368125 5.50538e-016
    outer loop
      vertex -31.5993 3.8792 -3.86967e-015
      vertex -31.7677 3.45386 -6
      vertex -31.5993 3.8792 -6
    endloop
  endfacet
  facet normal 0.929776 -0.368125 5.50538e-016
    outer loop
      vertex -31.5993 3.8792 -3.86967e-015
      vertex -31.7677 3.45386 -3.89029e-015
      vertex -31.7677 3.45386 -6
    endloop
  endfacet
  facet normal 0.809018 -0.587784 4.79035e-016
    outer loop
      vertex -31.3304 4.2493 -3.83674e-015
      vertex -31.5993 3.8792 -6
      vertex -31.3304 4.2493 -6
    endloop
  endfacet
  facet normal 0.809018 -0.587784 4.79035e-016
    outer loop
      vertex -31.3304 4.2493 -3.83674e-015
      vertex -31.5993 3.8792 -3.86967e-015
      vertex -31.5993 3.8792 -6
    endloop
  endfacet
  facet normal 0.637424 -0.770513 3.77431e-016
    outer loop
      vertex -30.9779 4.5409 -3.79357e-015
      vertex -31.3304 4.2493 -6
      vertex -30.9779 4.5409 -6
    endloop
  endfacet
  facet normal 0.637424 -0.770513 3.7743e-016
    outer loop
      vertex -30.9779 4.5409 -3.79357e-015
      vertex -31.3304 4.2493 -3.83674e-015
      vertex -31.3304 4.2493 -6
    endloop
  endfacet
  facet normal 0.425779 -0.904827 2.52112e-016
    outer loop
      vertex -30.564 4.73568 -3.74288e-015
      vertex -30.9779 4.5409 -6
      vertex -30.564 4.73568 -6
    endloop
  endfacet
  facet normal 0.425779 -0.904827 2.5211e-016
    outer loop
      vertex -30.564 4.73568 -3.74288e-015
      vertex -30.9779 4.5409 -3.79357e-015
      vertex -30.9779 4.5409 -6
    endloop
  endfacet
  facet normal 0.187382 -0.982287 1.10952e-016
    outer loop
      vertex -30.1146 4.8214 -3.68785e-015
      vertex -30.564 4.73568 -6
      vertex -30.1146 4.8214 -6
    endloop
  endfacet
  facet normal 0.187382 -0.982287 1.10952e-016
    outer loop
      vertex -30.1146 4.8214 -3.68785e-015
      vertex -30.564 4.73568 -3.74288e-015
      vertex -30.564 4.73568 -6
    endloop
  endfacet
  facet normal -0.0627909 -0.998027 -3.71797e-017
    outer loop
      vertex -29.658 4.79267 -3.63194e-015
      vertex -30.1146 4.8214 -6
      vertex -29.658 4.79267 -6
    endloop
  endfacet
  facet normal -0.0627909 -0.998027 -3.71797e-017
    outer loop
      vertex -29.658 4.79267 -3.63194e-015
      vertex -30.1146 4.8214 -3.68785e-015
      vertex -30.1146 4.8214 -6
    endloop
  endfacet
  facet normal -0.309017 -0.951056 -1.82975e-016
    outer loop
      vertex -29.223 4.65131 -3.57866e-015
      vertex -29.658 4.79267 -6
      vertex -29.223 4.65131 -6
    endloop
  endfacet
  facet normal -0.309017 -0.951056 -1.82975e-016
    outer loop
      vertex -29.223 4.65131 -3.57866e-015
      vertex -29.658 4.79267 -3.63194e-015
      vertex -29.658 4.79267 -6
    endloop
  endfacet
  facet normal -0.535826 -0.844329 -3.17273e-016
    outer loop
      vertex -29.223 4.65131 -3.57866e-015
      vertex -29.223 4.65131 -6
      vertex -28.8367 4.40619 -6
    endloop
  endfacet
  facet normal -0.535826 -0.844329 -3.17273e-016
    outer loop
      vertex -28.8367 4.40619 -3.53136e-015
      vertex -29.223 4.65131 -3.57866e-015
      vertex -28.8367 4.40619 -6
    endloop
  endfacet
  facet normal -0.728969 -0.684547 -4.31636e-016
    outer loop
      vertex -28.5235 4.07271 -3.49301e-015
      vertex -28.8367 4.40619 -6
      vertex -28.5235 4.07271 -6
    endloop
  endfacet
  facet normal -0.728969 -0.684547 -4.31636e-016
    outer loop
      vertex -28.5235 4.07271 -3.49301e-015
      vertex -28.8367 4.40619 -3.53136e-015
      vertex -28.8367 4.40619 -6
    endloop
  endfacet
  facet normal -0.876306 -0.481754 -5.18878e-016
    outer loop
      vertex -28.3032 3.67183 -3.46602e-015
      vertex -28.5235 4.07271 -6
      vertex -28.3032 3.67183 -6
    endloop
  endfacet
  facet normal -0.876306 -0.481754 -5.18878e-016
    outer loop
      vertex -28.3032 3.67183 -3.46602e-015
      vertex -28.5235 4.07271 -3.49301e-015
      vertex -28.5235 4.07271 -6
    endloop
  endfacet
  facet normal -0.968583 -0.248689 -5.73517e-016
    outer loop
      vertex -28.1894 3.22873 -3.45209e-015
      vertex -28.3032 3.67183 -6
      vertex -28.1894 3.22873 -6
    endloop
  endfacet
  facet normal -0.968583 -0.248689 -5.73517e-016
    outer loop
      vertex -28.1894 3.22873 -3.45209e-015
      vertex -28.3032 3.67183 -3.46602e-015
      vertex -28.3032 3.67183 -6
    endloop
  endfacet
  facet normal -1 0 -5.92119e-016
    outer loop
      vertex -28.1894 3.22873 -3.45209e-015
      vertex -28.1894 3.22873 -6
      vertex -28.1894 2.77127 -6
    endloop
  endfacet
  facet normal -1 0 -5.92119e-016
    outer loop
      vertex -28.1894 2.77127 -3.45209e-015
      vertex -28.1894 3.22873 -3.45209e-015
      vertex -28.1894 2.77127 -6
    endloop
  endfacet
  facet normal -0.968583 0.248689 -5.73517e-016
    outer loop
      vertex -28.1894 2.77127 -3.45209e-015
      vertex -28.3032 2.32817 -6
      vertex -28.3032 2.32817 -3.46602e-015
    endloop
  endfacet
  facet normal -0.968583 0.248689 -5.73517e-016
    outer loop
      vertex -28.1894 2.77127 -3.45209e-015
      vertex -28.1894 2.77127 -6
      vertex -28.3032 2.32817 -6
    endloop
  endfacet
  facet normal -0.876306 0.481754 -5.18878e-016
    outer loop
      vertex -28.3032 2.32817 -3.46602e-015
      vertex -28.5235 1.92729 -6
      vertex -28.5235 1.92729 -3.49301e-015
    endloop
  endfacet
  facet normal -0.876306 0.481754 -5.18878e-016
    outer loop
      vertex -28.3032 2.32817 -3.46602e-015
      vertex -28.3032 2.32817 -6
      vertex -28.5235 1.92729 -6
    endloop
  endfacet
  facet normal -0.728969 0.684547 -4.31636e-016
    outer loop
      vertex -28.5235 1.92729 -3.49301e-015
      vertex -28.8367 1.59381 -6
      vertex -28.8367 1.59381 -3.53136e-015
    endloop
  endfacet
  facet normal -0.728969 0.684547 -4.31636e-016
    outer loop
      vertex -28.5235 1.92729 -3.49301e-015
      vertex -28.5235 1.92729 -6
      vertex -28.8367 1.59381 -6
    endloop
  endfacet
  facet normal -0.535826 0.844329 -3.17271e-016
    outer loop
      vertex -28.8367 1.59381 -6
      vertex -29.223 1.34869 -6
      vertex -29.223 1.34869 -3.57866e-015
    endloop
  endfacet
  facet normal -0.535826 0.844329 -3.17273e-016
    outer loop
      vertex -28.8367 1.59381 -3.53136e-015
      vertex -28.8367 1.59381 -6
      vertex -29.223 1.34869 -3.57866e-015
    endloop
  endfacet
  facet normal -0.309017 0.951056 -1.82975e-016
    outer loop
      vertex -29.223 1.34869 -3.57866e-015
      vertex -29.658 1.20733 -6
      vertex -29.658 1.20733 -3.63194e-015
    endloop
  endfacet
  facet normal -0.309017 0.951056 -1.82975e-016
    outer loop
      vertex -29.223 1.34869 -3.57866e-015
      vertex -29.223 1.34869 -6
      vertex -29.658 1.20733 -6
    endloop
  endfacet
  facet normal -0.0627909 0.998027 -3.71797e-017
    outer loop
      vertex -29.658 1.20733 -3.63194e-015
      vertex -30.1146 1.1786 -6
      vertex -30.1146 1.1786 -3.68785e-015
    endloop
  endfacet
  facet normal -0.0627909 0.998027 -3.71797e-017
    outer loop
      vertex -29.658 1.20733 -3.63194e-015
      vertex -29.658 1.20733 -6
      vertex -30.1146 1.1786 -6
    endloop
  endfacet
  facet normal 0.187382 0.982287 1.10952e-016
    outer loop
      vertex -30.1146 1.1786 -3.68785e-015
      vertex -30.564 1.26432 -6
      vertex -30.564 1.26432 -3.74288e-015
    endloop
  endfacet
  facet normal 0.187382 0.982287 1.10952e-016
    outer loop
      vertex -30.1146 1.1786 -3.68785e-015
      vertex -30.1146 1.1786 -6
      vertex -30.564 1.26432 -6
    endloop
  endfacet
  facet normal 0.425779 0.904827 2.5211e-016
    outer loop
      vertex -30.564 1.26432 -3.74288e-015
      vertex -30.9779 1.4591 -6
      vertex -30.9779 1.4591 -3.79357e-015
    endloop
  endfacet
  facet normal 0.425779 0.904827 2.52112e-016
    outer loop
      vertex -30.564 1.26432 -3.74288e-015
      vertex -30.564 1.26432 -6
      vertex -30.9779 1.4591 -6
    endloop
  endfacet
  facet normal 0.637424 0.770513 3.7743e-016
    outer loop
      vertex -30.9779 1.4591 -3.79357e-015
      vertex -31.3304 1.7507 -6
      vertex -31.3304 1.7507 -3.83674e-015
    endloop
  endfacet
  facet normal 0.637424 0.770513 3.77431e-016
    outer loop
      vertex -30.9779 1.4591 -3.79357e-015
      vertex -30.9779 1.4591 -6
      vertex -31.3304 1.7507 -6
    endloop
  endfacet
  facet normal 0.809018 0.587784 4.79035e-016
    outer loop
      vertex -31.3304 1.7507 -3.83674e-015
      vertex -31.5993 2.1208 -6
      vertex -31.5993 2.1208 -3.86967e-015
    endloop
  endfacet
  facet normal 0.809018 0.587784 4.79035e-016
    outer loop
      vertex -31.3304 1.7507 -3.83674e-015
      vertex -31.3304 1.7507 -6
      vertex -31.5993 2.1208 -6
    endloop
  endfacet
  facet normal 0.929776 0.368125 5.50538e-016
    outer loop
      vertex -31.5993 2.1208 -3.86967e-015
      vertex -31.7677 2.54614 -6
      vertex -31.7677 2.54614 -3.89029e-015
    endloop
  endfacet
  facet normal 0.929776 0.368125 5.50538e-016
    outer loop
      vertex -31.5993 2.1208 -3.86967e-015
      vertex -31.5993 2.1208 -6
      vertex -31.7677 2.54614 -6
    endloop
  endfacet
  facet normal 0.992115 0.125333 5.8745e-016
    outer loop
      vertex -31.7677 2.54614 -3.89029e-015
      vertex -31.825 3 -6
      vertex -31.825 3 -3.89731e-015
    endloop
  endfacet
  facet normal 0.992115 0.125333 5.8745e-016
    outer loop
      vertex -31.7677 2.54614 -3.89029e-015
      vertex -31.7677 2.54614 -6
      vertex -31.825 3 -6
    endloop
  endfacet
  facet normal 0 0 1
    outer loop
      vertex -16.75 1 -1
      vertex -17 1.2349 -1
      vertex -17.8 1.2349 -1
    endloop
  endfacet
  facet normal -1.23932e-016 1.56005e-016 1
    outer loop
      vertex -22.5143 3.79075 -1
      vertex -16.75 4.1 -1
      vertex -27.5 4.1 -1
    endloop
  endfacet
  facet normal 0 0 1
    outer loop
      vertex -17 3.79075 -1
      vertex -17 1.2349 -1
      vertex -16.75 1 -1
    endloop
  endfacet
  facet normal 0 -0 1
    outer loop
      vertex -16.75 1 -1
      vertex -16.75 4.1 -1
      vertex -17 3.79075 -1
    endloop
  endfacet
  facet normal -2.87836e-016 0 1
    outer loop
      vertex -18.5714 3.79075 -1
      vertex -17.8 1.2349 -1
      vertex -17.8 3.79075 -1
    endloop
  endfacet
  facet normal -2.87836e-016 -1.28664e-015 1
    outer loop
      vertex -18.5714 1.2349 -1
      vertex -16.75 1 -1
      vertex -17.8 1.2349 -1
    endloop
  endfacet
  facet normal -2.87836e-016 0 1
    outer loop
      vertex -18.5714 3.79075 -1
      vertex -18.5714 1.2349 -1
      vertex -17.8 1.2349 -1
    endloop
  endfacet
  facet normal 0 0 1
    outer loop
      vertex -17.8 3.79075 -1
      vertex -17 3.79075 -1
      vertex -16.75 4.1 -1
    endloop
  endfacet
  facet normal -0 9.45284e-016 1
    outer loop
      vertex -19.3714 1.2349 -1
      vertex -16.75 1 -1
      vertex -18.5714 1.2349 -1
    endloop
  endfacet
  facet normal -2.87835e-016 0 1
    outer loop
      vertex -20.1429 3.79075 -1
      vertex -19.3714 1.2349 -1
      vertex -19.3714 3.79075 -1
    endloop
  endfacet
  facet normal -2.87835e-016 -2.26693e-015 1
    outer loop
      vertex -20.1429 1.2349 -1
      vertex -16.75 1 -1
      vertex -19.3714 1.2349 -1
    endloop
  endfacet
  facet normal 0 -7.18006e-016 1
    outer loop
      vertex -16.75 4.1 -1
      vertex -19.3714 3.79075 -1
      vertex -18.5714 3.79075 -1
    endloop
  endfacet
  facet normal 0 1.89057e-015 1
    outer loop
      vertex -20.9429 1.2349 -1
      vertex -21.7143 1.2349 -1
      vertex -16.75 1 -1
    endloop
  endfacet
  facet normal -2.87836e-016 9.77286e-016 1
    outer loop
      vertex -16.75 4.1 -1
      vertex -18.5714 3.79075 -1
      vertex -17.8 3.79075 -1
    endloop
  endfacet
  facet normal -0 1.89057e-015 1
    outer loop
      vertex -20.9429 1.2349 -1
      vertex -16.75 1 -1
      vertex -20.1429 1.2349 -1
    endloop
  endfacet
  facet normal -2.77556e-016 -3.97526e-015 1
    outer loop
      vertex -21.7143 1.2349 -1
      vertex -22.5143 1.2349 -1
      vertex -16.75 1 -1
    endloop
  endfacet
  facet normal 0 -1.43601e-015 1
    outer loop
      vertex -16.75 4.1 -1
      vertex -20.9429 3.79075 -1
      vertex -20.1429 3.79075 -1
    endloop
  endfacet
  facet normal -1.23932e-016 -2.05387e-016 1
    outer loop
      vertex -22.5143 1.2349 -1
      vertex -27.5 1 -1
      vertex -16.75 1 -1
    endloop
  endfacet
  facet normal -2.87835e-016 0 1
    outer loop
      vertex -19.3714 1.2349 -1
      vertex -20.1429 3.79075 -1
      vertex -20.1429 1.2349 -1
    endloop
  endfacet
  facet normal -2.87835e-016 1.72188e-015 1
    outer loop
      vertex -19.3714 3.79075 -1
      vertex -16.75 4.1 -1
      vertex -20.1429 3.79075 -1
    endloop
  endfacet
  facet normal 0 0 1
    outer loop
      vertex -20.9429 3.79075 -1
      vertex -21.7143 3.79075 -1
      vertex -20.9429 1.2349 -1
    endloop
  endfacet
  facet normal -2.77556e-016 -9.35971e-016 1
    outer loop
      vertex -25.6571 3.79075 -1
      vertex -24.8571 3.79075 -1
      vertex -27.5 4.1 -1
    endloop
  endfacet
  facet normal 0 -2.83585e-015 1
    outer loop
      vertex -23.2857 1.2349 -1
      vertex -27.5 1 -1
      vertex -22.5143 1.2349 -1
    endloop
  endfacet
  facet normal -2.77556e-016 3.01947e-015 1
    outer loop
      vertex -21.7143 3.79075 -1
      vertex -16.75 4.1 -1
      vertex -22.5143 3.79075 -1
    endloop
  endfacet
  facet normal 0 0 1
    outer loop
      vertex -20.9429 1.2349 -1
      vertex -21.7143 3.79075 -1
      vertex -21.7143 1.2349 -1
    endloop
  endfacet
  facet normal 0 -1.43601e-015 1
    outer loop
      vertex -20.9429 3.79075 -1
      vertex -16.75 4.1 -1
      vertex -21.7143 3.79075 -1
    endloop
  endfacet
  facet normal 0 0 1
    outer loop
      vertex -22.5143 3.79075 -1
      vertex -23.2857 3.79075 -1
      vertex -22.5143 1.2349 -1
    endloop
  endfacet
  facet normal -2.77556e-016 -2.43609e-016 1
    outer loop
      vertex -27.2286 3.79075 -1
      vertex -26.4286 3.79075 -1
      vertex -27.5 4.1 -1
    endloop
  endfacet
  facet normal -2.77556e-016 2.14377e-015 1
    outer loop
      vertex -23.2857 1.2349 -1
      vertex -24.0857 1.2349 -1
      vertex -27.5 1 -1
    endloop
  endfacet
  facet normal -0 2.15402e-015 1
    outer loop
      vertex -23.2857 3.79075 -1
      vertex -22.5143 3.79075 -1
      vertex -27.5 4.1 -1
    endloop
  endfacet
  facet normal -2.77556e-016 -1.62833e-015 1
    outer loop
      vertex -23.2857 3.79075 -1
      vertex -27.5 4.1 -1
      vertex -24.0857 3.79075 -1
    endloop
  endfacet
  facet normal 0 0 1
    outer loop
      vertex -23.2857 1.2349 -1
      vertex -22.5143 1.2349 -1
      vertex -23.2857 3.79075 -1
    endloop
  endfacet
  facet normal 0 -1.89057e-015 1
    outer loop
      vertex -24.0857 1.2349 -1
      vertex -24.8571 1.2349 -1
      vertex -27.5 1 -1
    endloop
  endfacet
  facet normal 0 -0 1
    outer loop
      vertex -24.0857 1.2349 -1
      vertex -24.0857 3.79075 -1
      vertex -24.8571 3.79075 -1
    endloop
  endfacet
  facet normal -2.77556e-016 1.23225e-015 1
    outer loop
      vertex -24.8571 1.2349 -1
      vertex -25.6571 1.2349 -1
      vertex -27.5 1 -1
    endloop
  endfacet
  facet normal -0 1.43601e-015 1
    outer loop
      vertex -24.8571 3.79075 -1
      vertex -24.0857 3.79075 -1
      vertex -27.5 4.1 -1
    endloop
  endfacet
  facet normal 0 0 1
    outer loop
      vertex -24.8571 1.2349 -1
      vertex -24.0857 1.2349 -1
      vertex -24.8571 3.79075 -1
    endloop
  endfacet
  facet normal 0 -9.45284e-016 1
    outer loop
      vertex -25.6571 1.2349 -1
      vertex -26.4286 1.2349 -1
      vertex -27.5 1 -1
    endloop
  endfacet
  facet normal 0 -0 1
    outer loop
      vertex -25.6571 1.2349 -1
      vertex -25.6571 3.79075 -1
      vertex -26.4286 3.79075 -1
    endloop
  endfacet
  facet normal 0 0 1
    outer loop
      vertex -27.5 1 -1
      vertex -27.2286 1.2349 -1
      vertex -27.2286 3.79075 -1
    endloop
  endfacet
  facet normal -2.77556e-016 3.20721e-016 1
    outer loop
      vertex -27.5 1 -1
      vertex -26.4286 1.2349 -1
      vertex -27.2286 1.2349 -1
    endloop
  endfacet
  facet normal 0 0 1
    outer loop
      vertex -27.5 1 -1
      vertex -27.2286 3.79075 -1
      vertex -27.5 4.1 -1
    endloop
  endfacet
  facet normal -0 7.18006e-016 1
    outer loop
      vertex -26.4286 3.79075 -1
      vertex -25.6571 3.79075 -1
      vertex -27.5 4.1 -1
    endloop
  endfacet
  facet normal 0 0 1
    outer loop
      vertex -26.4286 1.2349 -1
      vertex -25.6571 1.2349 -1
      vertex -26.4286 3.79075 -1
    endloop
  endfacet
  facet normal 0 1 0
    outer loop
      vertex -16.75 1 -2.05122e-015
      vertex -27.5 1 -1
      vertex -27.5 1 -3.36767e-015
    endloop
  endfacet
  facet normal 0 1 0
    outer loop
      vertex -16.75 1 -2.05122e-015
      vertex -16.75 1 -1
      vertex -27.5 1 -1
    endloop
  endfacet
  facet normal 1 -0 3.55271e-015
    outer loop
      vertex -27.5 1 -1
      vertex -27.5 4.1 -1
      vertex -27.5 4.1 -3.36767e-015
    endloop
  endfacet
  facet normal 1 -0 3.55271e-015
    outer loop
      vertex -27.5 1 -3.36767e-015
      vertex -27.5 1 -1
      vertex -27.5 4.1 -3.36767e-015
    endloop
  endfacet
  facet normal 0 -1 -0
    outer loop
      vertex -16.75 4.1 -2.05122e-015
      vertex -27.5 4.1 -1
      vertex -16.75 4.1 -1
    endloop
  endfacet
  facet normal 0 -1 0
    outer loop
      vertex -16.75 4.1 -2.05122e-015
      vertex -27.5 4.1 -3.36767e-015
      vertex -27.5 4.1 -1
    endloop
  endfacet
  facet normal -1 0 -3.55271e-015
    outer loop
      vertex -16.75 4.1 -2.05122e-015
      vertex -16.75 4.1 -1
      vertex -16.75 1 -1
    endloop
  endfacet
  facet normal -1 0 -3.55271e-015
    outer loop
      vertex -16.75 1 -2.05122e-015
      vertex -16.75 4.1 -2.05122e-015
      vertex -16.75 1 -1
    endloop
  endfacet
endsolid OpenSCAD_Model
