solid OpenSCAD_Model
  facet normal 0.996917 0.0784578 0
    outer loop
      vertex 22 0 1
      vertex 21.9754 0.312869 1
      vertex 21.9754 0.312869 3.3
    endloop
  endfacet
  facet normal 0.996917 0.0784578 0
    outer loop
      vertex 22 0 3.3
      vertex 22 0 1
      vertex 21.9754 0.312869 3.3
    endloop
  endfacet
  facet normal 0.97237 0.233447 0
    outer loop
      vertex 21.9754 0.312869 1
      vertex 21.9021 0.618034 1
      vertex 21.9021 0.618034 3.3
    endloop
  endfacet
  facet normal 0.97237 0.233447 0
    outer loop
      vertex 21.9754 0.312869 3.3
      vertex 21.9754 0.312869 1
      vertex 21.9021 0.618034 3.3
    endloop
  endfacet
  facet normal 0.923879 0.382684 0
    outer loop
      vertex 21.9021 0.618034 1
      vertex 21.782 0.907981 1
      vertex 21.782 0.907981 3.3
    endloop
  endfacet
  facet normal 0.923879 0.382684 0
    outer loop
      vertex 21.9021 0.618034 3.3
      vertex 21.9021 0.618034 1
      vertex 21.782 0.907981 3.3
    endloop
  endfacet
  facet normal 0.852641 0.522497 0
    outer loop
      vertex 21.782 0.907981 1
      vertex 21.618 1.17557 1
      vertex 21.618 1.17557 3.3
    endloop
  endfacet
  facet normal 0.852641 0.522497 0
    outer loop
      vertex 21.782 0.907981 3.3
      vertex 21.782 0.907981 1
      vertex 21.618 1.17557 3.3
    endloop
  endfacet
  facet normal 0.760404 0.64945 0
    outer loop
      vertex 21.618 1.17557 1
      vertex 21.4142 1.41421 1
      vertex 21.4142 1.41421 3.3
    endloop
  endfacet
  facet normal 0.760404 0.64945 0
    outer loop
      vertex 21.618 1.17557 3.3
      vertex 21.618 1.17557 1
      vertex 21.4142 1.41421 3.3
    endloop
  endfacet
  facet normal 0.64945 0.760404 0
    outer loop
      vertex 21.4142 1.41421 1
      vertex 21.1756 1.61803 1
      vertex 21.1756 1.61803 3.3
    endloop
  endfacet
  facet normal 0.64945 0.760404 0
    outer loop
      vertex 21.4142 1.41421 3.3
      vertex 21.4142 1.41421 1
      vertex 21.1756 1.61803 3.3
    endloop
  endfacet
  facet normal 0.522497 0.852641 0
    outer loop
      vertex 21.1756 1.61803 1
      vertex 20.908 1.78201 1
      vertex 20.908 1.78201 3.3
    endloop
  endfacet
  facet normal 0.522497 0.852641 0
    outer loop
      vertex 21.1756 1.61803 3.3
      vertex 21.1756 1.61803 1
      vertex 20.908 1.78201 3.3
    endloop
  endfacet
  facet normal 0.382684 0.923879 0
    outer loop
      vertex 20.908 1.78201 1
      vertex 20.618 1.90211 1
      vertex 20.618 1.90211 3.3
    endloop
  endfacet
  facet normal 0.382684 0.923879 0
    outer loop
      vertex 20.908 1.78201 3.3
      vertex 20.908 1.78201 1
      vertex 20.618 1.90211 3.3
    endloop
  endfacet
  facet normal 0.233447 0.97237 0
    outer loop
      vertex 20.618 1.90211 1
      vertex 20.3129 1.97538 1
      vertex 20.3129 1.97538 3.3
    endloop
  endfacet
  facet normal 0.233447 0.97237 0
    outer loop
      vertex 20.618 1.90211 3.3
      vertex 20.618 1.90211 1
      vertex 20.3129 1.97538 3.3
    endloop
  endfacet
  facet normal 0.0784578 0.996917 0
    outer loop
      vertex 20.3129 1.97538 1
      vertex 20 2 1
      vertex 20 2 3.3
    endloop
  endfacet
  facet normal 0.0784578 0.996917 0
    outer loop
      vertex 20.3129 1.97538 3.3
      vertex 20.3129 1.97538 1
      vertex 20 2 3.3
    endloop
  endfacet
  facet normal -0.0784578 0.996917 0
    outer loop
      vertex 20 2 1
      vertex 19.6871 1.97538 1
      vertex 19.6871 1.97538 3.3
    endloop
  endfacet
  facet normal -0.0784578 0.996917 0
    outer loop
      vertex 20 2 3.3
      vertex 20 2 1
      vertex 19.6871 1.97538 3.3
    endloop
  endfacet
  facet normal -0.233447 0.97237 0
    outer loop
      vertex 19.6871 1.97538 1
      vertex 19.382 1.90211 1
      vertex 19.382 1.90211 3.3
    endloop
  endfacet
  facet normal -0.233447 0.97237 0
    outer loop
      vertex 19.6871 1.97538 3.3
      vertex 19.6871 1.97538 1
      vertex 19.382 1.90211 3.3
    endloop
  endfacet
  facet normal -0.382684 0.923879 0
    outer loop
      vertex 19.382 1.90211 1
      vertex 19.092 1.78201 1
      vertex 19.092 1.78201 3.3
    endloop
  endfacet
  facet normal -0.382684 0.923879 0
    outer loop
      vertex 19.382 1.90211 3.3
      vertex 19.382 1.90211 1
      vertex 19.092 1.78201 3.3
    endloop
  endfacet
  facet normal -0.522497 0.852641 0
    outer loop
      vertex 19.092 1.78201 1
      vertex 18.8244 1.61803 1
      vertex 18.8244 1.61803 3.3
    endloop
  endfacet
  facet normal -0.522497 0.852641 0
    outer loop
      vertex 19.092 1.78201 3.3
      vertex 19.092 1.78201 1
      vertex 18.8244 1.61803 3.3
    endloop
  endfacet
  facet normal -0.64945 0.760404 0
    outer loop
      vertex 18.8244 1.61803 1
      vertex 18.5858 1.41421 1
      vertex 18.5858 1.41421 3.3
    endloop
  endfacet
  facet normal -0.64945 0.760404 0
    outer loop
      vertex 18.8244 1.61803 3.3
      vertex 18.8244 1.61803 1
      vertex 18.5858 1.41421 3.3
    endloop
  endfacet
  facet normal -0.760404 0.64945 0
    outer loop
      vertex 18.5858 1.41421 1
      vertex 18.382 1.17557 1
      vertex 18.382 1.17557 3.3
    endloop
  endfacet
  facet normal -0.760404 0.64945 0
    outer loop
      vertex 18.5858 1.41421 3.3
      vertex 18.5858 1.41421 1
      vertex 18.382 1.17557 3.3
    endloop
  endfacet
  facet normal -0.852641 0.522497 0
    outer loop
      vertex 18.382 1.17557 1
      vertex 18.218 0.907981 1
      vertex 18.218 0.907981 3.3
    endloop
  endfacet
  facet normal -0.852641 0.522497 0
    outer loop
      vertex 18.382 1.17557 3.3
      vertex 18.382 1.17557 1
      vertex 18.218 0.907981 3.3
    endloop
  endfacet
  facet normal -0.923879 0.382684 0
    outer loop
      vertex 18.218 0.907981 1
      vertex 18.0979 0.618034 1
      vertex 18.0979 0.618034 3.3
    endloop
  endfacet
  facet normal -0.923879 0.382684 0
    outer loop
      vertex 18.218 0.907981 3.3
      vertex 18.218 0.907981 1
      vertex 18.0979 0.618034 3.3
    endloop
  endfacet
  facet normal -0.97237 0.233447 0
    outer loop
      vertex 18.0979 0.618034 1
      vertex 18.0246 0.312869 1
      vertex 18.0246 0.312869 3.3
    endloop
  endfacet
  facet normal -0.97237 0.233447 0
    outer loop
      vertex 18.0979 0.618034 3.3
      vertex 18.0979 0.618034 1
      vertex 18.0246 0.312869 3.3
    endloop
  endfacet
  facet normal -0.996917 0.0784578 0
    outer loop
      vertex 18.0246 0.312869 1
      vertex 18 0 1
      vertex 18 0 3.3
    endloop
  endfacet
  facet normal -0.996917 0.0784578 0
    outer loop
      vertex 18.0246 0.312869 3.3
      vertex 18.0246 0.312869 1
      vertex 18 0 3.3
    endloop
  endfacet
  facet normal -0.996917 -0.0784578 -0
    outer loop
      vertex 18 0 3.3
      vertex 18 0 1
      vertex 18.0246 -0.312869 1
    endloop
  endfacet
  facet normal -0.996917 -0.0784578 -0
    outer loop
      vertex 18.0246 -0.312869 3.3
      vertex 18 0 3.3
      vertex 18.0246 -0.312869 1
    endloop
  endfacet
  facet normal -0.97237 -0.233447 -0
    outer loop
      vertex 18.0246 -0.312869 3.3
      vertex 18.0246 -0.312869 1
      vertex 18.0979 -0.618034 1
    endloop
  endfacet
  facet normal -0.97237 -0.233447 -0
    outer loop
      vertex 18.0979 -0.618034 3.3
      vertex 18.0246 -0.312869 3.3
      vertex 18.0979 -0.618034 1
    endloop
  endfacet
  facet normal -0.923879 -0.382684 -0
    outer loop
      vertex 18.0979 -0.618034 3.3
      vertex 18.0979 -0.618034 1
      vertex 18.218 -0.907981 1
    endloop
  endfacet
  facet normal -0.923879 -0.382684 -0
    outer loop
      vertex 18.218 -0.907981 3.3
      vertex 18.0979 -0.618034 3.3
      vertex 18.218 -0.907981 1
    endloop
  endfacet
  facet normal -0.852641 -0.522497 -0
    outer loop
      vertex 18.218 -0.907981 3.3
      vertex 18.218 -0.907981 1
      vertex 18.382 -1.17557 1
    endloop
  endfacet
  facet normal -0.852641 -0.522497 -0
    outer loop
      vertex 18.382 -1.17557 3.3
      vertex 18.218 -0.907981 3.3
      vertex 18.382 -1.17557 1
    endloop
  endfacet
  facet normal -0.760404 -0.64945 -0
    outer loop
      vertex 18.382 -1.17557 3.3
      vertex 18.382 -1.17557 1
      vertex 18.5858 -1.41421 1
    endloop
  endfacet
  facet normal -0.760404 -0.64945 -0
    outer loop
      vertex 18.5858 -1.41421 3.3
      vertex 18.382 -1.17557 3.3
      vertex 18.5858 -1.41421 1
    endloop
  endfacet
  facet normal -0.64945 -0.760404 -0
    outer loop
      vertex 18.5858 -1.41421 3.3
      vertex 18.5858 -1.41421 1
      vertex 18.8244 -1.61803 1
    endloop
  endfacet
  facet normal -0.64945 -0.760404 -0
    outer loop
      vertex 18.8244 -1.61803 3.3
      vertex 18.5858 -1.41421 3.3
      vertex 18.8244 -1.61803 1
    endloop
  endfacet
  facet normal -0.522497 -0.852641 -0
    outer loop
      vertex 18.8244 -1.61803 3.3
      vertex 18.8244 -1.61803 1
      vertex 19.092 -1.78201 1
    endloop
  endfacet
  facet normal -0.522497 -0.852641 -0
    outer loop
      vertex 19.092 -1.78201 3.3
      vertex 18.8244 -1.61803 3.3
      vertex 19.092 -1.78201 1
    endloop
  endfacet
  facet normal -0.382684 -0.923879 -0
    outer loop
      vertex 19.092 -1.78201 3.3
      vertex 19.092 -1.78201 1
      vertex 19.382 -1.90211 1
    endloop
  endfacet
  facet normal -0.382684 -0.923879 -0
    outer loop
      vertex 19.382 -1.90211 3.3
      vertex 19.092 -1.78201 3.3
      vertex 19.382 -1.90211 1
    endloop
  endfacet
  facet normal -0.233447 -0.97237 -0
    outer loop
      vertex 19.382 -1.90211 3.3
      vertex 19.382 -1.90211 1
      vertex 19.6871 -1.97538 1
    endloop
  endfacet
  facet normal -0.233447 -0.97237 -0
    outer loop
      vertex 19.6871 -1.97538 3.3
      vertex 19.382 -1.90211 3.3
      vertex 19.6871 -1.97538 1
    endloop
  endfacet
  facet normal -0.0784578 -0.996917 -0
    outer loop
      vertex 19.6871 -1.97538 3.3
      vertex 19.6871 -1.97538 1
      vertex 20 -2 1
    endloop
  endfacet
  facet normal -0.0784578 -0.996917 -0
    outer loop
      vertex 20 -2 3.3
      vertex 19.6871 -1.97538 3.3
      vertex 20 -2 1
    endloop
  endfacet
  facet normal 0.0784578 -0.996917 0
    outer loop
      vertex 20 -2 3.3
      vertex 20 -2 1
      vertex 20.3129 -1.97538 1
    endloop
  endfacet
  facet normal 0.0784578 -0.996917 0
    outer loop
      vertex 20.3129 -1.97538 3.3
      vertex 20 -2 3.3
      vertex 20.3129 -1.97538 1
    endloop
  endfacet
  facet normal 0.233447 -0.97237 0
    outer loop
      vertex 20.3129 -1.97538 3.3
      vertex 20.3129 -1.97538 1
      vertex 20.618 -1.90211 1
    endloop
  endfacet
  facet normal 0.233447 -0.97237 0
    outer loop
      vertex 20.618 -1.90211 3.3
      vertex 20.3129 -1.97538 3.3
      vertex 20.618 -1.90211 1
    endloop
  endfacet
  facet normal 0.382684 -0.923879 0
    outer loop
      vertex 20.618 -1.90211 3.3
      vertex 20.618 -1.90211 1
      vertex 20.908 -1.78201 1
    endloop
  endfacet
  facet normal 0.382684 -0.923879 0
    outer loop
      vertex 20.908 -1.78201 3.3
      vertex 20.618 -1.90211 3.3
      vertex 20.908 -1.78201 1
    endloop
  endfacet
  facet normal 0.522497 -0.852641 0
    outer loop
      vertex 20.908 -1.78201 3.3
      vertex 20.908 -1.78201 1
      vertex 21.1756 -1.61803 1
    endloop
  endfacet
  facet normal 0.522497 -0.852641 0
    outer loop
      vertex 21.1756 -1.61803 3.3
      vertex 20.908 -1.78201 3.3
      vertex 21.1756 -1.61803 1
    endloop
  endfacet
  facet normal 0.64945 -0.760404 0
    outer loop
      vertex 21.1756 -1.61803 3.3
      vertex 21.1756 -1.61803 1
      vertex 21.4142 -1.41421 1
    endloop
  endfacet
  facet normal 0.64945 -0.760404 0
    outer loop
      vertex 21.4142 -1.41421 3.3
      vertex 21.1756 -1.61803 3.3
      vertex 21.4142 -1.41421 1
    endloop
  endfacet
  facet normal 0.760404 -0.64945 0
    outer loop
      vertex 21.4142 -1.41421 3.3
      vertex 21.4142 -1.41421 1
      vertex 21.618 -1.17557 1
    endloop
  endfacet
  facet normal 0.760404 -0.64945 0
    outer loop
      vertex 21.618 -1.17557 3.3
      vertex 21.4142 -1.41421 3.3
      vertex 21.618 -1.17557 1
    endloop
  endfacet
  facet normal 0.852641 -0.522497 0
    outer loop
      vertex 21.618 -1.17557 3.3
      vertex 21.618 -1.17557 1
      vertex 21.782 -0.907981 1
    endloop
  endfacet
  facet normal 0.852641 -0.522497 0
    outer loop
      vertex 21.782 -0.907981 3.3
      vertex 21.618 -1.17557 3.3
      vertex 21.782 -0.907981 1
    endloop
  endfacet
  facet normal 0.923879 -0.382684 0
    outer loop
      vertex 21.782 -0.907981 3.3
      vertex 21.782 -0.907981 1
      vertex 21.9021 -0.618034 1
    endloop
  endfacet
  facet normal 0.923879 -0.382684 0
    outer loop
      vertex 21.9021 -0.618034 3.3
      vertex 21.782 -0.907981 3.3
      vertex 21.9021 -0.618034 1
    endloop
  endfacet
  facet normal 0.97237 -0.233447 0
    outer loop
      vertex 21.9021 -0.618034 3.3
      vertex 21.9021 -0.618034 1
      vertex 21.9754 -0.312869 1
    endloop
  endfacet
  facet normal 0.97237 -0.233447 0
    outer loop
      vertex 21.9754 -0.312869 3.3
      vertex 21.9021 -0.618034 3.3
      vertex 21.9754 -0.312869 1
    endloop
  endfacet
  facet normal 0.996917 -0.0784578 0
    outer loop
      vertex 21.9754 -0.312869 3.3
      vertex 21.9754 -0.312869 1
      vertex 22 0 1
    endloop
  endfacet
  facet normal 0.996917 -0.0784578 0
    outer loop
      vertex 22 0 3.3
      vertex 21.9754 -0.312869 3.3
      vertex 22 0 1
    endloop
  endfacet
  facet normal 0 -0 1
    outer loop
      vertex 18.0979 -0.618034 3.3
      vertex 19.0489 -0.309017 3.3
      vertex 18.0246 -0.312869 3.3
    endloop
  endfacet
  facet normal 0 0 1
    outer loop
      vertex 19.2929 -0.707107 3.3
      vertex 19.191 -0.587786 3.3
      vertex 18.5858 -1.41421 3.3
    endloop
  endfacet
  facet normal 0 0 1
    outer loop
      vertex 19.109 -0.453991 3.3
      vertex 18.218 -0.907981 3.3
      vertex 19.191 -0.587786 3.3
    endloop
  endfacet
  facet normal 0 0 1
    outer loop
      vertex 19.4122 -0.809017 3.3
      vertex 18.5858 -1.41421 3.3
      vertex 18.8244 -1.61803 3.3
    endloop
  endfacet
  facet normal 0 0 1
    outer loop
      vertex 19.6871 -1.97538 3.3
      vertex 19.8436 -0.987688 3.3
      vertex 19.691 -0.951056 3.3
    endloop
  endfacet
  facet normal 0 0 1
    outer loop
      vertex 20.1564 -0.987688 3.3
      vertex 20 -1 3.3
      vertex 20.3129 -1.97538 3.3
    endloop
  endfacet
  facet normal 0 0 1
    outer loop
      vertex 20.454 -0.891006 3.3
      vertex 20.309 -0.951056 3.3
      vertex 20.908 -1.78201 3.3
    endloop
  endfacet
  facet normal -0 0 1
    outer loop
      vertex 20.7071 -0.707107 3.3
      vertex 21.4142 -1.41421 3.3
      vertex 20.809 -0.587786 3.3
    endloop
  endfacet
  facet normal 0 0 1
    outer loop
      vertex 20.5878 -0.809017 3.3
      vertex 20.908 -1.78201 3.3
      vertex 21.1756 -1.61803 3.3
    endloop
  endfacet
  facet normal 0 -0 1
    outer loop
      vertex 20.454 0.891006 3.3
      vertex 20.908 1.78201 3.3
      vertex 20.309 0.951056 3.3
    endloop
  endfacet
  facet normal 0 0 1
    outer loop
      vertex 20.9511 -0.309017 3.3
      vertex 21.9021 -0.618034 3.3
      vertex 21.9754 -0.312869 3.3
    endloop
  endfacet
  facet normal 0 0 1
    outer loop
      vertex 21 0 3.3
      vertex 22 0 3.3
      vertex 21.9754 0.312869 3.3
    endloop
  endfacet
  facet normal -0 0 1
    outer loop
      vertex 20.9877 0.156434 3.3
      vertex 21 0 3.3
      vertex 21.9754 0.312869 3.3
    endloop
  endfacet
  facet normal -0 0 1
    outer loop
      vertex 20.891 0.453991 3.3
      vertex 20.9511 0.309017 3.3
      vertex 21.782 0.907981 3.3
    endloop
  endfacet
  facet normal -0 0 1
    outer loop
      vertex 20.7071 0.707107 3.3
      vertex 20.809 0.587786 3.3
      vertex 21.4142 1.41421 3.3
    endloop
  endfacet
  facet normal 0 0 1
    outer loop
      vertex 19.191 0.587786 3.3
      vertex 18.382 1.17557 3.3
      vertex 18.218 0.907981 3.3
    endloop
  endfacet
  facet normal 0 0 1
    outer loop
      vertex 20.309 0.951056 3.3
      vertex 20.618 1.90211 3.3
      vertex 20.3129 1.97538 3.3
    endloop
  endfacet
  facet normal 0 -0 1
    outer loop
      vertex 20 1 3.3
      vertex 20 2 3.3
      vertex 19.6871 1.97538 3.3
    endloop
  endfacet
  facet normal 0 -0 1
    outer loop
      vertex 19.8436 0.987688 3.3
      vertex 20 1 3.3
      vertex 19.6871 1.97538 3.3
    endloop
  endfacet
  facet normal 0 -0 1
    outer loop
      vertex 19.546 0.891006 3.3
      vertex 19.691 0.951056 3.3
      vertex 19.092 1.78201 3.3
    endloop
  endfacet
  facet normal 0 0 1
    outer loop
      vertex 19.109 0.453991 3.3
      vertex 18.218 0.907981 3.3
      vertex 19.0489 0.309017 3.3
    endloop
  endfacet
  facet normal 0 -0 1
    outer loop
      vertex 19.2929 0.707107 3.3
      vertex 19.4122 0.809017 3.3
      vertex 18.5858 1.41421 3.3
    endloop
  endfacet
  facet normal 0 0 1
    outer loop
      vertex 20.9877 -0.156434 3.3
      vertex 20.9511 -0.309017 3.3
      vertex 21.9754 -0.312869 3.3
    endloop
  endfacet
  facet normal 0 0 1
    outer loop
      vertex 19.0489 0.309017 3.3
      vertex 18.218 0.907981 3.3
      vertex 18.0979 0.618034 3.3
    endloop
  endfacet
  facet normal 0 0 1
    outer loop
      vertex 18.0246 -0.312869 3.3
      vertex 19.0123 -0.156434 3.3
      vertex 19 0 3.3
    endloop
  endfacet
  facet normal 0 0 1
    outer loop
      vertex 18.0246 0.312869 3.3
      vertex 19 0 3.3
      vertex 19.0123 0.156434 3.3
    endloop
  endfacet
  facet normal 0 0 1
    outer loop
      vertex 18.0246 0.312869 3.3
      vertex 19.0123 0.156434 3.3
      vertex 19.0489 0.309017 3.3
    endloop
  endfacet
  facet normal 0 0 1
    outer loop
      vertex 18 0 3.3
      vertex 19 0 3.3
      vertex 18.0246 0.312869 3.3
    endloop
  endfacet
  facet normal 0 -0 1
    outer loop
      vertex 18.0246 -0.312869 3.3
      vertex 19 0 3.3
      vertex 18 0 3.3
    endloop
  endfacet
  facet normal -0 0 1
    outer loop
      vertex 18.0246 0.312869 3.3
      vertex 19.0489 0.309017 3.3
      vertex 18.0979 0.618034 3.3
    endloop
  endfacet
  facet normal 0 -0 1
    outer loop
      vertex 19.382 -1.90211 3.3
      vertex 19.691 -0.951056 3.3
      vertex 19.092 -1.78201 3.3
    endloop
  endfacet
  facet normal 0 0 1
    outer loop
      vertex 19.191 0.587786 3.3
      vertex 18.218 0.907981 3.3
      vertex 19.109 0.453991 3.3
    endloop
  endfacet
  facet normal 0 0 1
    outer loop
      vertex 18.5858 1.41421 3.3
      vertex 18.382 1.17557 3.3
      vertex 19.191 0.587786 3.3
    endloop
  endfacet
  facet normal 0 -0 1
    outer loop
      vertex 19.191 0.587786 3.3
      vertex 19.2929 0.707107 3.3
      vertex 18.5858 1.41421 3.3
    endloop
  endfacet
  facet normal -0 0 1
    outer loop
      vertex 18.8244 1.61803 3.3
      vertex 19.4122 0.809017 3.3
      vertex 19.092 1.78201 3.3
    endloop
  endfacet
  facet normal 0 0 1
    outer loop
      vertex 18.8244 1.61803 3.3
      vertex 18.5858 1.41421 3.3
      vertex 19.4122 0.809017 3.3
    endloop
  endfacet
  facet normal 0 -0 1
    outer loop
      vertex 19.4122 0.809017 3.3
      vertex 19.546 0.891006 3.3
      vertex 19.092 1.78201 3.3
    endloop
  endfacet
  facet normal -0 0 1
    outer loop
      vertex 19.382 1.90211 3.3
      vertex 19.691 0.951056 3.3
      vertex 19.6871 1.97538 3.3
    endloop
  endfacet
  facet normal 0 0 1
    outer loop
      vertex 19.382 1.90211 3.3
      vertex 19.092 1.78201 3.3
      vertex 19.691 0.951056 3.3
    endloop
  endfacet
  facet normal 0 -0 1
    outer loop
      vertex 19.691 0.951056 3.3
      vertex 19.8436 0.987688 3.3
      vertex 19.6871 1.97538 3.3
    endloop
  endfacet
  facet normal 0 0 1
    outer loop
      vertex 20.3129 1.97538 3.3
      vertex 20 2 3.3
      vertex 20 1 3.3
    endloop
  endfacet
  facet normal 0 0 1
    outer loop
      vertex 20.3129 1.97538 3.3
      vertex 20.1564 0.987688 3.3
      vertex 20.309 0.951056 3.3
    endloop
  endfacet
  facet normal 0 0 1
    outer loop
      vertex 20.3129 1.97538 3.3
      vertex 20 1 3.3
      vertex 20.1564 0.987688 3.3
    endloop
  endfacet
  facet normal 0 0 1
    outer loop
      vertex 20.908 1.78201 3.3
      vertex 20.618 1.90211 3.3
      vertex 20.309 0.951056 3.3
    endloop
  endfacet
  facet normal 0 -0 1
    outer loop
      vertex 20.5878 0.809017 3.3
      vertex 20.908 1.78201 3.3
      vertex 20.454 0.891006 3.3
    endloop
  endfacet
  facet normal 0 0 1
    outer loop
      vertex 21.1756 1.61803 3.3
      vertex 20.5878 0.809017 3.3
      vertex 21.4142 1.41421 3.3
    endloop
  endfacet
  facet normal 0 0 1
    outer loop
      vertex 21.1756 1.61803 3.3
      vertex 20.908 1.78201 3.3
      vertex 20.5878 0.809017 3.3
    endloop
  endfacet
  facet normal -0 0 1
    outer loop
      vertex 20.5878 0.809017 3.3
      vertex 20.7071 0.707107 3.3
      vertex 21.4142 1.41421 3.3
    endloop
  endfacet
  facet normal 0 0 1
    outer loop
      vertex 21.618 1.17557 3.3
      vertex 20.809 0.587786 3.3
      vertex 21.782 0.907981 3.3
    endloop
  endfacet
  facet normal 0 0 1
    outer loop
      vertex 21.618 1.17557 3.3
      vertex 21.4142 1.41421 3.3
      vertex 20.809 0.587786 3.3
    endloop
  endfacet
  facet normal -0 0 1
    outer loop
      vertex 20.809 0.587786 3.3
      vertex 20.891 0.453991 3.3
      vertex 21.782 0.907981 3.3
    endloop
  endfacet
  facet normal 0 0 1
    outer loop
      vertex 21.9021 0.618034 3.3
      vertex 20.9511 0.309017 3.3
      vertex 21.9754 0.312869 3.3
    endloop
  endfacet
  facet normal 0 0 1
    outer loop
      vertex 21.9021 0.618034 3.3
      vertex 21.782 0.907981 3.3
      vertex 20.9511 0.309017 3.3
    endloop
  endfacet
  facet normal -0 0 1
    outer loop
      vertex 20.9511 0.309017 3.3
      vertex 20.9877 0.156434 3.3
      vertex 21.9754 0.312869 3.3
    endloop
  endfacet
  facet normal 0 -0 1
    outer loop
      vertex 21.9754 -0.312869 3.3
      vertex 22 0 3.3
      vertex 21 0 3.3
    endloop
  endfacet
  facet normal 0 0 1
    outer loop
      vertex 21 0 3.3
      vertex 20.9877 -0.156434 3.3
      vertex 21.9754 -0.312869 3.3
    endloop
  endfacet
  facet normal 0 -0 1
    outer loop
      vertex 21.782 -0.907981 3.3
      vertex 21.9021 -0.618034 3.3
      vertex 20.9511 -0.309017 3.3
    endloop
  endfacet
  facet normal 0 0 1
    outer loop
      vertex 21.782 -0.907981 3.3
      vertex 20.891 -0.453991 3.3
      vertex 20.809 -0.587786 3.3
    endloop
  endfacet
  facet normal 0 0 1
    outer loop
      vertex 21.782 -0.907981 3.3
      vertex 20.9511 -0.309017 3.3
      vertex 20.891 -0.453991 3.3
    endloop
  endfacet
  facet normal 0 0 1
    outer loop
      vertex 21.618 -1.17557 3.3
      vertex 20.809 -0.587786 3.3
      vertex 21.4142 -1.41421 3.3
    endloop
  endfacet
  facet normal 0 -0 1
    outer loop
      vertex 21.618 -1.17557 3.3
      vertex 21.782 -0.907981 3.3
      vertex 20.809 -0.587786 3.3
    endloop
  endfacet
  facet normal -0 0 1
    outer loop
      vertex 20.5878 -0.809017 3.3
      vertex 21.4142 -1.41421 3.3
      vertex 20.7071 -0.707107 3.3
    endloop
  endfacet
  facet normal 0 0 1
    outer loop
      vertex 21.4142 -1.41421 3.3
      vertex 20.5878 -0.809017 3.3
      vertex 21.1756 -1.61803 3.3
    endloop
  endfacet
  facet normal 0 0 1
    outer loop
      vertex 20.5878 -0.809017 3.3
      vertex 20.454 -0.891006 3.3
      vertex 20.908 -1.78201 3.3
    endloop
  endfacet
  facet normal 0 0 1
    outer loop
      vertex 20.618 -1.90211 3.3
      vertex 20.309 -0.951056 3.3
      vertex 20.3129 -1.97538 3.3
    endloop
  endfacet
  facet normal 0 -0 1
    outer loop
      vertex 20.618 -1.90211 3.3
      vertex 20.908 -1.78201 3.3
      vertex 20.309 -0.951056 3.3
    endloop
  endfacet
  facet normal 0 0 1
    outer loop
      vertex 20.3129 -1.97538 3.3
      vertex 20.309 -0.951056 3.3
      vertex 20.1564 -0.987688 3.3
    endloop
  endfacet
  facet normal 0 0 1
    outer loop
      vertex 20 -2 3.3
      vertex 20.3129 -1.97538 3.3
      vertex 20 -1 3.3
    endloop
  endfacet
  facet normal 0 -0 1
    outer loop
      vertex 20 -2 3.3
      vertex 20 -1 3.3
      vertex 19.6871 -1.97538 3.3
    endloop
  endfacet
  facet normal 0 0 1
    outer loop
      vertex 20 -1 3.3
      vertex 19.8436 -0.987688 3.3
      vertex 19.6871 -1.97538 3.3
    endloop
  endfacet
  facet normal 0 -0 1
    outer loop
      vertex 19.6871 -1.97538 3.3
      vertex 19.691 -0.951056 3.3
      vertex 19.382 -1.90211 3.3
    endloop
  endfacet
  facet normal 0 0 1
    outer loop
      vertex 19.691 -0.951056 3.3
      vertex 19.546 -0.891006 3.3
      vertex 19.092 -1.78201 3.3
    endloop
  endfacet
  facet normal 0 0 1
    outer loop
      vertex 19.546 -0.891006 3.3
      vertex 19.4122 -0.809017 3.3
      vertex 19.092 -1.78201 3.3
    endloop
  endfacet
  facet normal 0 0 1
    outer loop
      vertex 19.4122 -0.809017 3.3
      vertex 18.8244 -1.61803 3.3
      vertex 19.092 -1.78201 3.3
    endloop
  endfacet
  facet normal 0 0 1
    outer loop
      vertex 19.2929 -0.707107 3.3
      vertex 18.5858 -1.41421 3.3
      vertex 19.4122 -0.809017 3.3
    endloop
  endfacet
  facet normal 0 0 1
    outer loop
      vertex 19.191 -0.587786 3.3
      vertex 18.382 -1.17557 3.3
      vertex 18.5858 -1.41421 3.3
    endloop
  endfacet
  facet normal -0 0 1
    outer loop
      vertex 18.218 -0.907981 3.3
      vertex 18.382 -1.17557 3.3
      vertex 19.191 -0.587786 3.3
    endloop
  endfacet
  facet normal 0 0 1
    outer loop
      vertex 19.0489 -0.309017 3.3
      vertex 18.218 -0.907981 3.3
      vertex 19.109 -0.453991 3.3
    endloop
  endfacet
  facet normal 0 0 1
    outer loop
      vertex 18.0246 -0.312869 3.3
      vertex 19.0489 -0.309017 3.3
      vertex 19.0123 -0.156434 3.3
    endloop
  endfacet
  facet normal -0 0 1
    outer loop
      vertex 18.0979 -0.618034 3.3
      vertex 18.218 -0.907981 3.3
      vertex 19.0489 -0.309017 3.3
    endloop
  endfacet
  facet normal -0.996917 -0.078461 0
    outer loop
      vertex 21 0 2
      vertex 21 0 3.3
      vertex 20.9877 0.156434 3.3
    endloop
  endfacet
  facet normal -0.996917 -0.078461 0
    outer loop
      vertex 20.9877 0.156434 2
      vertex 21 0 2
      vertex 20.9877 0.156434 3.3
    endloop
  endfacet
  facet normal -0.97237 -0.233443 0
    outer loop
      vertex 20.9877 0.156434 2
      vertex 20.9877 0.156434 3.3
      vertex 20.9511 0.309017 3.3
    endloop
  endfacet
  facet normal -0.97237 -0.233443 0
    outer loop
      vertex 20.9511 0.309017 2
      vertex 20.9877 0.156434 2
      vertex 20.9511 0.309017 3.3
    endloop
  endfacet
  facet normal -0.92388 -0.382683 0
    outer loop
      vertex 20.9511 0.309017 2
      vertex 20.9511 0.309017 3.3
      vertex 20.891 0.453991 3.3
    endloop
  endfacet
  facet normal -0.92388 -0.382683 0
    outer loop
      vertex 20.891 0.453991 2
      vertex 20.9511 0.309017 2
      vertex 20.891 0.453991 3.3
    endloop
  endfacet
  facet normal -0.852641 -0.522497 0
    outer loop
      vertex 20.891 0.453991 2
      vertex 20.891 0.453991 3.3
      vertex 20.809 0.587786 3.3
    endloop
  endfacet
  facet normal -0.852641 -0.522497 0
    outer loop
      vertex 20.809 0.587786 2
      vertex 20.891 0.453991 2
      vertex 20.809 0.587786 3.3
    endloop
  endfacet
  facet normal -0.760403 -0.649452 0
    outer loop
      vertex 20.809 0.587786 2
      vertex 20.809 0.587786 3.3
      vertex 20.7071 0.707107 3.3
    endloop
  endfacet
  facet normal -0.760403 -0.649452 0
    outer loop
      vertex 20.7071 0.707107 2
      vertex 20.809 0.587786 2
      vertex 20.7071 0.707107 3.3
    endloop
  endfacet
  facet normal -0.649452 -0.760403 0
    outer loop
      vertex 20.7071 0.707107 2
      vertex 20.7071 0.707107 3.3
      vertex 20.5878 0.809017 3.3
    endloop
  endfacet
  facet normal -0.649452 -0.760403 0
    outer loop
      vertex 20.5878 0.809017 2
      vertex 20.7071 0.707107 2
      vertex 20.5878 0.809017 3.3
    endloop
  endfacet
  facet normal -0.522497 -0.852641 0
    outer loop
      vertex 20.5878 0.809017 2
      vertex 20.5878 0.809017 3.3
      vertex 20.454 0.891006 3.3
    endloop
  endfacet
  facet normal -0.522497 -0.852641 0
    outer loop
      vertex 20.454 0.891006 2
      vertex 20.5878 0.809017 2
      vertex 20.454 0.891006 3.3
    endloop
  endfacet
  facet normal -0.382683 -0.92388 0
    outer loop
      vertex 20.454 0.891006 2
      vertex 20.454 0.891006 3.3
      vertex 20.309 0.951056 3.3
    endloop
  endfacet
  facet normal -0.382683 -0.92388 0
    outer loop
      vertex 20.309 0.951056 2
      vertex 20.454 0.891006 2
      vertex 20.309 0.951056 3.3
    endloop
  endfacet
  facet normal -0.233443 -0.97237 0
    outer loop
      vertex 20.309 0.951056 2
      vertex 20.309 0.951056 3.3
      vertex 20.1564 0.987688 3.3
    endloop
  endfacet
  facet normal -0.233443 -0.97237 0
    outer loop
      vertex 20.1564 0.987688 2
      vertex 20.309 0.951056 2
      vertex 20.1564 0.987688 3.3
    endloop
  endfacet
  facet normal -0.078461 -0.996917 0
    outer loop
      vertex 20.1564 0.987688 2
      vertex 20.1564 0.987688 3.3
      vertex 20 1 3.3
    endloop
  endfacet
  facet normal -0.078461 -0.996917 0
    outer loop
      vertex 20 1 2
      vertex 20.1564 0.987688 2
      vertex 20 1 3.3
    endloop
  endfacet
  facet normal 0.078461 -0.996917 0
    outer loop
      vertex 20 1 2
      vertex 20 1 3.3
      vertex 19.8436 0.987688 3.3
    endloop
  endfacet
  facet normal 0.078461 -0.996917 0
    outer loop
      vertex 19.8436 0.987688 2
      vertex 20 1 2
      vertex 19.8436 0.987688 3.3
    endloop
  endfacet
  facet normal 0.233443 -0.97237 0
    outer loop
      vertex 19.8436 0.987688 2
      vertex 19.8436 0.987688 3.3
      vertex 19.691 0.951056 3.3
    endloop
  endfacet
  facet normal 0.233443 -0.97237 0
    outer loop
      vertex 19.691 0.951056 2
      vertex 19.8436 0.987688 2
      vertex 19.691 0.951056 3.3
    endloop
  endfacet
  facet normal 0.382683 -0.92388 0
    outer loop
      vertex 19.691 0.951056 2
      vertex 19.691 0.951056 3.3
      vertex 19.546 0.891006 3.3
    endloop
  endfacet
  facet normal 0.382683 -0.92388 0
    outer loop
      vertex 19.546 0.891006 2
      vertex 19.691 0.951056 2
      vertex 19.546 0.891006 3.3
    endloop
  endfacet
  facet normal 0.522497 -0.852641 0
    outer loop
      vertex 19.546 0.891006 2
      vertex 19.546 0.891006 3.3
      vertex 19.4122 0.809017 3.3
    endloop
  endfacet
  facet normal 0.522497 -0.852641 0
    outer loop
      vertex 19.4122 0.809017 2
      vertex 19.546 0.891006 2
      vertex 19.4122 0.809017 3.3
    endloop
  endfacet
  facet normal 0.649452 -0.760403 0
    outer loop
      vertex 19.4122 0.809017 2
      vertex 19.4122 0.809017 3.3
      vertex 19.2929 0.707107 3.3
    endloop
  endfacet
  facet normal 0.649452 -0.760403 0
    outer loop
      vertex 19.2929 0.707107 2
      vertex 19.4122 0.809017 2
      vertex 19.2929 0.707107 3.3
    endloop
  endfacet
  facet normal 0.760403 -0.649452 0
    outer loop
      vertex 19.2929 0.707107 2
      vertex 19.2929 0.707107 3.3
      vertex 19.191 0.587786 3.3
    endloop
  endfacet
  facet normal 0.760403 -0.649452 0
    outer loop
      vertex 19.191 0.587786 2
      vertex 19.2929 0.707107 2
      vertex 19.191 0.587786 3.3
    endloop
  endfacet
  facet normal 0.852641 -0.522497 0
    outer loop
      vertex 19.191 0.587786 2
      vertex 19.191 0.587786 3.3
      vertex 19.109 0.453991 3.3
    endloop
  endfacet
  facet normal 0.852641 -0.522497 0
    outer loop
      vertex 19.109 0.453991 2
      vertex 19.191 0.587786 2
      vertex 19.109 0.453991 3.3
    endloop
  endfacet
  facet normal 0.92388 -0.382683 0
    outer loop
      vertex 19.109 0.453991 2
      vertex 19.109 0.453991 3.3
      vertex 19.0489 0.309017 3.3
    endloop
  endfacet
  facet normal 0.92388 -0.382683 0
    outer loop
      vertex 19.0489 0.309017 2
      vertex 19.109 0.453991 2
      vertex 19.0489 0.309017 3.3
    endloop
  endfacet
  facet normal 0.97237 -0.233443 0
    outer loop
      vertex 19.0489 0.309017 2
      vertex 19.0489 0.309017 3.3
      vertex 19.0123 0.156434 3.3
    endloop
  endfacet
  facet normal 0.97237 -0.233443 0
    outer loop
      vertex 19.0123 0.156434 2
      vertex 19.0489 0.309017 2
      vertex 19.0123 0.156434 3.3
    endloop
  endfacet
  facet normal 0.996917 -0.078461 0
    outer loop
      vertex 19.0123 0.156434 2
      vertex 19.0123 0.156434 3.3
      vertex 19 0 3.3
    endloop
  endfacet
  facet normal 0.996917 -0.078461 0
    outer loop
      vertex 19 0 2
      vertex 19.0123 0.156434 2
      vertex 19 0 3.3
    endloop
  endfacet
  facet normal 0.996917 0.078461 0
    outer loop
      vertex 19 0 3.3
      vertex 19.0123 -0.156434 3.3
      vertex 19.0123 -0.156434 2
    endloop
  endfacet
  facet normal 0.996917 0.078461 -0
    outer loop
      vertex 19 0 2
      vertex 19 0 3.3
      vertex 19.0123 -0.156434 2
    endloop
  endfacet
  facet normal 0.97237 0.233443 0
    outer loop
      vertex 19.0123 -0.156434 3.3
      vertex 19.0489 -0.309017 3.3
      vertex 19.0489 -0.309017 2
    endloop
  endfacet
  facet normal 0.97237 0.233443 -0
    outer loop
      vertex 19.0123 -0.156434 2
      vertex 19.0123 -0.156434 3.3
      vertex 19.0489 -0.309017 2
    endloop
  endfacet
  facet normal 0.92388 0.382683 0
    outer loop
      vertex 19.0489 -0.309017 3.3
      vertex 19.109 -0.453991 3.3
      vertex 19.109 -0.453991 2
    endloop
  endfacet
  facet normal 0.92388 0.382683 -0
    outer loop
      vertex 19.0489 -0.309017 2
      vertex 19.0489 -0.309017 3.3
      vertex 19.109 -0.453991 2
    endloop
  endfacet
  facet normal 0.852641 0.522497 0
    outer loop
      vertex 19.109 -0.453991 3.3
      vertex 19.191 -0.587786 3.3
      vertex 19.191 -0.587786 2
    endloop
  endfacet
  facet normal 0.852641 0.522497 -0
    outer loop
      vertex 19.109 -0.453991 2
      vertex 19.109 -0.453991 3.3
      vertex 19.191 -0.587786 2
    endloop
  endfacet
  facet normal 0.760403 0.649452 0
    outer loop
      vertex 19.191 -0.587786 3.3
      vertex 19.2929 -0.707107 3.3
      vertex 19.2929 -0.707107 2
    endloop
  endfacet
  facet normal 0.760403 0.649452 -0
    outer loop
      vertex 19.191 -0.587786 2
      vertex 19.191 -0.587786 3.3
      vertex 19.2929 -0.707107 2
    endloop
  endfacet
  facet normal 0.649452 0.760403 0
    outer loop
      vertex 19.2929 -0.707107 3.3
      vertex 19.4122 -0.809017 3.3
      vertex 19.4122 -0.809017 2
    endloop
  endfacet
  facet normal 0.649452 0.760403 -0
    outer loop
      vertex 19.2929 -0.707107 2
      vertex 19.2929 -0.707107 3.3
      vertex 19.4122 -0.809017 2
    endloop
  endfacet
  facet normal 0.522497 0.852641 0
    outer loop
      vertex 19.4122 -0.809017 3.3
      vertex 19.546 -0.891006 3.3
      vertex 19.546 -0.891006 2
    endloop
  endfacet
  facet normal 0.522497 0.852641 -0
    outer loop
      vertex 19.4122 -0.809017 2
      vertex 19.4122 -0.809017 3.3
      vertex 19.546 -0.891006 2
    endloop
  endfacet
  facet normal 0.382683 0.92388 0
    outer loop
      vertex 19.546 -0.891006 3.3
      vertex 19.691 -0.951056 3.3
      vertex 19.691 -0.951056 2
    endloop
  endfacet
  facet normal 0.382683 0.92388 -0
    outer loop
      vertex 19.546 -0.891006 2
      vertex 19.546 -0.891006 3.3
      vertex 19.691 -0.951056 2
    endloop
  endfacet
  facet normal 0.233443 0.97237 0
    outer loop
      vertex 19.691 -0.951056 3.3
      vertex 19.8436 -0.987688 3.3
      vertex 19.8436 -0.987688 2
    endloop
  endfacet
  facet normal 0.233443 0.97237 -0
    outer loop
      vertex 19.691 -0.951056 2
      vertex 19.691 -0.951056 3.3
      vertex 19.8436 -0.987688 2
    endloop
  endfacet
  facet normal 0.078461 0.996917 0
    outer loop
      vertex 19.8436 -0.987688 3.3
      vertex 20 -1 3.3
      vertex 20 -1 2
    endloop
  endfacet
  facet normal 0.078461 0.996917 -0
    outer loop
      vertex 19.8436 -0.987688 2
      vertex 19.8436 -0.987688 3.3
      vertex 20 -1 2
    endloop
  endfacet
  facet normal -0.078461 0.996917 0
    outer loop
      vertex 20 -1 3.3
      vertex 20.1564 -0.987688 3.3
      vertex 20.1564 -0.987688 2
    endloop
  endfacet
  facet normal -0.078461 0.996917 0
    outer loop
      vertex 20 -1 2
      vertex 20 -1 3.3
      vertex 20.1564 -0.987688 2
    endloop
  endfacet
  facet normal -0.233443 0.97237 0
    outer loop
      vertex 20.1564 -0.987688 3.3
      vertex 20.309 -0.951056 3.3
      vertex 20.309 -0.951056 2
    endloop
  endfacet
  facet normal -0.233443 0.97237 0
    outer loop
      vertex 20.1564 -0.987688 2
      vertex 20.1564 -0.987688 3.3
      vertex 20.309 -0.951056 2
    endloop
  endfacet
  facet normal -0.382683 0.92388 0
    outer loop
      vertex 20.309 -0.951056 3.3
      vertex 20.454 -0.891006 3.3
      vertex 20.454 -0.891006 2
    endloop
  endfacet
  facet normal -0.382683 0.92388 0
    outer loop
      vertex 20.309 -0.951056 2
      vertex 20.309 -0.951056 3.3
      vertex 20.454 -0.891006 2
    endloop
  endfacet
  facet normal -0.522497 0.852641 0
    outer loop
      vertex 20.454 -0.891006 3.3
      vertex 20.5878 -0.809017 3.3
      vertex 20.5878 -0.809017 2
    endloop
  endfacet
  facet normal -0.522497 0.852641 0
    outer loop
      vertex 20.454 -0.891006 2
      vertex 20.454 -0.891006 3.3
      vertex 20.5878 -0.809017 2
    endloop
  endfacet
  facet normal -0.649452 0.760403 0
    outer loop
      vertex 20.5878 -0.809017 3.3
      vertex 20.7071 -0.707107 3.3
      vertex 20.7071 -0.707107 2
    endloop
  endfacet
  facet normal -0.649452 0.760403 0
    outer loop
      vertex 20.5878 -0.809017 2
      vertex 20.5878 -0.809017 3.3
      vertex 20.7071 -0.707107 2
    endloop
  endfacet
  facet normal -0.760403 0.649452 0
    outer loop
      vertex 20.7071 -0.707107 3.3
      vertex 20.809 -0.587786 3.3
      vertex 20.809 -0.587786 2
    endloop
  endfacet
  facet normal -0.760403 0.649452 0
    outer loop
      vertex 20.7071 -0.707107 2
      vertex 20.7071 -0.707107 3.3
      vertex 20.809 -0.587786 2
    endloop
  endfacet
  facet normal -0.852641 0.522497 0
    outer loop
      vertex 20.809 -0.587786 3.3
      vertex 20.891 -0.453991 3.3
      vertex 20.891 -0.453991 2
    endloop
  endfacet
  facet normal -0.852641 0.522497 0
    outer loop
      vertex 20.809 -0.587786 2
      vertex 20.809 -0.587786 3.3
      vertex 20.891 -0.453991 2
    endloop
  endfacet
  facet normal -0.92388 0.382683 0
    outer loop
      vertex 20.891 -0.453991 3.3
      vertex 20.9511 -0.309017 3.3
      vertex 20.9511 -0.309017 2
    endloop
  endfacet
  facet normal -0.92388 0.382683 0
    outer loop
      vertex 20.891 -0.453991 2
      vertex 20.891 -0.453991 3.3
      vertex 20.9511 -0.309017 2
    endloop
  endfacet
  facet normal -0.97237 0.233443 0
    outer loop
      vertex 20.9511 -0.309017 3.3
      vertex 20.9877 -0.156434 3.3
      vertex 20.9877 -0.156434 2
    endloop
  endfacet
  facet normal -0.97237 0.233443 0
    outer loop
      vertex 20.9511 -0.309017 2
      vertex 20.9511 -0.309017 3.3
      vertex 20.9877 -0.156434 2
    endloop
  endfacet
  facet normal -0.996917 0.078461 0
    outer loop
      vertex 20.9877 -0.156434 3.3
      vertex 21 0 3.3
      vertex 21 0 2
    endloop
  endfacet
  facet normal -0.996917 0.078461 0
    outer loop
      vertex 20.9877 -0.156434 2
      vertex 20.9877 -0.156434 3.3
      vertex 21 0 2
    endloop
  endfacet
  facet normal 0 0 1
    outer loop
      vertex 19.0123 -0.156434 2
      vertex 19.0489 -0.309017 2
      vertex 19.109 -0.453991 2
    endloop
  endfacet
  facet normal 0 0 1
    outer loop
      vertex 19.2929 -0.707107 2
      vertex 19.0123 -0.156434 2
      vertex 19.109 -0.453991 2
    endloop
  endfacet
  facet normal -0 -0 1
    outer loop
      vertex 19.191 -0.587786 2
      vertex 19.2929 -0.707107 2
      vertex 19.109 -0.453991 2
    endloop
  endfacet
  facet normal -0 -0 1
    outer loop
      vertex 19.4122 -0.809017 2
      vertex 19.546 -0.891006 2
      vertex 19.2929 -0.707107 2
    endloop
  endfacet
  facet normal 0 0 1
    outer loop
      vertex 19.546 -0.891006 2
      vertex 19.691 -0.951056 2
      vertex 19.8436 -0.987688 2
    endloop
  endfacet
  facet normal -0 -0 1
    outer loop
      vertex 19.546 -0.891006 2
      vertex 19.8436 -0.987688 2
      vertex 19.2929 -0.707107 2
    endloop
  endfacet
  facet normal 0 0 1
    outer loop
      vertex 19.8436 -0.987688 2
      vertex 19.0123 -0.156434 2
      vertex 19.2929 -0.707107 2
    endloop
  endfacet
  facet normal 0 -0 1
    outer loop
      vertex 20 -1 2
      vertex 20.1564 -0.987688 2
      vertex 19.8436 -0.987688 2
    endloop
  endfacet
  facet normal 0 0 1
    outer loop
      vertex 20.1564 -0.987688 2
      vertex 19.8436 0.987688 2
      vertex 19.8436 -0.987688 2
    endloop
  endfacet
  facet normal 0 -0 1
    outer loop
      vertex 20.309 -0.951056 2
      vertex 20.454 -0.891006 2
      vertex 20.1564 -0.987688 2
    endloop
  endfacet
  facet normal 0 0 1
    outer loop
      vertex 20.454 -0.891006 2
      vertex 20.5878 -0.809017 2
      vertex 20.7071 -0.707107 2
    endloop
  endfacet
  facet normal 0 -0 1
    outer loop
      vertex 20.454 -0.891006 2
      vertex 20.7071 -0.707107 2
      vertex 20.1564 -0.987688 2
    endloop
  endfacet
  facet normal 0 -0 1
    outer loop
      vertex 20.7071 -0.707107 2
      vertex 20.9877 -0.156434 2
      vertex 20.1564 -0.987688 2
    endloop
  endfacet
  facet normal 0 -0 1
    outer loop
      vertex 20.809 -0.587786 2
      vertex 20.891 -0.453991 2
      vertex 20.7071 -0.707107 2
    endloop
  endfacet
  facet normal 0 0 1
    outer loop
      vertex 20.891 -0.453991 2
      vertex 20.9511 -0.309017 2
      vertex 20.9877 -0.156434 2
    endloop
  endfacet
  facet normal 0 -0 1
    outer loop
      vertex 20.891 -0.453991 2
      vertex 20.9877 -0.156434 2
      vertex 20.7071 -0.707107 2
    endloop
  endfacet
  facet normal 0 0 1
    outer loop
      vertex 20.9877 -0.156434 2
      vertex 20.1564 0.987688 2
      vertex 20.1564 -0.987688 2
    endloop
  endfacet
  facet normal 0 0 1
    outer loop
      vertex 21 0 2
      vertex 20.9877 0.156434 2
      vertex 20.9877 -0.156434 2
    endloop
  endfacet
  facet normal 0 0 1
    outer loop
      vertex 20.9877 0.156434 2
      vertex 20.1564 0.987688 2
      vertex 20.9877 -0.156434 2
    endloop
  endfacet
  facet normal 0 0 1
    outer loop
      vertex 20.9511 0.309017 2
      vertex 20.891 0.453991 2
      vertex 20.9877 0.156434 2
    endloop
  endfacet
  facet normal 0 0 1
    outer loop
      vertex 20.891 0.453991 2
      vertex 20.7071 0.707107 2
      vertex 20.9877 0.156434 2
    endloop
  endfacet
  facet normal 0 0 1
    outer loop
      vertex 20.809 0.587786 2
      vertex 20.7071 0.707107 2
      vertex 20.891 0.453991 2
    endloop
  endfacet
  facet normal 0 0 1
    outer loop
      vertex 20.7071 0.707107 2
      vertex 20.1564 0.987688 2
      vertex 20.9877 0.156434 2
    endloop
  endfacet
  facet normal 0 0 1
    outer loop
      vertex 20.5878 0.809017 2
      vertex 20.454 0.891006 2
      vertex 20.7071 0.707107 2
    endloop
  endfacet
  facet normal 0 0 1
    outer loop
      vertex 20.454 0.891006 2
      vertex 20.309 0.951056 2
      vertex 20.1564 0.987688 2
    endloop
  endfacet
  facet normal 0 0 1
    outer loop
      vertex 20.454 0.891006 2
      vertex 20.1564 0.987688 2
      vertex 20.7071 0.707107 2
    endloop
  endfacet
  facet normal 0 0 1
    outer loop
      vertex 20.1564 0.987688 2
      vertex 19.8436 0.987688 2
      vertex 20.1564 -0.987688 2
    endloop
  endfacet
  facet normal 0 0 1
    outer loop
      vertex 20 1 2
      vertex 19.8436 0.987688 2
      vertex 20.1564 0.987688 2
    endloop
  endfacet
  facet normal 0 0 1
    outer loop
      vertex 19.8436 0.987688 2
      vertex 19.0123 0.156434 2
      vertex 19.8436 -0.987688 2
    endloop
  endfacet
  facet normal -0 0 1
    outer loop
      vertex 19.691 0.951056 2
      vertex 19.546 0.891006 2
      vertex 19.8436 0.987688 2
    endloop
  endfacet
  facet normal -0 0 1
    outer loop
      vertex 19.546 0.891006 2
      vertex 19.2929 0.707107 2
      vertex 19.8436 0.987688 2
    endloop
  endfacet
  facet normal -0 0 1
    outer loop
      vertex 19.4122 0.809017 2
      vertex 19.2929 0.707107 2
      vertex 19.546 0.891006 2
    endloop
  endfacet
  facet normal -0 0 1
    outer loop
      vertex 19.2929 0.707107 2
      vertex 19.0123 0.156434 2
      vertex 19.8436 0.987688 2
    endloop
  endfacet
  facet normal -0 0 1
    outer loop
      vertex 19.191 0.587786 2
      vertex 19.109 0.453991 2
      vertex 19.2929 0.707107 2
    endloop
  endfacet
  facet normal 0 0 1
    outer loop
      vertex 19.109 0.453991 2
      vertex 19.0489 0.309017 2
      vertex 19.0123 0.156434 2
    endloop
  endfacet
  facet normal -0 0 1
    outer loop
      vertex 19.109 0.453991 2
      vertex 19.0123 0.156434 2
      vertex 19.2929 0.707107 2
    endloop
  endfacet
  facet normal 0 0 1
    outer loop
      vertex 19.0123 0.156434 2
      vertex 19.0123 -0.156434 2
      vertex 19.8436 -0.987688 2
    endloop
  endfacet
  facet normal -0 0 1
    outer loop
      vertex 19 0 2
      vertex 19.0123 -0.156434 2
      vertex 19.0123 0.156434 2
    endloop
  endfacet
  facet normal -1 0 0
    outer loop
      vertex -3.88377 0.957263 -1
      vertex -3.88377 -0.957263 -1
      vertex -3.88377 -0.957263 1
    endloop
  endfacet
  facet normal -1 -0 -0
    outer loop
      vertex -3.88377 0.957263 1
      vertex -3.88377 0.957263 -1
      vertex -3.88377 -0.957263 1
    endloop
  endfacet
  facet normal 0 0 -1
    outer loop
      vertex -2.99404 2.65249 -1
      vertex -0.675953 0.930369 -1
      vertex -0.930369 0.675953 -1
    endloop
  endfacet
  facet normal 0 0 -1
    outer loop
      vertex -2.99404 -2.65249 -1
      vertex -0.930369 -0.675953 -1
      vertex -0.675953 -0.930369 -1
    endloop
  endfacet
  facet normal 0 0 -1
    outer loop
      vertex 0 1.15 -1
      vertex -1.41842 3.74006 -1
      vertex 0.482146 3.97084 -1
    endloop
  endfacet
  facet normal 0 0 -1
    outer loop
      vertex -2.99404 -2.65249 -1
      vertex -0.675953 -0.930369 -1
      vertex -1.41842 -3.74006 -1
    endloop
  endfacet
  facet normal 0 0 -1
    outer loop
      vertex 43.5418 -1.85889 -1
      vertex 41.0937 -0.35537 -1
      vertex 44 0 -1
    endloop
  endfacet
  facet normal 0 0 -1
    outer loop
      vertex 42.2723 -3.29194 -1
      vertex 40.9304 -0.675953 -1
      vertex 43.5418 -1.85889 -1
    endloop
  endfacet
  facet normal 0 0 -1
    outer loop
      vertex 40.4821 -3.97084 -1
      vertex 40 -1.15 -1
      vertex 40.3554 -1.09371 -1
    endloop
  endfacet
  facet normal 0 0 -1
    outer loop
      vertex 42.2723 -3.29194 -1
      vertex 40.676 -0.930369 -1
      vertex 40.9304 -0.675953 -1
    endloop
  endfacet
  facet normal 0 -0 -1
    outer loop
      vertex 0.675953 -0.930369 -1
      vertex 0.930369 -0.675953 -1
      vertex 0.482146 -3.97084 -1
    endloop
  endfacet
  facet normal 0 0 -1
    outer loop
      vertex 0.675953 -0.930369 -1
      vertex 0.482146 -3.97084 -1
      vertex 0.35537 -1.09371 -1
    endloop
  endfacet
  facet normal 0 0 -1
    outer loop
      vertex -3.88377 0.957263 -1
      vertex -1.15 0 -1
      vertex -3.88377 -0.957263 -1
    endloop
  endfacet
  facet normal 0 -0 -1
    outer loop
      vertex -1.15 0 -1
      vertex -1.09371 -0.35537 -1
      vertex -3.88377 -0.957263 -1
    endloop
  endfacet
  facet normal -0 0 -1
    outer loop
      vertex -0.930369 -0.675953 -1
      vertex -3.88377 -0.957263 -1
      vertex -1.09371 -0.35537 -1
    endloop
  endfacet
  facet normal 0 0 -1
    outer loop
      vertex 0.930369 0.675953 -1
      vertex 0.482146 3.97084 -1
      vertex 1.09371 0.35537 -1
    endloop
  endfacet
  facet normal 0 0 -1
    outer loop
      vertex -2.99404 -2.65249 -1
      vertex -3.88377 -0.957263 -1
      vertex -0.930369 -0.675953 -1
    endloop
  endfacet
  facet normal 0 0 -1
    outer loop
      vertex 0.675953 0.930369 -1
      vertex 0.35537 1.09371 -1
      vertex 0.482146 3.97084 -1
    endloop
  endfacet
  facet normal 0 -0 -1
    outer loop
      vertex -0.675953 -0.930369 -1
      vertex -0.35537 -1.09371 -1
      vertex -1.41842 -3.74006 -1
    endloop
  endfacet
  facet normal 0 -0 -1
    outer loop
      vertex -0.35537 -1.09371 -1
      vertex 0 -1.15 -1
      vertex -1.41842 -3.74006 -1
    endloop
  endfacet
  facet normal 0 -0 -1
    outer loop
      vertex 0 -1.15 -1
      vertex 0.482146 -3.97084 -1
      vertex -1.41842 -3.74006 -1
    endloop
  endfacet
  facet normal 0 -0 -1
    outer loop
      vertex 0.35537 -1.09371 -1
      vertex 0.482146 -3.97084 -1
      vertex 0 -1.15 -1
    endloop
  endfacet
  facet normal 0 0 -1
    outer loop
      vertex 0.482146 -3.97084 -1
      vertex 0.930369 -0.675953 -1
      vertex 1.09371 -0.35537 -1
    endloop
  endfacet
  facet normal 0 0 -1
    outer loop
      vertex 38.9063 -0.35537 -1
      vertex 1.09371 -0.35537 -1
      vertex 38.85 0 -1
    endloop
  endfacet
  facet normal 0 0 -1
    outer loop
      vertex 1.09371 -0.35537 -1
      vertex 1.15 0 -1
      vertex 38.85 0 -1
    endloop
  endfacet
  facet normal -0 0 -1
    outer loop
      vertex 43.5418 1.85889 -1
      vertex 40.9304 0.675953 -1
      vertex 42.2723 3.29194 -1
    endloop
  endfacet
  facet normal 0 0 -1
    outer loop
      vertex 1.09371 0.35537 -1
      vertex 0.482146 3.97084 -1
      vertex 38.9063 0.35537 -1
    endloop
  endfacet
  facet normal 0 0 -1
    outer loop
      vertex 39.0696 0.675953 -1
      vertex 40.4821 3.97084 -1
      vertex 39.324 0.930369 -1
    endloop
  endfacet
  facet normal 0 0 -1
    outer loop
      vertex 0.675953 0.930369 -1
      vertex 0.482146 3.97084 -1
      vertex 0.930369 0.675953 -1
    endloop
  endfacet
  facet normal 0 0 -1
    outer loop
      vertex 0.35537 1.09371 -1
      vertex 0 1.15 -1
      vertex 0.482146 3.97084 -1
    endloop
  endfacet
  facet normal -0 0 -1
    outer loop
      vertex 0 1.15 -1
      vertex -0.35537 1.09371 -1
      vertex -1.41842 3.74006 -1
    endloop
  endfacet
  facet normal -0 0 -1
    outer loop
      vertex -0.35537 1.09371 -1
      vertex -0.675953 0.930369 -1
      vertex -1.41842 3.74006 -1
    endloop
  endfacet
  facet normal 0 0 -1
    outer loop
      vertex -0.675953 0.930369 -1
      vertex -2.99404 2.65249 -1
      vertex -1.41842 3.74006 -1
    endloop
  endfacet
  facet normal 0 0 -1
    outer loop
      vertex -0.930369 0.675953 -1
      vertex -3.88377 0.957263 -1
      vertex -2.99404 2.65249 -1
    endloop
  endfacet
  facet normal 0 0 -1
    outer loop
      vertex -1.09371 0.35537 -1
      vertex -3.88377 0.957263 -1
      vertex -0.930369 0.675953 -1
    endloop
  endfacet
  facet normal 0 0 -1
    outer loop
      vertex -1.15 0 -1
      vertex -3.88377 0.957263 -1
      vertex -1.09371 0.35537 -1
    endloop
  endfacet
  facet normal 0 0 -1
    outer loop
      vertex 1.15 0 -1
      vertex 1.09371 0.35537 -1
      vertex 38.85 0 -1
    endloop
  endfacet
  facet normal 0 0 -1
    outer loop
      vertex 0.482146 -3.97084 -1
      vertex 38.9063 -0.35537 -1
      vertex 39.0696 -0.675953 -1
    endloop
  endfacet
  facet normal 0 0 -1
    outer loop
      vertex 0.482146 -3.97084 -1
      vertex 1.09371 -0.35537 -1
      vertex 38.9063 -0.35537 -1
    endloop
  endfacet
  facet normal 0 0 -1
    outer loop
      vertex 40.4821 -3.97084 -1
      vertex 0.482146 -3.97084 -1
      vertex 39.0696 -0.675953 -1
    endloop
  endfacet
  facet normal 0 0 -1
    outer loop
      vertex 40.4821 -3.97084 -1
      vertex 39.324 -0.930369 -1
      vertex 39.6446 -1.09371 -1
    endloop
  endfacet
  facet normal 0 0 -1
    outer loop
      vertex 40.4821 -3.97084 -1
      vertex 39.0696 -0.675953 -1
      vertex 39.324 -0.930369 -1
    endloop
  endfacet
  facet normal 0 0 -1
    outer loop
      vertex 40.4821 -3.97084 -1
      vertex 39.6446 -1.09371 -1
      vertex 40 -1.15 -1
    endloop
  endfacet
  facet normal -0 0 -1
    outer loop
      vertex 42.2723 -3.29194 -1
      vertex 40.4821 -3.97084 -1
      vertex 40.3554 -1.09371 -1
    endloop
  endfacet
  facet normal 0 0 -1
    outer loop
      vertex 42.2723 -3.29194 -1
      vertex 40.3554 -1.09371 -1
      vertex 40.676 -0.930369 -1
    endloop
  endfacet
  facet normal 0 0 -1
    outer loop
      vertex 40.9304 -0.675953 -1
      vertex 41.0937 -0.35537 -1
      vertex 43.5418 -1.85889 -1
    endloop
  endfacet
  facet normal 0 0 -1
    outer loop
      vertex 41.0937 -0.35537 -1
      vertex 41.15 0 -1
      vertex 44 0 -1
    endloop
  endfacet
  facet normal 0 0 -1
    outer loop
      vertex 41.15 0 -1
      vertex 41.0937 0.35537 -1
      vertex 44 0 -1
    endloop
  endfacet
  facet normal 0 -0 -1
    outer loop
      vertex 43.5418 1.85889 -1
      vertex 44 0 -1
      vertex 41.0937 0.35537 -1
    endloop
  endfacet
  facet normal 0 0 -1
    outer loop
      vertex 43.5418 1.85889 -1
      vertex 41.0937 0.35537 -1
      vertex 40.9304 0.675953 -1
    endloop
  endfacet
  facet normal 0 0 -1
    outer loop
      vertex 42.2723 3.29194 -1
      vertex 40.9304 0.675953 -1
      vertex 40.676 0.930369 -1
    endloop
  endfacet
  facet normal 0 0 -1
    outer loop
      vertex 42.2723 3.29194 -1
      vertex 40.676 0.930369 -1
      vertex 40.3554 1.09371 -1
    endloop
  endfacet
  facet normal -0 0 -1
    outer loop
      vertex 42.2723 3.29194 -1
      vertex 40.3554 1.09371 -1
      vertex 40.4821 3.97084 -1
    endloop
  endfacet
  facet normal 0 0 -1
    outer loop
      vertex 40.3554 1.09371 -1
      vertex 40 1.15 -1
      vertex 40.4821 3.97084 -1
    endloop
  endfacet
  facet normal -0 0 -1
    outer loop
      vertex 40 1.15 -1
      vertex 39.6446 1.09371 -1
      vertex 40.4821 3.97084 -1
    endloop
  endfacet
  facet normal -0 0 -1
    outer loop
      vertex 39.6446 1.09371 -1
      vertex 39.324 0.930369 -1
      vertex 40.4821 3.97084 -1
    endloop
  endfacet
  facet normal 0 0 -1
    outer loop
      vertex 0.482146 3.97084 -1
      vertex 40.4821 3.97084 -1
      vertex 39.0696 0.675953 -1
    endloop
  endfacet
  facet normal 0 0 -1
    outer loop
      vertex 1.09371 0.35537 -1
      vertex 38.9063 0.35537 -1
      vertex 38.85 0 -1
    endloop
  endfacet
  facet normal 0 0 -1
    outer loop
      vertex 0.482146 3.97084 -1
      vertex 39.0696 0.675953 -1
      vertex 38.9063 0.35537 -1
    endloop
  endfacet
  facet normal 0 -1 0
    outer loop
      vertex 0.482146 -3.97084 1
      vertex 0.482146 -3.97084 -1
      vertex 40.4821 -3.97084 -1
    endloop
  endfacet
  facet normal -0 -1 -0
    outer loop
      vertex 40.4821 -3.97084 1
      vertex 0.482146 -3.97084 1
      vertex 40.4821 -3.97084 -1
    endloop
  endfacet
  facet normal 0 1 0
    outer loop
      vertex 40.4821 3.97084 -1
      vertex 0.482146 3.97084 -1
      vertex 0.482146 3.97084 1
    endloop
  endfacet
  facet normal 0 1 0
    outer loop
      vertex 40.4821 3.97084 1
      vertex 40.4821 3.97084 -1
      vertex 0.482146 3.97084 1
    endloop
  endfacet
  facet normal -0.120537 -0.992709 -0
    outer loop
      vertex -1.41842 -3.74006 1
      vertex -1.41842 -3.74006 -1
      vertex 0.482146 -3.97084 -1
    endloop
  endfacet
  facet normal -0.120537 -0.992709 -0
    outer loop
      vertex 0.482146 -3.97084 1
      vertex -1.41842 -3.74006 1
      vertex 0.482146 -3.97084 -1
    endloop
  endfacet
  facet normal -0.885456 -0.464723 -0
    outer loop
      vertex -3.88377 -0.957263 1
      vertex -3.88377 -0.957263 -1
      vertex -2.99404 -2.65249 -1
    endloop
  endfacet
  facet normal -0.885456 -0.464723 -0
    outer loop
      vertex -2.99404 -2.65249 1
      vertex -3.88377 -0.957263 1
      vertex -2.99404 -2.65249 -1
    endloop
  endfacet
  facet normal -0.568065 -0.822984 -0
    outer loop
      vertex -2.99404 -2.65249 1
      vertex -2.99404 -2.65249 -1
      vertex -1.41842 -3.74006 -1
    endloop
  endfacet
  facet normal -0.568065 -0.822984 -0
    outer loop
      vertex -1.41842 -3.74006 1
      vertex -2.99404 -2.65249 1
      vertex -1.41842 -3.74006 -1
    endloop
  endfacet
  facet normal 0.354605 -0.935016 0
    outer loop
      vertex 40.4821 -3.97084 1
      vertex 40.4821 -3.97084 -1
      vertex 42.2723 -3.29194 -1
    endloop
  endfacet
  facet normal 0.354605 -0.935016 0
    outer loop
      vertex 42.2723 -3.29194 1
      vertex 40.4821 -3.97084 1
      vertex 42.2723 -3.29194 -1
    endloop
  endfacet
  facet normal 0.970942 -0.239316 0
    outer loop
      vertex 43.5418 -1.85889 1
      vertex 43.5418 -1.85889 -1
      vertex 44 0 -1
    endloop
  endfacet
  facet normal 0.970942 -0.239316 0
    outer loop
      vertex 44 0 1
      vertex 43.5418 -1.85889 1
      vertex 44 0 -1
    endloop
  endfacet
  facet normal 0.354605 0.935016 0
    outer loop
      vertex 42.2723 3.29194 -1
      vertex 40.4821 3.97084 -1
      vertex 40.4821 3.97084 1
    endloop
  endfacet
  facet normal 0.354605 0.935016 0
    outer loop
      vertex 42.2723 3.29194 1
      vertex 42.2723 3.29194 -1
      vertex 40.4821 3.97084 1
    endloop
  endfacet
  facet normal 0.970942 0.239316 0
    outer loop
      vertex 44 0 -1
      vertex 43.5418 1.85889 -1
      vertex 43.5418 1.85889 1
    endloop
  endfacet
  facet normal 0.970942 0.239316 0
    outer loop
      vertex 44 0 1
      vertex 44 0 -1
      vertex 43.5418 1.85889 1
    endloop
  endfacet
  facet normal 0.748511 0.663123 0
    outer loop
      vertex 43.5418 1.85889 -1
      vertex 42.2723 3.29194 -1
      vertex 42.2723 3.29194 1
    endloop
  endfacet
  facet normal 0.748511 0.663123 0
    outer loop
      vertex 43.5418 1.85889 1
      vertex 43.5418 1.85889 -1
      vertex 42.2723 3.29194 1
    endloop
  endfacet
  facet normal -0.885456 0.464723 0
    outer loop
      vertex -2.99404 2.65249 -1
      vertex -3.88377 0.957263 -1
      vertex -3.88377 0.957263 1
    endloop
  endfacet
  facet normal -0.885456 0.464723 0
    outer loop
      vertex -2.99404 2.65249 1
      vertex -2.99404 2.65249 -1
      vertex -3.88377 0.957263 1
    endloop
  endfacet
  facet normal 0 0 1
    outer loop
      vertex -1.41842 -3.74006 1
      vertex 0 -1.15 1
      vertex -0.35537 -1.09371 1
    endloop
  endfacet
  facet normal 0 0 1
    outer loop
      vertex -2.99404 2.65249 1
      vertex -0.930369 0.675953 1
      vertex -0.675953 0.930369 1
    endloop
  endfacet
  facet normal 0 -0 1
    outer loop
      vertex -2.99404 -2.65249 1
      vertex -0.930369 -0.675953 1
      vertex -3.88377 -0.957263 1
    endloop
  endfacet
  facet normal 0 0 1
    outer loop
      vertex 43.5418 1.85889 1
      vertex 41.0937 0.35537 1
      vertex 44 0 1
    endloop
  endfacet
  facet normal 0 0 1
    outer loop
      vertex 42.2723 3.29194 1
      vertex 40.9304 0.675953 1
      vertex 43.5418 1.85889 1
    endloop
  endfacet
  facet normal 0 0 1
    outer loop
      vertex 42.2723 3.29194 1
      vertex 40.676 0.930369 1
      vertex 40.9304 0.675953 1
    endloop
  endfacet
  facet normal -0 0 1
    outer loop
      vertex 0.35537 1.09371 1
      vertex 0.675953 0.930369 1
      vertex 0.482146 3.97084 1
    endloop
  endfacet
  facet normal -0 -0 1
    outer loop
      vertex 0.675953 0.930369 1
      vertex 0.930369 0.675953 1
      vertex 0.482146 3.97084 1
    endloop
  endfacet
  facet normal 0 0 1
    outer loop
      vertex -3.88377 0.957263 1
      vertex -1.09371 0.35537 1
      vertex -0.930369 0.675953 1
    endloop
  endfacet
  facet normal 0 0 1
    outer loop
      vertex -1.09371 -0.35537 1
      vertex -1.15 0 1
      vertex -3.88377 -0.957263 1
    endloop
  endfacet
  facet normal 0 0 1
    outer loop
      vertex -1.15 0 1
      vertex -3.88377 0.957263 1
      vertex -3.88377 -0.957263 1
    endloop
  endfacet
  facet normal 0 0 1
    outer loop
      vertex 0.482146 -3.97084 1
      vertex 0.930369 -0.675953 1
      vertex 0.675953 -0.930369 1
    endloop
  endfacet
  facet normal -0 0 1
    outer loop
      vertex -2.99404 2.65249 1
      vertex -0.675953 0.930369 1
      vertex -1.41842 3.74006 1
    endloop
  endfacet
  facet normal 0 0 1
    outer loop
      vertex -3.88377 0.957263 1
      vertex -1.15 0 1
      vertex -1.09371 0.35537 1
    endloop
  endfacet
  facet normal -0 0 1
    outer loop
      vertex 0.930369 -0.675953 1
      vertex 0.482146 -3.97084 1
      vertex 1.09371 -0.35537 1
    endloop
  endfacet
  facet normal 0 0 1
    outer loop
      vertex -2.99404 2.65249 1
      vertex -3.88377 0.957263 1
      vertex -0.930369 0.675953 1
    endloop
  endfacet
  facet normal 0 -0 1
    outer loop
      vertex -0.675953 0.930369 1
      vertex -0.35537 1.09371 1
      vertex -1.41842 3.74006 1
    endloop
  endfacet
  facet normal 0 -0 1
    outer loop
      vertex -0.35537 1.09371 1
      vertex 0 1.15 1
      vertex -1.41842 3.74006 1
    endloop
  endfacet
  facet normal 0 -0 1
    outer loop
      vertex 0 1.15 1
      vertex 0.482146 3.97084 1
      vertex -1.41842 3.74006 1
    endloop
  endfacet
  facet normal 0 -0 1
    outer loop
      vertex 0.35537 1.09371 1
      vertex 0.482146 3.97084 1
      vertex 0 1.15 1
    endloop
  endfacet
  facet normal 0 0 1
    outer loop
      vertex 0.482146 3.97084 1
      vertex 0.930369 0.675953 1
      vertex 1.09371 0.35537 1
    endloop
  endfacet
  facet normal 0 -0 1
    outer loop
      vertex 18 0 1
      vertex 18.0246 0.312869 1
      vertex 1.15 0 1
    endloop
  endfacet
  facet normal 0 0 1
    outer loop
      vertex 18 0 1
      vertex 1.15 0 1
      vertex 18.0246 -0.312869 1
    endloop
  endfacet
  facet normal -0 0 1
    outer loop
      vertex 20.618 1.90211 1
      vertex 20.908 1.78201 1
      vertex 40.4821 3.97084 1
    endloop
  endfacet
  facet normal 0 0 1
    outer loop
      vertex 18.0979 -0.618034 1
      vertex 0.482146 -3.97084 1
      vertex 18.218 -0.907981 1
    endloop
  endfacet
  facet normal -0 0 1
    outer loop
      vertex 21.9021 -0.618034 1
      vertex 21.782 -0.907981 1
      vertex 38.9063 -0.35537 1
    endloop
  endfacet
  facet normal 0 0 1
    outer loop
      vertex 0.675953 -0.930369 1
      vertex 0.35537 -1.09371 1
      vertex 0.482146 -3.97084 1
    endloop
  endfacet
  facet normal 0 0 1
    outer loop
      vertex 0.35537 -1.09371 1
      vertex 0 -1.15 1
      vertex 0.482146 -3.97084 1
    endloop
  endfacet
  facet normal 0 0 1
    outer loop
      vertex 0 -1.15 1
      vertex -1.41842 -3.74006 1
      vertex 0.482146 -3.97084 1
    endloop
  endfacet
  facet normal 0 0 1
    outer loop
      vertex -0.35537 -1.09371 1
      vertex -0.675953 -0.930369 1
      vertex -1.41842 -3.74006 1
    endloop
  endfacet
  facet normal 0 0 1
    outer loop
      vertex -0.675953 -0.930369 1
      vertex -2.99404 -2.65249 1
      vertex -1.41842 -3.74006 1
    endloop
  endfacet
  facet normal 0 0 1
    outer loop
      vertex -0.930369 -0.675953 1
      vertex -2.99404 -2.65249 1
      vertex -0.675953 -0.930369 1
    endloop
  endfacet
  facet normal 0 0 1
    outer loop
      vertex -1.09371 -0.35537 1
      vertex -3.88377 -0.957263 1
      vertex -0.930369 -0.675953 1
    endloop
  endfacet
  facet normal 0 0 1
    outer loop
      vertex 18.0979 -0.618034 1
      vertex 18.0246 -0.312869 1
      vertex 1.09371 -0.35537 1
    endloop
  endfacet
  facet normal 0 0 1
    outer loop
      vertex 1.15 0 1
      vertex 1.09371 -0.35537 1
      vertex 18.0246 -0.312869 1
    endloop
  endfacet
  facet normal 0 0 1
    outer loop
      vertex 18.0246 0.312869 1
      vertex 1.09371 0.35537 1
      vertex 1.15 0 1
    endloop
  endfacet
  facet normal 0 0 1
    outer loop
      vertex 18.0979 0.618034 1
      vertex 1.09371 0.35537 1
      vertex 18.0246 0.312869 1
    endloop
  endfacet
  facet normal 0 0 1
    outer loop
      vertex 0.482146 3.97084 1
      vertex 1.09371 0.35537 1
      vertex 18.0979 0.618034 1
    endloop
  endfacet
  facet normal 0 0 1
    outer loop
      vertex 0.482146 3.97084 1
      vertex 18.0979 0.618034 1
      vertex 18.218 0.907981 1
    endloop
  endfacet
  facet normal 0 0 1
    outer loop
      vertex 0.482146 3.97084 1
      vertex 18.218 0.907981 1
      vertex 18.382 1.17557 1
    endloop
  endfacet
  facet normal 0 0 1
    outer loop
      vertex 0.482146 3.97084 1
      vertex 18.382 1.17557 1
      vertex 18.5858 1.41421 1
    endloop
  endfacet
  facet normal 0 0 1
    outer loop
      vertex 0.482146 3.97084 1
      vertex 18.5858 1.41421 1
      vertex 18.8244 1.61803 1
    endloop
  endfacet
  facet normal 0 0 1
    outer loop
      vertex 0.482146 3.97084 1
      vertex 18.8244 1.61803 1
      vertex 19.092 1.78201 1
    endloop
  endfacet
  facet normal 0 0 1
    outer loop
      vertex 0.482146 3.97084 1
      vertex 19.092 1.78201 1
      vertex 19.382 1.90211 1
    endloop
  endfacet
  facet normal 0 0 1
    outer loop
      vertex 0.482146 3.97084 1
      vertex 19.6871 1.97538 1
      vertex 20 2 1
    endloop
  endfacet
  facet normal 0 0 1
    outer loop
      vertex 0.482146 3.97084 1
      vertex 19.382 1.90211 1
      vertex 19.6871 1.97538 1
    endloop
  endfacet
  facet normal -0 0 1
    outer loop
      vertex 0.482146 3.97084 1
      vertex 20 2 1
      vertex 40.4821 3.97084 1
    endloop
  endfacet
  facet normal -0 0 1
    outer loop
      vertex 20 2 1
      vertex 20.3129 1.97538 1
      vertex 40.4821 3.97084 1
    endloop
  endfacet
  facet normal -0 0 1
    outer loop
      vertex 20.3129 1.97538 1
      vertex 20.618 1.90211 1
      vertex 40.4821 3.97084 1
    endloop
  endfacet
  facet normal 0 0 1
    outer loop
      vertex 40.4821 3.97084 1
      vertex 20.908 1.78201 1
      vertex 21.1756 1.61803 1
    endloop
  endfacet
  facet normal 0 0 1
    outer loop
      vertex 40.4821 3.97084 1
      vertex 21.1756 1.61803 1
      vertex 21.4142 1.41421 1
    endloop
  endfacet
  facet normal 0 0 1
    outer loop
      vertex 40.4821 3.97084 1
      vertex 21.4142 1.41421 1
      vertex 21.618 1.17557 1
    endloop
  endfacet
  facet normal 0 0 1
    outer loop
      vertex 40.4821 3.97084 1
      vertex 21.618 1.17557 1
      vertex 21.782 0.907981 1
    endloop
  endfacet
  facet normal -0 0 1
    outer loop
      vertex 21.9754 0.312869 1
      vertex 38.85 0 1
      vertex 38.9063 0.35537 1
    endloop
  endfacet
  facet normal 0 -0 1
    outer loop
      vertex 22 0 1
      vertex 38.85 0 1
      vertex 21.9754 0.312869 1
    endloop
  endfacet
  facet normal 0 0 1
    outer loop
      vertex 21.9754 -0.312869 1
      vertex 38.85 0 1
      vertex 22 0 1
    endloop
  endfacet
  facet normal 0 0 1
    outer loop
      vertex 38.9063 -0.35537 1
      vertex 38.85 0 1
      vertex 21.9754 -0.312869 1
    endloop
  endfacet
  facet normal 0 0 1
    outer loop
      vertex 38.9063 -0.35537 1
      vertex 21.9754 -0.312869 1
      vertex 21.9021 -0.618034 1
    endloop
  endfacet
  facet normal -0 0 1
    outer loop
      vertex 21.782 -0.907981 1
      vertex 40.4821 -3.97084 1
      vertex 39.0696 -0.675953 1
    endloop
  endfacet
  facet normal -0 0 1
    outer loop
      vertex 21.618 -1.17557 1
      vertex 40.4821 -3.97084 1
      vertex 21.782 -0.907981 1
    endloop
  endfacet
  facet normal -0 0 1
    outer loop
      vertex 21.4142 -1.41421 1
      vertex 40.4821 -3.97084 1
      vertex 21.618 -1.17557 1
    endloop
  endfacet
  facet normal -0 0 1
    outer loop
      vertex 21.1756 -1.61803 1
      vertex 40.4821 -3.97084 1
      vertex 21.4142 -1.41421 1
    endloop
  endfacet
  facet normal -0 0 1
    outer loop
      vertex 20.908 -1.78201 1
      vertex 40.4821 -3.97084 1
      vertex 21.1756 -1.61803 1
    endloop
  endfacet
  facet normal -0 0 1
    outer loop
      vertex 20.618 -1.90211 1
      vertex 40.4821 -3.97084 1
      vertex 20.908 -1.78201 1
    endloop
  endfacet
  facet normal -0 0 1
    outer loop
      vertex 20.3129 -1.97538 1
      vertex 40.4821 -3.97084 1
      vertex 20.618 -1.90211 1
    endloop
  endfacet
  facet normal -0 0 1
    outer loop
      vertex 20 -2 1
      vertex 40.4821 -3.97084 1
      vertex 20.3129 -1.97538 1
    endloop
  endfacet
  facet normal 0 0 1
    outer loop
      vertex 40.4821 -3.97084 1
      vertex 20 -2 1
      vertex 0.482146 -3.97084 1
    endloop
  endfacet
  facet normal 0 0 1
    outer loop
      vertex 20 -2 1
      vertex 19.6871 -1.97538 1
      vertex 0.482146 -3.97084 1
    endloop
  endfacet
  facet normal 0 0 1
    outer loop
      vertex 19.6871 -1.97538 1
      vertex 19.382 -1.90211 1
      vertex 0.482146 -3.97084 1
    endloop
  endfacet
  facet normal 0 0 1
    outer loop
      vertex 19.382 -1.90211 1
      vertex 19.092 -1.78201 1
      vertex 0.482146 -3.97084 1
    endloop
  endfacet
  facet normal 0 0 1
    outer loop
      vertex 19.092 -1.78201 1
      vertex 18.8244 -1.61803 1
      vertex 0.482146 -3.97084 1
    endloop
  endfacet
  facet normal 0 0 1
    outer loop
      vertex 18.8244 -1.61803 1
      vertex 18.5858 -1.41421 1
      vertex 0.482146 -3.97084 1
    endloop
  endfacet
  facet normal 0 0 1
    outer loop
      vertex 18.5858 -1.41421 1
      vertex 18.382 -1.17557 1
      vertex 0.482146 -3.97084 1
    endloop
  endfacet
  facet normal 0 0 1
    outer loop
      vertex 18.382 -1.17557 1
      vertex 18.218 -0.907981 1
      vertex 0.482146 -3.97084 1
    endloop
  endfacet
  facet normal 0 0 1
    outer loop
      vertex 0.482146 -3.97084 1
      vertex 18.0979 -0.618034 1
      vertex 1.09371 -0.35537 1
    endloop
  endfacet
  facet normal 0 -0 1
    outer loop
      vertex 21.9754 0.312869 1
      vertex 38.9063 0.35537 1
      vertex 21.9021 0.618034 1
    endloop
  endfacet
  facet normal 0 0 1
    outer loop
      vertex 38.9063 0.35537 1
      vertex 21.782 0.907981 1
      vertex 21.9021 0.618034 1
    endloop
  endfacet
  facet normal 0 0 1
    outer loop
      vertex 39.0696 0.675953 1
      vertex 21.782 0.907981 1
      vertex 38.9063 0.35537 1
    endloop
  endfacet
  facet normal 0 0 1
    outer loop
      vertex 40.4821 3.97084 1
      vertex 21.782 0.907981 1
      vertex 39.0696 0.675953 1
    endloop
  endfacet
  facet normal 0 0 1
    outer loop
      vertex 40.4821 3.97084 1
      vertex 39.324 0.930369 1
      vertex 39.6446 1.09371 1
    endloop
  endfacet
  facet normal 0 0 1
    outer loop
      vertex 40.4821 3.97084 1
      vertex 39.0696 0.675953 1
      vertex 39.324 0.930369 1
    endloop
  endfacet
  facet normal 0 -0 1
    outer loop
      vertex 40.3554 1.09371 1
      vertex 40.4821 3.97084 1
      vertex 40 1.15 1
    endloop
  endfacet
  facet normal 0 -0 1
    outer loop
      vertex 40 1.15 1
      vertex 40.4821 3.97084 1
      vertex 39.6446 1.09371 1
    endloop
  endfacet
  facet normal 0 0 1
    outer loop
      vertex 42.2723 3.29194 1
      vertex 40.4821 3.97084 1
      vertex 40.3554 1.09371 1
    endloop
  endfacet
  facet normal 0 0 1
    outer loop
      vertex 42.2723 3.29194 1
      vertex 40.3554 1.09371 1
      vertex 40.676 0.930369 1
    endloop
  endfacet
  facet normal -0 0 1
    outer loop
      vertex 40.9304 0.675953 1
      vertex 41.0937 0.35537 1
      vertex 43.5418 1.85889 1
    endloop
  endfacet
  facet normal 0 0 1
    outer loop
      vertex 41.0937 0.35537 1
      vertex 41.15 0 1
      vertex 44 0 1
    endloop
  endfacet
  facet normal -0 0 1
    outer loop
      vertex 41.15 0 1
      vertex 41.0937 -0.35537 1
      vertex 44 0 1
    endloop
  endfacet
  facet normal -0 0 1
    outer loop
      vertex 41.0937 -0.35537 1
      vertex 43.5418 -1.85889 1
      vertex 44 0 1
    endloop
  endfacet
  facet normal 0 -0 1
    outer loop
      vertex 42.2723 -3.29194 1
      vertex 43.5418 -1.85889 1
      vertex 40.9304 -0.675953 1
    endloop
  endfacet
  facet normal -0 0 1
    outer loop
      vertex 40.9304 -0.675953 1
      vertex 43.5418 -1.85889 1
      vertex 41.0937 -0.35537 1
    endloop
  endfacet
  facet normal -0 0 1
    outer loop
      vertex 40.676 -0.930369 1
      vertex 42.2723 -3.29194 1
      vertex 40.9304 -0.675953 1
    endloop
  endfacet
  facet normal -0 0 1
    outer loop
      vertex 40.3554 -1.09371 1
      vertex 42.2723 -3.29194 1
      vertex 40.676 -0.930369 1
    endloop
  endfacet
  facet normal 0 -0 1
    outer loop
      vertex 40.4821 -3.97084 1
      vertex 42.2723 -3.29194 1
      vertex 40.3554 -1.09371 1
    endloop
  endfacet
  facet normal 0 0 1
    outer loop
      vertex 40.4821 -3.97084 1
      vertex 40.3554 -1.09371 1
      vertex 40 -1.15 1
    endloop
  endfacet
  facet normal 0 0 1
    outer loop
      vertex 40.4821 -3.97084 1
      vertex 40 -1.15 1
      vertex 39.6446 -1.09371 1
    endloop
  endfacet
  facet normal 0 0 1
    outer loop
      vertex 40.4821 -3.97084 1
      vertex 39.6446 -1.09371 1
      vertex 39.324 -0.930369 1
    endloop
  endfacet
  facet normal 0 0 1
    outer loop
      vertex 21.782 -0.907981 1
      vertex 39.0696 -0.675953 1
      vertex 38.9063 -0.35537 1
    endloop
  endfacet
  facet normal 0 0 1
    outer loop
      vertex 40.4821 -3.97084 1
      vertex 39.324 -0.930369 1
      vertex 39.0696 -0.675953 1
    endloop
  endfacet
  facet normal 0.748511 -0.663123 0
    outer loop
      vertex 42.2723 -3.29194 1
      vertex 42.2723 -3.29194 -1
      vertex 43.5418 -1.85889 -1
    endloop
  endfacet
  facet normal 0.748511 -0.663123 0
    outer loop
      vertex 43.5418 -1.85889 1
      vertex 42.2723 -3.29194 1
      vertex 43.5418 -1.85889 -1
    endloop
  endfacet
  facet normal -0.568065 0.822984 0
    outer loop
      vertex -1.41842 3.74006 -1
      vertex -2.99404 2.65249 -1
      vertex -2.99404 2.65249 1
    endloop
  endfacet
  facet normal -0.568065 0.822984 0
    outer loop
      vertex -1.41842 3.74006 1
      vertex -1.41842 3.74006 -1
      vertex -2.99404 2.65249 1
    endloop
  endfacet
  facet normal -0.120537 0.992709 0
    outer loop
      vertex 0.482146 3.97084 -1
      vertex -1.41842 3.74006 -1
      vertex -1.41842 3.74006 1
    endloop
  endfacet
  facet normal -0.120537 0.992709 0
    outer loop
      vertex 0.482146 3.97084 1
      vertex 0.482146 3.97084 -1
      vertex -1.41842 3.74006 1
    endloop
  endfacet
  facet normal -0.987688 -0.156434 0
    outer loop
      vertex 1.15 0 -1
      vertex 1.15 0 1
      vertex 1.09371 0.35537 1
    endloop
  endfacet
  facet normal -0.987688 -0.156434 0
    outer loop
      vertex 1.09371 0.35537 -1
      vertex 1.15 0 -1
      vertex 1.09371 0.35537 1
    endloop
  endfacet
  facet normal -0.891007 -0.45399 0
    outer loop
      vertex 1.09371 0.35537 -1
      vertex 1.09371 0.35537 1
      vertex 0.930369 0.675953 1
    endloop
  endfacet
  facet normal -0.891007 -0.45399 0
    outer loop
      vertex 0.930369 0.675953 -1
      vertex 1.09371 0.35537 -1
      vertex 0.930369 0.675953 1
    endloop
  endfacet
  facet normal -0.707107 -0.707107 0
    outer loop
      vertex 0.930369 0.675953 -1
      vertex 0.930369 0.675953 1
      vertex 0.675953 0.930369 1
    endloop
  endfacet
  facet normal -0.707107 -0.707107 0
    outer loop
      vertex 0.675953 0.930369 -1
      vertex 0.930369 0.675953 -1
      vertex 0.675953 0.930369 1
    endloop
  endfacet
  facet normal -0.45399 -0.891007 0
    outer loop
      vertex 0.675953 0.930369 -1
      vertex 0.675953 0.930369 1
      vertex 0.35537 1.09371 1
    endloop
  endfacet
  facet normal -0.45399 -0.891007 0
    outer loop
      vertex 0.35537 1.09371 -1
      vertex 0.675953 0.930369 -1
      vertex 0.35537 1.09371 1
    endloop
  endfacet
  facet normal -0.156434 -0.987688 0
    outer loop
      vertex 0.35537 1.09371 -1
      vertex 0.35537 1.09371 1
      vertex 0 1.15 1
    endloop
  endfacet
  facet normal -0.156434 -0.987688 0
    outer loop
      vertex 0 1.15 -1
      vertex 0.35537 1.09371 -1
      vertex 0 1.15 1
    endloop
  endfacet
  facet normal 0.156434 -0.987688 0
    outer loop
      vertex 0 1.15 -1
      vertex 0 1.15 1
      vertex -0.35537 1.09371 1
    endloop
  endfacet
  facet normal 0.156434 -0.987688 0
    outer loop
      vertex -0.35537 1.09371 -1
      vertex 0 1.15 -1
      vertex -0.35537 1.09371 1
    endloop
  endfacet
  facet normal 0.45399 -0.891007 0
    outer loop
      vertex -0.35537 1.09371 -1
      vertex -0.35537 1.09371 1
      vertex -0.675953 0.930369 1
    endloop
  endfacet
  facet normal 0.45399 -0.891007 0
    outer loop
      vertex -0.675953 0.930369 -1
      vertex -0.35537 1.09371 -1
      vertex -0.675953 0.930369 1
    endloop
  endfacet
  facet normal 0.707107 -0.707107 0
    outer loop
      vertex -0.675953 0.930369 -1
      vertex -0.675953 0.930369 1
      vertex -0.930369 0.675953 1
    endloop
  endfacet
  facet normal 0.707107 -0.707107 0
    outer loop
      vertex -0.930369 0.675953 -1
      vertex -0.675953 0.930369 -1
      vertex -0.930369 0.675953 1
    endloop
  endfacet
  facet normal 0.891007 -0.45399 0
    outer loop
      vertex -0.930369 0.675953 -1
      vertex -0.930369 0.675953 1
      vertex -1.09371 0.35537 1
    endloop
  endfacet
  facet normal 0.891007 -0.45399 0
    outer loop
      vertex -1.09371 0.35537 -1
      vertex -0.930369 0.675953 -1
      vertex -1.09371 0.35537 1
    endloop
  endfacet
  facet normal 0.987688 -0.156434 0
    outer loop
      vertex -1.09371 0.35537 -1
      vertex -1.09371 0.35537 1
      vertex -1.15 0 1
    endloop
  endfacet
  facet normal 0.987688 -0.156434 0
    outer loop
      vertex -1.15 0 -1
      vertex -1.09371 0.35537 -1
      vertex -1.15 0 1
    endloop
  endfacet
  facet normal 0.987688 0.156434 0
    outer loop
      vertex -1.15 0 1
      vertex -1.09371 -0.35537 1
      vertex -1.09371 -0.35537 -1
    endloop
  endfacet
  facet normal 0.987688 0.156434 -0
    outer loop
      vertex -1.15 0 -1
      vertex -1.15 0 1
      vertex -1.09371 -0.35537 -1
    endloop
  endfacet
  facet normal 0.891007 0.45399 0
    outer loop
      vertex -1.09371 -0.35537 1
      vertex -0.930369 -0.675953 1
      vertex -0.930369 -0.675953 -1
    endloop
  endfacet
  facet normal 0.891007 0.45399 -0
    outer loop
      vertex -1.09371 -0.35537 -1
      vertex -1.09371 -0.35537 1
      vertex -0.930369 -0.675953 -1
    endloop
  endfacet
  facet normal 0.707107 0.707107 0
    outer loop
      vertex -0.930369 -0.675953 1
      vertex -0.675953 -0.930369 1
      vertex -0.675953 -0.930369 -1
    endloop
  endfacet
  facet normal 0.707107 0.707107 -0
    outer loop
      vertex -0.930369 -0.675953 -1
      vertex -0.930369 -0.675953 1
      vertex -0.675953 -0.930369 -1
    endloop
  endfacet
  facet normal 0.45399 0.891007 0
    outer loop
      vertex -0.675953 -0.930369 1
      vertex -0.35537 -1.09371 1
      vertex -0.35537 -1.09371 -1
    endloop
  endfacet
  facet normal 0.45399 0.891007 -0
    outer loop
      vertex -0.675953 -0.930369 -1
      vertex -0.675953 -0.930369 1
      vertex -0.35537 -1.09371 -1
    endloop
  endfacet
  facet normal 0.156434 0.987688 0
    outer loop
      vertex -0.35537 -1.09371 1
      vertex 0 -1.15 1
      vertex 0 -1.15 -1
    endloop
  endfacet
  facet normal 0.156434 0.987688 -0
    outer loop
      vertex -0.35537 -1.09371 -1
      vertex -0.35537 -1.09371 1
      vertex 0 -1.15 -1
    endloop
  endfacet
  facet normal -0.156434 0.987688 0
    outer loop
      vertex 0 -1.15 1
      vertex 0.35537 -1.09371 1
      vertex 0.35537 -1.09371 -1
    endloop
  endfacet
  facet normal -0.156434 0.987688 0
    outer loop
      vertex 0 -1.15 -1
      vertex 0 -1.15 1
      vertex 0.35537 -1.09371 -1
    endloop
  endfacet
  facet normal -0.45399 0.891007 0
    outer loop
      vertex 0.35537 -1.09371 1
      vertex 0.675953 -0.930369 1
      vertex 0.675953 -0.930369 -1
    endloop
  endfacet
  facet normal -0.45399 0.891007 0
    outer loop
      vertex 0.35537 -1.09371 -1
      vertex 0.35537 -1.09371 1
      vertex 0.675953 -0.930369 -1
    endloop
  endfacet
  facet normal -0.707107 0.707107 0
    outer loop
      vertex 0.675953 -0.930369 1
      vertex 0.930369 -0.675953 1
      vertex 0.930369 -0.675953 -1
    endloop
  endfacet
  facet normal -0.707107 0.707107 0
    outer loop
      vertex 0.675953 -0.930369 -1
      vertex 0.675953 -0.930369 1
      vertex 0.930369 -0.675953 -1
    endloop
  endfacet
  facet normal -0.891007 0.45399 0
    outer loop
      vertex 0.930369 -0.675953 1
      vertex 1.09371 -0.35537 1
      vertex 1.09371 -0.35537 -1
    endloop
  endfacet
  facet normal -0.891007 0.45399 0
    outer loop
      vertex 0.930369 -0.675953 -1
      vertex 0.930369 -0.675953 1
      vertex 1.09371 -0.35537 -1
    endloop
  endfacet
  facet normal -0.987688 0.156434 0
    outer loop
      vertex 1.09371 -0.35537 1
      vertex 1.15 0 1
      vertex 1.15 0 -1
    endloop
  endfacet
  facet normal -0.987688 0.156434 0
    outer loop
      vertex 1.09371 -0.35537 -1
      vertex 1.09371 -0.35537 1
      vertex 1.15 0 -1
    endloop
  endfacet
  facet normal -0.987688 -0.156434 0
    outer loop
      vertex 41.15 0 -1
      vertex 41.15 0 1
      vertex 41.0937 0.35537 1
    endloop
  endfacet
  facet normal -0.987688 -0.156434 0
    outer loop
      vertex 41.0937 0.35537 -1
      vertex 41.15 0 -1
      vertex 41.0937 0.35537 1
    endloop
  endfacet
  facet normal -0.891007 -0.45399 0
    outer loop
      vertex 41.0937 0.35537 -1
      vertex 41.0937 0.35537 1
      vertex 40.9304 0.675953 1
    endloop
  endfacet
  facet normal -0.891007 -0.45399 0
    outer loop
      vertex 40.9304 0.675953 -1
      vertex 41.0937 0.35537 -1
      vertex 40.9304 0.675953 1
    endloop
  endfacet
  facet normal -0.707107 -0.707107 0
    outer loop
      vertex 40.9304 0.675953 -1
      vertex 40.9304 0.675953 1
      vertex 40.676 0.930369 1
    endloop
  endfacet
  facet normal -0.707107 -0.707107 0
    outer loop
      vertex 40.676 0.930369 -1
      vertex 40.9304 0.675953 -1
      vertex 40.676 0.930369 1
    endloop
  endfacet
  facet normal -0.45399 -0.891007 0
    outer loop
      vertex 40.676 0.930369 -1
      vertex 40.676 0.930369 1
      vertex 40.3554 1.09371 1
    endloop
  endfacet
  facet normal -0.45399 -0.891007 0
    outer loop
      vertex 40.3554 1.09371 -1
      vertex 40.676 0.930369 -1
      vertex 40.3554 1.09371 1
    endloop
  endfacet
  facet normal -0.156434 -0.987688 0
    outer loop
      vertex 40.3554 1.09371 -1
      vertex 40.3554 1.09371 1
      vertex 40 1.15 1
    endloop
  endfacet
  facet normal -0.156434 -0.987688 0
    outer loop
      vertex 40 1.15 -1
      vertex 40.3554 1.09371 -1
      vertex 40 1.15 1
    endloop
  endfacet
  facet normal 0.156434 -0.987688 0
    outer loop
      vertex 40 1.15 -1
      vertex 40 1.15 1
      vertex 39.6446 1.09371 1
    endloop
  endfacet
  facet normal 0.156434 -0.987688 0
    outer loop
      vertex 39.6446 1.09371 -1
      vertex 40 1.15 -1
      vertex 39.6446 1.09371 1
    endloop
  endfacet
  facet normal 0.45399 -0.891007 0
    outer loop
      vertex 39.6446 1.09371 -1
      vertex 39.6446 1.09371 1
      vertex 39.324 0.930369 1
    endloop
  endfacet
  facet normal 0.45399 -0.891007 0
    outer loop
      vertex 39.324 0.930369 -1
      vertex 39.6446 1.09371 -1
      vertex 39.324 0.930369 1
    endloop
  endfacet
  facet normal 0.707107 -0.707107 0
    outer loop
      vertex 39.324 0.930369 -1
      vertex 39.324 0.930369 1
      vertex 39.0696 0.675953 1
    endloop
  endfacet
  facet normal 0.707107 -0.707107 0
    outer loop
      vertex 39.0696 0.675953 -1
      vertex 39.324 0.930369 -1
      vertex 39.0696 0.675953 1
    endloop
  endfacet
  facet normal 0.891007 -0.45399 0
    outer loop
      vertex 39.0696 0.675953 -1
      vertex 39.0696 0.675953 1
      vertex 38.9063 0.35537 1
    endloop
  endfacet
  facet normal 0.891007 -0.45399 0
    outer loop
      vertex 38.9063 0.35537 -1
      vertex 39.0696 0.675953 -1
      vertex 38.9063 0.35537 1
    endloop
  endfacet
  facet normal 0.987688 -0.156434 0
    outer loop
      vertex 38.9063 0.35537 -1
      vertex 38.9063 0.35537 1
      vertex 38.85 0 1
    endloop
  endfacet
  facet normal 0.987688 -0.156434 0
    outer loop
      vertex 38.85 0 -1
      vertex 38.9063 0.35537 -1
      vertex 38.85 0 1
    endloop
  endfacet
  facet normal 0.987688 0.156434 0
    outer loop
      vertex 38.85 0 1
      vertex 38.9063 -0.35537 1
      vertex 38.9063 -0.35537 -1
    endloop
  endfacet
  facet normal 0.987688 0.156434 -0
    outer loop
      vertex 38.85 0 -1
      vertex 38.85 0 1
      vertex 38.9063 -0.35537 -1
    endloop
  endfacet
  facet normal 0.891007 0.45399 0
    outer loop
      vertex 38.9063 -0.35537 1
      vertex 39.0696 -0.675953 1
      vertex 39.0696 -0.675953 -1
    endloop
  endfacet
  facet normal 0.891007 0.45399 -0
    outer loop
      vertex 38.9063 -0.35537 -1
      vertex 38.9063 -0.35537 1
      vertex 39.0696 -0.675953 -1
    endloop
  endfacet
  facet normal 0.707107 0.707107 0
    outer loop
      vertex 39.0696 -0.675953 1
      vertex 39.324 -0.930369 1
      vertex 39.324 -0.930369 -1
    endloop
  endfacet
  facet normal 0.707107 0.707107 -0
    outer loop
      vertex 39.0696 -0.675953 -1
      vertex 39.0696 -0.675953 1
      vertex 39.324 -0.930369 -1
    endloop
  endfacet
  facet normal 0.45399 0.891007 0
    outer loop
      vertex 39.324 -0.930369 1
      vertex 39.6446 -1.09371 1
      vertex 39.6446 -1.09371 -1
    endloop
  endfacet
  facet normal 0.45399 0.891007 -0
    outer loop
      vertex 39.324 -0.930369 -1
      vertex 39.324 -0.930369 1
      vertex 39.6446 -1.09371 -1
    endloop
  endfacet
  facet normal 0.156434 0.987688 0
    outer loop
      vertex 39.6446 -1.09371 1
      vertex 40 -1.15 1
      vertex 40 -1.15 -1
    endloop
  endfacet
  facet normal 0.156434 0.987688 -0
    outer loop
      vertex 39.6446 -1.09371 -1
      vertex 39.6446 -1.09371 1
      vertex 40 -1.15 -1
    endloop
  endfacet
  facet normal -0.156434 0.987688 0
    outer loop
      vertex 40 -1.15 1
      vertex 40.3554 -1.09371 1
      vertex 40.3554 -1.09371 -1
    endloop
  endfacet
  facet normal -0.156434 0.987688 0
    outer loop
      vertex 40 -1.15 -1
      vertex 40 -1.15 1
      vertex 40.3554 -1.09371 -1
    endloop
  endfacet
  facet normal -0.45399 0.891007 0
    outer loop
      vertex 40.3554 -1.09371 1
      vertex 40.676 -0.930369 1
      vertex 40.676 -0.930369 -1
    endloop
  endfacet
  facet normal -0.45399 0.891007 0
    outer loop
      vertex 40.3554 -1.09371 -1
      vertex 40.3554 -1.09371 1
      vertex 40.676 -0.930369 -1
    endloop
  endfacet
  facet normal -0.707107 0.707107 0
    outer loop
      vertex 40.676 -0.930369 1
      vertex 40.9304 -0.675953 1
      vertex 40.9304 -0.675953 -1
    endloop
  endfacet
  facet normal -0.707107 0.707107 0
    outer loop
      vertex 40.676 -0.930369 -1
      vertex 40.676 -0.930369 1
      vertex 40.9304 -0.675953 -1
    endloop
  endfacet
  facet normal -0.891007 0.45399 0
    outer loop
      vertex 40.9304 -0.675953 1
      vertex 41.0937 -0.35537 1
      vertex 41.0937 -0.35537 -1
    endloop
  endfacet
  facet normal -0.891007 0.45399 0
    outer loop
      vertex 40.9304 -0.675953 -1
      vertex 40.9304 -0.675953 1
      vertex 41.0937 -0.35537 -1
    endloop
  endfacet
  facet normal -0.987688 0.156434 0
    outer loop
      vertex 41.0937 -0.35537 1
      vertex 41.15 0 1
      vertex 41.15 0 -1
    endloop
  endfacet
  facet normal -0.987688 0.156434 0
    outer loop
      vertex 41.0937 -0.35537 -1
      vertex 41.0937 -0.35537 1
      vertex 41.15 0 -1
    endloop
  endfacet
endsolid OpenSCAD_Model
