solid OpenSCAD_Model
  facet normal 0.996917 0.0784593 0
    outer loop
      vertex 14 40 -0.75
      vertex 13.9508 40.6257 -0.75
      vertex 13.9508 40.6257 0.75
    endloop
  endfacet
  facet normal 0.996917 0.0784593 0
    outer loop
      vertex 14 40 0.75
      vertex 14 40 -0.75
      vertex 13.9508 40.6257 0.75
    endloop
  endfacet
  facet normal 0.97237 0.233446 0
    outer loop
      vertex 13.9508 40.6257 -0.75
      vertex 13.8042 41.2361 -0.75
      vertex 13.8042 41.2361 0.75
    endloop
  endfacet
  facet normal 0.97237 0.233446 0
    outer loop
      vertex 13.9508 40.6257 0.75
      vertex 13.9508 40.6257 -0.75
      vertex 13.8042 41.2361 0.75
    endloop
  endfacet
  facet normal 0.92388 0.382684 0
    outer loop
      vertex 13.8042 41.2361 -0.75
      vertex 13.564 41.816 -0.75
      vertex 13.564 41.816 0.75
    endloop
  endfacet
  facet normal 0.92388 0.382684 0
    outer loop
      vertex 13.8042 41.2361 0.75
      vertex 13.8042 41.2361 -0.75
      vertex 13.564 41.816 0.75
    endloop
  endfacet
  facet normal 0.85264 0.522498 0
    outer loop
      vertex 13.564 41.816 -0.75
      vertex 13.2361 42.3511 -0.75
      vertex 13.2361 42.3511 0.75
    endloop
  endfacet
  facet normal 0.85264 0.522498 0
    outer loop
      vertex 13.564 41.816 0.75
      vertex 13.564 41.816 -0.75
      vertex 13.2361 42.3511 0.75
    endloop
  endfacet
  facet normal 0.760406 0.649448 0
    outer loop
      vertex 13.2361 42.3511 -0.75
      vertex 12.8284 42.8284 -0.75
      vertex 12.8284 42.8284 0.75
    endloop
  endfacet
  facet normal 0.760406 0.649448 0
    outer loop
      vertex 13.2361 42.3511 0.75
      vertex 13.2361 42.3511 -0.75
      vertex 12.8284 42.8284 0.75
    endloop
  endfacet
  facet normal 0.649448 0.760406 0
    outer loop
      vertex 12.8284 42.8284 -0.75
      vertex 12.3511 43.2361 -0.75
      vertex 12.3511 43.2361 0.75
    endloop
  endfacet
  facet normal 0.649448 0.760406 0
    outer loop
      vertex 12.8284 42.8284 0.75
      vertex 12.8284 42.8284 -0.75
      vertex 12.3511 43.2361 0.75
    endloop
  endfacet
  facet normal 0.522498 0.85264 0
    outer loop
      vertex 12.3511 43.2361 -0.75
      vertex 11.816 43.564 -0.75
      vertex 11.816 43.564 0.75
    endloop
  endfacet
  facet normal 0.522498 0.85264 0
    outer loop
      vertex 12.3511 43.2361 0.75
      vertex 12.3511 43.2361 -0.75
      vertex 11.816 43.564 0.75
    endloop
  endfacet
  facet normal 0.382684 0.92388 0
    outer loop
      vertex 11.816 43.564 -0.75
      vertex 11.2361 43.8042 -0.75
      vertex 11.2361 43.8042 0.75
    endloop
  endfacet
  facet normal 0.382684 0.92388 0
    outer loop
      vertex 11.816 43.564 0.75
      vertex 11.816 43.564 -0.75
      vertex 11.2361 43.8042 0.75
    endloop
  endfacet
  facet normal 0.233446 0.97237 0
    outer loop
      vertex 11.2361 43.8042 -0.75
      vertex 10.6257 43.9508 -0.75
      vertex 10.6257 43.9508 0.75
    endloop
  endfacet
  facet normal 0.233446 0.97237 0
    outer loop
      vertex 11.2361 43.8042 0.75
      vertex 11.2361 43.8042 -0.75
      vertex 10.6257 43.9508 0.75
    endloop
  endfacet
  facet normal 0.0784593 0.996917 0
    outer loop
      vertex 10.6257 43.9508 -0.75
      vertex 10 44 -0.75
      vertex 10 44 0.75
    endloop
  endfacet
  facet normal 0.0784593 0.996917 0
    outer loop
      vertex 10.6257 43.9508 0.75
      vertex 10.6257 43.9508 -0.75
      vertex 10 44 0.75
    endloop
  endfacet
  facet normal -0.0784593 0.996917 0
    outer loop
      vertex 10 44 -0.75
      vertex 9.37426 43.9508 -0.75
      vertex 9.37426 43.9508 0.75
    endloop
  endfacet
  facet normal -0.0784593 0.996917 0
    outer loop
      vertex 10 44 0.75
      vertex 10 44 -0.75
      vertex 9.37426 43.9508 0.75
    endloop
  endfacet
  facet normal -0.233446 0.97237 0
    outer loop
      vertex 9.37426 43.9508 -0.75
      vertex 8.76393 43.8042 -0.75
      vertex 8.76393 43.8042 0.75
    endloop
  endfacet
  facet normal -0.233446 0.97237 0
    outer loop
      vertex 9.37426 43.9508 0.75
      vertex 9.37426 43.9508 -0.75
      vertex 8.76393 43.8042 0.75
    endloop
  endfacet
  facet normal -0.382684 0.92388 0
    outer loop
      vertex 8.76393 43.8042 -0.75
      vertex 8.18404 43.564 -0.75
      vertex 8.18404 43.564 0.75
    endloop
  endfacet
  facet normal -0.382684 0.92388 0
    outer loop
      vertex 8.76393 43.8042 0.75
      vertex 8.76393 43.8042 -0.75
      vertex 8.18404 43.564 0.75
    endloop
  endfacet
  facet normal -0.522498 0.85264 0
    outer loop
      vertex 8.18404 43.564 -0.75
      vertex 7.64886 43.2361 -0.75
      vertex 7.64886 43.2361 0.75
    endloop
  endfacet
  facet normal -0.522498 0.85264 0
    outer loop
      vertex 8.18404 43.564 0.75
      vertex 8.18404 43.564 -0.75
      vertex 7.64886 43.2361 0.75
    endloop
  endfacet
  facet normal -0.649448 0.760406 0
    outer loop
      vertex 7.64886 43.2361 -0.75
      vertex 7.17157 42.8284 -0.75
      vertex 7.17157 42.8284 0.75
    endloop
  endfacet
  facet normal -0.649448 0.760406 0
    outer loop
      vertex 7.64886 43.2361 0.75
      vertex 7.64886 43.2361 -0.75
      vertex 7.17157 42.8284 0.75
    endloop
  endfacet
  facet normal -0.760406 0.649448 0
    outer loop
      vertex 7.17157 42.8284 -0.75
      vertex 6.76393 42.3511 -0.75
      vertex 6.76393 42.3511 0.75
    endloop
  endfacet
  facet normal -0.760406 0.649448 0
    outer loop
      vertex 7.17157 42.8284 0.75
      vertex 7.17157 42.8284 -0.75
      vertex 6.76393 42.3511 0.75
    endloop
  endfacet
  facet normal -0.85264 0.522498 0
    outer loop
      vertex 6.76393 42.3511 -0.75
      vertex 6.43597 41.816 -0.75
      vertex 6.43597 41.816 0.75
    endloop
  endfacet
  facet normal -0.85264 0.522498 0
    outer loop
      vertex 6.76393 42.3511 0.75
      vertex 6.76393 42.3511 -0.75
      vertex 6.43597 41.816 0.75
    endloop
  endfacet
  facet normal -0.92388 0.382684 0
    outer loop
      vertex 6.43597 41.816 -0.75
      vertex 6.19577 41.2361 -0.75
      vertex 6.19577 41.2361 0.75
    endloop
  endfacet
  facet normal -0.92388 0.382684 0
    outer loop
      vertex 6.43597 41.816 0.75
      vertex 6.43597 41.816 -0.75
      vertex 6.19577 41.2361 0.75
    endloop
  endfacet
  facet normal -0.97237 0.233446 0
    outer loop
      vertex 6.19577 41.2361 -0.75
      vertex 6.04925 40.6257 -0.75
      vertex 6.04925 40.6257 0.75
    endloop
  endfacet
  facet normal -0.97237 0.233446 0
    outer loop
      vertex 6.19577 41.2361 0.75
      vertex 6.19577 41.2361 -0.75
      vertex 6.04925 40.6257 0.75
    endloop
  endfacet
  facet normal -0.996917 0.0784593 0
    outer loop
      vertex 6.04925 40.6257 -0.75
      vertex 6 40 -0.75
      vertex 6 40 0.75
    endloop
  endfacet
  facet normal -0.996917 0.0784593 0
    outer loop
      vertex 6.04925 40.6257 0.75
      vertex 6.04925 40.6257 -0.75
      vertex 6 40 0.75
    endloop
  endfacet
  facet normal -0.996917 -0.0784593 -0
    outer loop
      vertex 6 40 0.75
      vertex 6 40 -0.75
      vertex 6.04925 39.3743 -0.75
    endloop
  endfacet
  facet normal -0.996917 -0.0784593 -0
    outer loop
      vertex 6.04925 39.3743 0.75
      vertex 6 40 0.75
      vertex 6.04925 39.3743 -0.75
    endloop
  endfacet
  facet normal -0.97237 -0.233446 -0
    outer loop
      vertex 6.04925 39.3743 0.75
      vertex 6.04925 39.3743 -0.75
      vertex 6.19577 38.7639 -0.75
    endloop
  endfacet
  facet normal -0.97237 -0.233446 -0
    outer loop
      vertex 6.19577 38.7639 0.75
      vertex 6.04925 39.3743 0.75
      vertex 6.19577 38.7639 -0.75
    endloop
  endfacet
  facet normal -0.92388 -0.382684 -0
    outer loop
      vertex 6.19577 38.7639 0.75
      vertex 6.19577 38.7639 -0.75
      vertex 6.43597 38.184 -0.75
    endloop
  endfacet
  facet normal -0.92388 -0.382684 -0
    outer loop
      vertex 6.43597 38.184 0.75
      vertex 6.19577 38.7639 0.75
      vertex 6.43597 38.184 -0.75
    endloop
  endfacet
  facet normal -0.85264 -0.522498 -0
    outer loop
      vertex 6.43597 38.184 0.75
      vertex 6.43597 38.184 -0.75
      vertex 6.76393 37.6489 -0.75
    endloop
  endfacet
  facet normal -0.85264 -0.522498 -0
    outer loop
      vertex 6.76393 37.6489 0.75
      vertex 6.43597 38.184 0.75
      vertex 6.76393 37.6489 -0.75
    endloop
  endfacet
  facet normal -0.760406 -0.649448 -0
    outer loop
      vertex 6.76393 37.6489 0.75
      vertex 6.76393 37.6489 -0.75
      vertex 7.17157 37.1716 -0.75
    endloop
  endfacet
  facet normal -0.760406 -0.649448 -0
    outer loop
      vertex 7.17157 37.1716 0.75
      vertex 6.76393 37.6489 0.75
      vertex 7.17157 37.1716 -0.75
    endloop
  endfacet
  facet normal -0.649448 -0.760406 -0
    outer loop
      vertex 7.17157 37.1716 0.75
      vertex 7.17157 37.1716 -0.75
      vertex 7.64886 36.7639 -0.75
    endloop
  endfacet
  facet normal -0.649448 -0.760406 -0
    outer loop
      vertex 7.64886 36.7639 0.75
      vertex 7.17157 37.1716 0.75
      vertex 7.64886 36.7639 -0.75
    endloop
  endfacet
  facet normal -0.522498 -0.85264 -0
    outer loop
      vertex 7.64886 36.7639 0.75
      vertex 7.64886 36.7639 -0.75
      vertex 8.18404 36.436 -0.75
    endloop
  endfacet
  facet normal -0.522498 -0.85264 -0
    outer loop
      vertex 8.18404 36.436 0.75
      vertex 7.64886 36.7639 0.75
      vertex 8.18404 36.436 -0.75
    endloop
  endfacet
  facet normal -0.382684 -0.92388 -0
    outer loop
      vertex 8.18404 36.436 0.75
      vertex 8.18404 36.436 -0.75
      vertex 8.76393 36.1958 -0.75
    endloop
  endfacet
  facet normal -0.382684 -0.92388 -0
    outer loop
      vertex 8.76393 36.1958 0.75
      vertex 8.18404 36.436 0.75
      vertex 8.76393 36.1958 -0.75
    endloop
  endfacet
  facet normal -0.233446 -0.97237 -0
    outer loop
      vertex 8.76393 36.1958 0.75
      vertex 8.76393 36.1958 -0.75
      vertex 9.37426 36.0492 -0.75
    endloop
  endfacet
  facet normal -0.233446 -0.97237 -0
    outer loop
      vertex 9.37426 36.0492 0.75
      vertex 8.76393 36.1958 0.75
      vertex 9.37426 36.0492 -0.75
    endloop
  endfacet
  facet normal -0.0784593 -0.996917 -0
    outer loop
      vertex 9.37426 36.0492 0.75
      vertex 9.37426 36.0492 -0.75
      vertex 10 36 -0.75
    endloop
  endfacet
  facet normal -0.0784593 -0.996917 -0
    outer loop
      vertex 10 36 0.75
      vertex 9.37426 36.0492 0.75
      vertex 10 36 -0.75
    endloop
  endfacet
  facet normal 0.0784593 -0.996917 0
    outer loop
      vertex 10 36 0.75
      vertex 10 36 -0.75
      vertex 10.6257 36.0492 -0.75
    endloop
  endfacet
  facet normal 0.0784593 -0.996917 0
    outer loop
      vertex 10.6257 36.0492 0.75
      vertex 10 36 0.75
      vertex 10.6257 36.0492 -0.75
    endloop
  endfacet
  facet normal 0.233446 -0.97237 0
    outer loop
      vertex 10.6257 36.0492 0.75
      vertex 10.6257 36.0492 -0.75
      vertex 11.2361 36.1958 -0.75
    endloop
  endfacet
  facet normal 0.233446 -0.97237 0
    outer loop
      vertex 11.2361 36.1958 0.75
      vertex 10.6257 36.0492 0.75
      vertex 11.2361 36.1958 -0.75
    endloop
  endfacet
  facet normal 0.382684 -0.92388 0
    outer loop
      vertex 11.2361 36.1958 0.75
      vertex 11.2361 36.1958 -0.75
      vertex 11.816 36.436 -0.75
    endloop
  endfacet
  facet normal 0.382684 -0.92388 0
    outer loop
      vertex 11.816 36.436 0.75
      vertex 11.2361 36.1958 0.75
      vertex 11.816 36.436 -0.75
    endloop
  endfacet
  facet normal 0.522498 -0.85264 0
    outer loop
      vertex 11.816 36.436 0.75
      vertex 11.816 36.436 -0.75
      vertex 12.3511 36.7639 -0.75
    endloop
  endfacet
  facet normal 0.522498 -0.85264 0
    outer loop
      vertex 12.3511 36.7639 0.75
      vertex 11.816 36.436 0.75
      vertex 12.3511 36.7639 -0.75
    endloop
  endfacet
  facet normal 0.649448 -0.760406 0
    outer loop
      vertex 12.3511 36.7639 0.75
      vertex 12.3511 36.7639 -0.75
      vertex 12.8284 37.1716 -0.75
    endloop
  endfacet
  facet normal 0.649448 -0.760406 0
    outer loop
      vertex 12.8284 37.1716 0.75
      vertex 12.3511 36.7639 0.75
      vertex 12.8284 37.1716 -0.75
    endloop
  endfacet
  facet normal 0.760406 -0.649448 0
    outer loop
      vertex 12.8284 37.1716 0.75
      vertex 12.8284 37.1716 -0.75
      vertex 13.2361 37.6489 -0.75
    endloop
  endfacet
  facet normal 0.760406 -0.649448 0
    outer loop
      vertex 13.2361 37.6489 0.75
      vertex 12.8284 37.1716 0.75
      vertex 13.2361 37.6489 -0.75
    endloop
  endfacet
  facet normal 0.85264 -0.522498 0
    outer loop
      vertex 13.2361 37.6489 0.75
      vertex 13.2361 37.6489 -0.75
      vertex 13.564 38.184 -0.75
    endloop
  endfacet
  facet normal 0.85264 -0.522498 0
    outer loop
      vertex 13.564 38.184 0.75
      vertex 13.2361 37.6489 0.75
      vertex 13.564 38.184 -0.75
    endloop
  endfacet
  facet normal 0.92388 -0.382684 0
    outer loop
      vertex 13.564 38.184 0.75
      vertex 13.564 38.184 -0.75
      vertex 13.8042 38.7639 -0.75
    endloop
  endfacet
  facet normal 0.92388 -0.382684 0
    outer loop
      vertex 13.8042 38.7639 0.75
      vertex 13.564 38.184 0.75
      vertex 13.8042 38.7639 -0.75
    endloop
  endfacet
  facet normal 0.97237 -0.233446 0
    outer loop
      vertex 13.8042 38.7639 0.75
      vertex 13.8042 38.7639 -0.75
      vertex 13.9508 39.3743 -0.75
    endloop
  endfacet
  facet normal 0.97237 -0.233446 0
    outer loop
      vertex 13.9508 39.3743 0.75
      vertex 13.8042 38.7639 0.75
      vertex 13.9508 39.3743 -0.75
    endloop
  endfacet
  facet normal 0.996917 -0.0784593 0
    outer loop
      vertex 13.9508 39.3743 0.75
      vertex 13.9508 39.3743 -0.75
      vertex 14 40 -0.75
    endloop
  endfacet
  facet normal 0.996917 -0.0784593 0
    outer loop
      vertex 14 40 0.75
      vertex 13.9508 39.3743 0.75
      vertex 14 40 -0.75
    endloop
  endfacet
  facet normal 0 0 -1
    outer loop
      vertex 8.7 40 -0.75
      vertex 6 40 -0.75
      vertex 6.04925 40.6257 -0.75
    endloop
  endfacet
  facet normal -0 0 -1
    outer loop
      vertex 8.76363 39.5983 -0.75
      vertex 6.04925 39.3743 -0.75
      vertex 8.71601 39.7966 -0.75
    endloop
  endfacet
  facet normal 0 -0 -1
    outer loop
      vertex 6.19577 41.2361 -0.75
      vertex 8.76363 40.4017 -0.75
      vertex 6.04925 40.6257 -0.75
    endloop
  endfacet
  facet normal 0 0 -1
    outer loop
      vertex 8.18404 43.564 -0.75
      vertex 9.40981 41.1583 -0.75
      vertex 9.23588 41.0517 -0.75
    endloop
  endfacet
  facet normal 0 -0 -1
    outer loop
      vertex 8.76393 43.8042 -0.75
      vertex 9.59828 41.2364 -0.75
      vertex 8.18404 43.564 -0.75
    endloop
  endfacet
  facet normal 0 0 -1
    outer loop
      vertex 9.37426 43.9508 -0.75
      vertex 10 41.3 -0.75
      vertex 9.79664 41.284 -0.75
    endloop
  endfacet
  facet normal -0 0 -1
    outer loop
      vertex 13.564 41.816 -0.75
      vertex 11.0517 40.7641 -0.75
      vertex 13.2361 42.3511 -0.75
    endloop
  endfacet
  facet normal -0 0 -1
    outer loop
      vertex 13.2361 42.3511 -0.75
      vertex 10.9192 40.9192 -0.75
      vertex 12.8284 42.8284 -0.75
    endloop
  endfacet
  facet normal 0 0 -1
    outer loop
      vertex 10.9192 40.9192 -0.75
      vertex 10.7641 41.0517 -0.75
      vertex 12.3511 43.2361 -0.75
    endloop
  endfacet
  facet normal 0 0 -1
    outer loop
      vertex 10.7641 41.0517 -0.75
      vertex 11.816 43.564 -0.75
      vertex 12.3511 43.2361 -0.75
    endloop
  endfacet
  facet normal 0 0 -1
    outer loop
      vertex 10.5902 41.1583 -0.75
      vertex 10.4017 41.2364 -0.75
      vertex 11.816 43.564 -0.75
    endloop
  endfacet
  facet normal 0 0 -1
    outer loop
      vertex 11.2364 40.4017 -0.75
      vertex 11.1583 40.5902 -0.75
      vertex 13.564 41.816 -0.75
    endloop
  endfacet
  facet normal 0 0 -1
    outer loop
      vertex 13.9508 39.3743 -0.75
      vertex 11.3 40 -0.75
      vertex 14 40 -0.75
    endloop
  endfacet
  facet normal 0 0 -1
    outer loop
      vertex 11.284 40.2034 -0.75
      vertex 11.2364 40.4017 -0.75
      vertex 13.9508 40.6257 -0.75
    endloop
  endfacet
  facet normal 0 0 -1
    outer loop
      vertex 11.3 40 -0.75
      vertex 13.9508 40.6257 -0.75
      vertex 14 40 -0.75
    endloop
  endfacet
  facet normal 0 0 -1
    outer loop
      vertex 11.2364 39.5983 -0.75
      vertex 11.284 39.7966 -0.75
      vertex 13.9508 39.3743 -0.75
    endloop
  endfacet
  facet normal 0 0 -1
    outer loop
      vertex 11.816 36.436 -0.75
      vertex 10.7641 38.9483 -0.75
      vertex 12.3511 36.7639 -0.75
    endloop
  endfacet
  facet normal 0 0 -1
    outer loop
      vertex 12.3511 36.7639 -0.75
      vertex 10.9192 39.0808 -0.75
      vertex 12.8284 37.1716 -0.75
    endloop
  endfacet
  facet normal 0 0 -1
    outer loop
      vertex 11.0517 39.2359 -0.75
      vertex 13.564 38.184 -0.75
      vertex 13.2361 37.6489 -0.75
    endloop
  endfacet
  facet normal 0 0 -1
    outer loop
      vertex 10.9192 39.0808 -0.75
      vertex 13.2361 37.6489 -0.75
      vertex 12.8284 37.1716 -0.75
    endloop
  endfacet
  facet normal 0 0 -1
    outer loop
      vertex 11.1583 39.4098 -0.75
      vertex 11.2364 39.5983 -0.75
      vertex 13.564 38.184 -0.75
    endloop
  endfacet
  facet normal 0 0 -1
    outer loop
      vertex 10.4017 38.7636 -0.75
      vertex 10.5902 38.8417 -0.75
      vertex 11.816 36.436 -0.75
    endloop
  endfacet
  facet normal 0 0 -1
    outer loop
      vertex 10.6257 36.0492 -0.75
      vertex 10.4017 38.7636 -0.75
      vertex 11.2361 36.1958 -0.75
    endloop
  endfacet
  facet normal 0 0 -1
    outer loop
      vertex 9.37426 36.0492 -0.75
      vertex 10 38.7 -0.75
      vertex 10 36 -0.75
    endloop
  endfacet
  facet normal 0 0 -1
    outer loop
      vertex 10 38.7 -0.75
      vertex 10.6257 36.0492 -0.75
      vertex 10 36 -0.75
    endloop
  endfacet
  facet normal 0 -0 -1
    outer loop
      vertex 9.59828 38.7636 -0.75
      vertex 9.79664 38.716 -0.75
      vertex 9.37426 36.0492 -0.75
    endloop
  endfacet
  facet normal 0 0 -1
    outer loop
      vertex 6.76393 37.6489 -0.75
      vertex 6.43597 38.184 -0.75
      vertex 8.94828 39.2359 -0.75
    endloop
  endfacet
  facet normal 0 -0 -1
    outer loop
      vertex 9.23588 38.9483 -0.75
      vertex 9.40981 38.8417 -0.75
      vertex 8.18404 36.436 -0.75
    endloop
  endfacet
  facet normal 0 0 -1
    outer loop
      vertex 6.76393 37.6489 -0.75
      vertex 9.08076 39.0808 -0.75
      vertex 7.17157 37.1716 -0.75
    endloop
  endfacet
  facet normal 0 0 -1
    outer loop
      vertex 9.08076 39.0808 -0.75
      vertex 7.64886 36.7639 -0.75
      vertex 7.17157 37.1716 -0.75
    endloop
  endfacet
  facet normal 0 0 -1
    outer loop
      vertex 8.18404 36.436 -0.75
      vertex 9.59828 38.7636 -0.75
      vertex 8.76393 36.1958 -0.75
    endloop
  endfacet
  facet normal 0 0 -1
    outer loop
      vertex 9.08076 40.9192 -0.75
      vertex 7.17157 42.8284 -0.75
      vertex 7.64886 43.2361 -0.75
    endloop
  endfacet
  facet normal -0 0 -1
    outer loop
      vertex 8.84169 39.4098 -0.75
      vertex 6.43597 38.184 -0.75
      vertex 8.76363 39.5983 -0.75
    endloop
  endfacet
  facet normal 0 0 -1
    outer loop
      vertex 6.19577 38.7639 -0.75
      vertex 6.04925 39.3743 -0.75
      vertex 8.76363 39.5983 -0.75
    endloop
  endfacet
  facet normal 0 0 -1
    outer loop
      vertex 6.19577 38.7639 -0.75
      vertex 8.76363 39.5983 -0.75
      vertex 6.43597 38.184 -0.75
    endloop
  endfacet
  facet normal 0 0 -1
    outer loop
      vertex 6.43597 41.816 -0.75
      vertex 8.94828 40.7641 -0.75
      vertex 8.84169 40.5902 -0.75
    endloop
  endfacet
  facet normal 0 -0 -1
    outer loop
      vertex 8.7 40 -0.75
      vertex 8.71601 39.7966 -0.75
      vertex 6.04925 39.3743 -0.75
    endloop
  endfacet
  facet normal -0 0 -1
    outer loop
      vertex 8.7 40 -0.75
      vertex 6.04925 39.3743 -0.75
      vertex 6 40 -0.75
    endloop
  endfacet
  facet normal 0 0 -1
    outer loop
      vertex 6.43597 38.184 -0.75
      vertex 8.84169 39.4098 -0.75
      vertex 8.94828 39.2359 -0.75
    endloop
  endfacet
  facet normal 0 0 -1
    outer loop
      vertex 10.2034 41.284 -0.75
      vertex 10.6257 43.9508 -0.75
      vertex 10.4017 41.2364 -0.75
    endloop
  endfacet
  facet normal 0 0 -1
    outer loop
      vertex 6.76393 37.6489 -0.75
      vertex 8.94828 39.2359 -0.75
      vertex 9.08076 39.0808 -0.75
    endloop
  endfacet
  facet normal 0 0 -1
    outer loop
      vertex 10.4017 41.2364 -0.75
      vertex 10.6257 43.9508 -0.75
      vertex 11.2361 43.8042 -0.75
    endloop
  endfacet
  facet normal -0 0 -1
    outer loop
      vertex 9.23588 38.9483 -0.75
      vertex 7.64886 36.7639 -0.75
      vertex 9.08076 39.0808 -0.75
    endloop
  endfacet
  facet normal 0 0 -1
    outer loop
      vertex 7.64886 36.7639 -0.75
      vertex 9.23588 38.9483 -0.75
      vertex 8.18404 36.436 -0.75
    endloop
  endfacet
  facet normal 0 0 -1
    outer loop
      vertex 8.18404 36.436 -0.75
      vertex 9.40981 38.8417 -0.75
      vertex 9.59828 38.7636 -0.75
    endloop
  endfacet
  facet normal 0 0 -1
    outer loop
      vertex 8.76393 36.1958 -0.75
      vertex 9.59828 38.7636 -0.75
      vertex 9.37426 36.0492 -0.75
    endloop
  endfacet
  facet normal 0 0 -1
    outer loop
      vertex 9.37426 36.0492 -0.75
      vertex 9.79664 38.716 -0.75
      vertex 10 38.7 -0.75
    endloop
  endfacet
  facet normal 0 -0 -1
    outer loop
      vertex 10.2034 38.716 -0.75
      vertex 10.6257 36.0492 -0.75
      vertex 10 38.7 -0.75
    endloop
  endfacet
  facet normal 0 0 -1
    outer loop
      vertex 10.6257 36.0492 -0.75
      vertex 10.2034 38.716 -0.75
      vertex 10.4017 38.7636 -0.75
    endloop
  endfacet
  facet normal 0 0 -1
    outer loop
      vertex 11.2361 36.1958 -0.75
      vertex 10.4017 38.7636 -0.75
      vertex 11.816 36.436 -0.75
    endloop
  endfacet
  facet normal 0 0 -1
    outer loop
      vertex 11.816 36.436 -0.75
      vertex 10.5902 38.8417 -0.75
      vertex 10.7641 38.9483 -0.75
    endloop
  endfacet
  facet normal 0 0 -1
    outer loop
      vertex 12.3511 36.7639 -0.75
      vertex 10.7641 38.9483 -0.75
      vertex 10.9192 39.0808 -0.75
    endloop
  endfacet
  facet normal 0 -0 -1
    outer loop
      vertex 11.0517 39.2359 -0.75
      vertex 13.2361 37.6489 -0.75
      vertex 10.9192 39.0808 -0.75
    endloop
  endfacet
  facet normal 0 -0 -1
    outer loop
      vertex 11.1583 39.4098 -0.75
      vertex 13.564 38.184 -0.75
      vertex 11.0517 39.2359 -0.75
    endloop
  endfacet
  facet normal 0 0 -1
    outer loop
      vertex 11.2364 39.5983 -0.75
      vertex 13.8042 38.7639 -0.75
      vertex 13.564 38.184 -0.75
    endloop
  endfacet
  facet normal 0 0 -1
    outer loop
      vertex 13.8042 38.7639 -0.75
      vertex 11.2364 39.5983 -0.75
      vertex 13.9508 39.3743 -0.75
    endloop
  endfacet
  facet normal 0 0 -1
    outer loop
      vertex 13.9508 39.3743 -0.75
      vertex 11.284 39.7966 -0.75
      vertex 11.3 40 -0.75
    endloop
  endfacet
  facet normal 0 0 -1
    outer loop
      vertex 11.284 40.2034 -0.75
      vertex 13.9508 40.6257 -0.75
      vertex 11.3 40 -0.75
    endloop
  endfacet
  facet normal 0 0 -1
    outer loop
      vertex 11.2364 40.4017 -0.75
      vertex 13.8042 41.2361 -0.75
      vertex 13.9508 40.6257 -0.75
    endloop
  endfacet
  facet normal -0 0 -1
    outer loop
      vertex 13.8042 41.2361 -0.75
      vertex 11.2364 40.4017 -0.75
      vertex 13.564 41.816 -0.75
    endloop
  endfacet
  facet normal 0 0 -1
    outer loop
      vertex 13.564 41.816 -0.75
      vertex 11.1583 40.5902 -0.75
      vertex 11.0517 40.7641 -0.75
    endloop
  endfacet
  facet normal 0 0 -1
    outer loop
      vertex 13.2361 42.3511 -0.75
      vertex 11.0517 40.7641 -0.75
      vertex 10.9192 40.9192 -0.75
    endloop
  endfacet
  facet normal -0 0 -1
    outer loop
      vertex 12.8284 42.8284 -0.75
      vertex 10.9192 40.9192 -0.75
      vertex 12.3511 43.2361 -0.75
    endloop
  endfacet
  facet normal 0 0 -1
    outer loop
      vertex 10.5902 41.1583 -0.75
      vertex 11.816 43.564 -0.75
      vertex 10.7641 41.0517 -0.75
    endloop
  endfacet
  facet normal 0 0 -1
    outer loop
      vertex 10.4017 41.2364 -0.75
      vertex 11.2361 43.8042 -0.75
      vertex 11.816 43.564 -0.75
    endloop
  endfacet
  facet normal 0 0 -1
    outer loop
      vertex 10.2034 41.284 -0.75
      vertex 10 41.3 -0.75
      vertex 10.6257 43.9508 -0.75
    endloop
  endfacet
  facet normal 0 0 -1
    outer loop
      vertex 10 41.3 -0.75
      vertex 10 44 -0.75
      vertex 10.6257 43.9508 -0.75
    endloop
  endfacet
  facet normal 0 0 -1
    outer loop
      vertex 9.37426 43.9508 -0.75
      vertex 10 44 -0.75
      vertex 10 41.3 -0.75
    endloop
  endfacet
  facet normal 0 0 -1
    outer loop
      vertex 9.59828 41.2364 -0.75
      vertex 9.37426 43.9508 -0.75
      vertex 9.79664 41.284 -0.75
    endloop
  endfacet
  facet normal 0 0 -1
    outer loop
      vertex 8.76393 43.8042 -0.75
      vertex 9.37426 43.9508 -0.75
      vertex 9.59828 41.2364 -0.75
    endloop
  endfacet
  facet normal 0 0 -1
    outer loop
      vertex 8.18404 43.564 -0.75
      vertex 9.59828 41.2364 -0.75
      vertex 9.40981 41.1583 -0.75
    endloop
  endfacet
  facet normal 0 0 -1
    outer loop
      vertex 7.64886 43.2361 -0.75
      vertex 8.18404 43.564 -0.75
      vertex 9.23588 41.0517 -0.75
    endloop
  endfacet
  facet normal 0 0 -1
    outer loop
      vertex 7.64886 43.2361 -0.75
      vertex 9.23588 41.0517 -0.75
      vertex 9.08076 40.9192 -0.75
    endloop
  endfacet
  facet normal 0 -0 -1
    outer loop
      vertex 7.17157 42.8284 -0.75
      vertex 9.08076 40.9192 -0.75
      vertex 6.76393 42.3511 -0.75
    endloop
  endfacet
  facet normal -0 0 -1
    outer loop
      vertex 9.08076 40.9192 -0.75
      vertex 8.94828 40.7641 -0.75
      vertex 6.76393 42.3511 -0.75
    endloop
  endfacet
  facet normal 0 0 -1
    outer loop
      vertex 8.94828 40.7641 -0.75
      vertex 6.43597 41.816 -0.75
      vertex 6.76393 42.3511 -0.75
    endloop
  endfacet
  facet normal -0 0 -1
    outer loop
      vertex 8.84169 40.5902 -0.75
      vertex 8.76363 40.4017 -0.75
      vertex 6.43597 41.816 -0.75
    endloop
  endfacet
  facet normal 0 0 -1
    outer loop
      vertex 8.76363 40.4017 -0.75
      vertex 6.19577 41.2361 -0.75
      vertex 6.43597 41.816 -0.75
    endloop
  endfacet
  facet normal 0 0 -1
    outer loop
      vertex 8.71601 40.2034 -0.75
      vertex 6.04925 40.6257 -0.75
      vertex 8.76363 40.4017 -0.75
    endloop
  endfacet
  facet normal 0 0 -1
    outer loop
      vertex 8.7 40 -0.75
      vertex 6.04925 40.6257 -0.75
      vertex 8.71601 40.2034 -0.75
    endloop
  endfacet
  facet normal 0 0 1
    outer loop
      vertex 8.71601 39.7966 0.75
      vertex 8.7 40 0.75
      vertex 6.04925 39.3743 0.75
    endloop
  endfacet
  facet normal 0 0 1
    outer loop
      vertex 9.08076 39.0808 0.75
      vertex 6.76393 37.6489 0.75
      vertex 7.17157 37.1716 0.75
    endloop
  endfacet
  facet normal 0 -0 1
    outer loop
      vertex 6.19577 38.7639 0.75
      vertex 8.76363 39.5983 0.75
      vertex 6.04925 39.3743 0.75
    endloop
  endfacet
  facet normal 0 -0 1
    outer loop
      vertex 8.18404 36.436 0.75
      vertex 9.23588 38.9483 0.75
      vertex 7.64886 36.7639 0.75
    endloop
  endfacet
  facet normal 0 0 1
    outer loop
      vertex 9.59828 38.7636 0.75
      vertex 9.40981 38.8417 0.75
      vertex 8.18404 36.436 0.75
    endloop
  endfacet
  facet normal 0 0 1
    outer loop
      vertex 9.37426 36.0492 0.75
      vertex 10 38.7 0.75
      vertex 9.79664 38.716 0.75
    endloop
  endfacet
  facet normal 0 0 1
    outer loop
      vertex 13.564 38.184 0.75
      vertex 11.0517 39.2359 0.75
      vertex 13.2361 37.6489 0.75
    endloop
  endfacet
  facet normal 0 0 1
    outer loop
      vertex 13.2361 37.6489 0.75
      vertex 10.9192 39.0808 0.75
      vertex 12.8284 37.1716 0.75
    endloop
  endfacet
  facet normal 0 0 1
    outer loop
      vertex 10.9192 39.0808 0.75
      vertex 10.7641 38.9483 0.75
      vertex 12.3511 36.7639 0.75
    endloop
  endfacet
  facet normal 0 0 1
    outer loop
      vertex 10.7641 38.9483 0.75
      vertex 11.816 36.436 0.75
      vertex 12.3511 36.7639 0.75
    endloop
  endfacet
  facet normal 0 0 1
    outer loop
      vertex 10.4017 38.7636 0.75
      vertex 11.2361 36.1958 0.75
      vertex 11.816 36.436 0.75
    endloop
  endfacet
  facet normal 0 0 1
    outer loop
      vertex 11.2364 39.5983 0.75
      vertex 11.1583 39.4098 0.75
      vertex 13.564 38.184 0.75
    endloop
  endfacet
  facet normal 0 0 1
    outer loop
      vertex 13.9508 40.6257 0.75
      vertex 11.3 40 0.75
      vertex 14 40 0.75
    endloop
  endfacet
  facet normal 0 0 1
    outer loop
      vertex 11.284 39.7966 0.75
      vertex 11.2364 39.5983 0.75
      vertex 13.9508 39.3743 0.75
    endloop
  endfacet
  facet normal -0 0 1
    outer loop
      vertex 11.3 40 0.75
      vertex 13.9508 39.3743 0.75
      vertex 14 40 0.75
    endloop
  endfacet
  facet normal -0 0 1
    outer loop
      vertex 11.2364 40.4017 0.75
      vertex 11.284 40.2034 0.75
      vertex 13.9508 40.6257 0.75
    endloop
  endfacet
  facet normal 0 0 1
    outer loop
      vertex 13.564 41.816 0.75
      vertex 11.2364 40.4017 0.75
      vertex 13.8042 41.2361 0.75
    endloop
  endfacet
  facet normal -0 0 1
    outer loop
      vertex 11.0517 40.7641 0.75
      vertex 11.1583 40.5902 0.75
      vertex 13.564 41.816 0.75
    endloop
  endfacet
  facet normal 0 0 1
    outer loop
      vertex 12.3511 43.2361 0.75
      vertex 10.9192 40.9192 0.75
      vertex 12.8284 42.8284 0.75
    endloop
  endfacet
  facet normal 0 0 1
    outer loop
      vertex 10.9192 40.9192 0.75
      vertex 13.2361 42.3511 0.75
      vertex 12.8284 42.8284 0.75
    endloop
  endfacet
  facet normal 0 0 1
    outer loop
      vertex 11.816 43.564 0.75
      vertex 10.7641 41.0517 0.75
      vertex 12.3511 43.2361 0.75
    endloop
  endfacet
  facet normal -0 0 1
    outer loop
      vertex 10.4017 41.2364 0.75
      vertex 10.5902 41.1583 0.75
      vertex 11.816 43.564 0.75
    endloop
  endfacet
  facet normal 0 0 1
    outer loop
      vertex 10.6257 43.9508 0.75
      vertex 10.4017 41.2364 0.75
      vertex 11.2361 43.8042 0.75
    endloop
  endfacet
  facet normal -0 0 1
    outer loop
      vertex 9.37426 43.9508 0.75
      vertex 10 41.3 0.75
      vertex 10 44 0.75
    endloop
  endfacet
  facet normal 0 0 1
    outer loop
      vertex 10 41.3 0.75
      vertex 10.6257 43.9508 0.75
      vertex 10 44 0.75
    endloop
  endfacet
  facet normal 0 -0 1
    outer loop
      vertex 9.59828 41.2364 0.75
      vertex 9.79664 41.284 0.75
      vertex 9.37426 43.9508 0.75
    endloop
  endfacet
  facet normal 0 0 1
    outer loop
      vertex 8.76363 39.5983 0.75
      vertex 8.71601 39.7966 0.75
      vertex 6.04925 39.3743 0.75
    endloop
  endfacet
  facet normal 0 -0 1
    outer loop
      vertex 9.23588 41.0517 0.75
      vertex 9.40981 41.1583 0.75
      vertex 8.18404 43.564 0.75
    endloop
  endfacet
  facet normal -0 0 1
    outer loop
      vertex 6.76393 42.3511 0.75
      vertex 9.08076 40.9192 0.75
      vertex 7.17157 42.8284 0.75
    endloop
  endfacet
  facet normal 0 0 1
    outer loop
      vertex 9.08076 40.9192 0.75
      vertex 7.64886 43.2361 0.75
      vertex 7.17157 42.8284 0.75
    endloop
  endfacet
  facet normal -0 0 1
    outer loop
      vertex 8.18404 43.564 0.75
      vertex 9.59828 41.2364 0.75
      vertex 8.76393 43.8042 0.75
    endloop
  endfacet
  facet normal 0 0 1
    outer loop
      vertex 8.71601 40.2034 0.75
      vertex 6.04925 40.6257 0.75
      vertex 8.7 40 0.75
    endloop
  endfacet
  facet normal 0 0 1
    outer loop
      vertex 8.76363 40.4017 0.75
      vertex 6.43597 41.816 0.75
      vertex 6.19577 41.2361 0.75
    endloop
  endfacet
  facet normal 0 0 1
    outer loop
      vertex 8.76363 40.4017 0.75
      vertex 6.04925 40.6257 0.75
      vertex 8.71601 40.2034 0.75
    endloop
  endfacet
  facet normal 0 0 1
    outer loop
      vertex 6.19577 41.2361 0.75
      vertex 6.04925 40.6257 0.75
      vertex 8.76363 40.4017 0.75
    endloop
  endfacet
  facet normal 0 0 1
    outer loop
      vertex 6.04925 40.6257 0.75
      vertex 6 40 0.75
      vertex 8.7 40 0.75
    endloop
  endfacet
  facet normal 0 0 1
    outer loop
      vertex 6.43597 38.184 0.75
      vertex 8.94828 39.2359 0.75
      vertex 8.84169 39.4098 0.75
    endloop
  endfacet
  facet normal 0 -0 1
    outer loop
      vertex 6.04925 39.3743 0.75
      vertex 8.7 40 0.75
      vertex 6 40 0.75
    endloop
  endfacet
  facet normal 0 0 1
    outer loop
      vertex 6.43597 41.816 0.75
      vertex 8.76363 40.4017 0.75
      vertex 8.84169 40.5902 0.75
    endloop
  endfacet
  facet normal -0 0 1
    outer loop
      vertex 10 38.7 0.75
      vertex 10.6257 36.0492 0.75
      vertex 10.2034 38.716 0.75
    endloop
  endfacet
  facet normal 0 0 1
    outer loop
      vertex 6.76393 42.3511 0.75
      vertex 6.43597 41.816 0.75
      vertex 8.94828 40.7641 0.75
    endloop
  endfacet
  facet normal 0 0 1
    outer loop
      vertex 8.94828 40.7641 0.75
      vertex 6.43597 41.816 0.75
      vertex 8.84169 40.5902 0.75
    endloop
  endfacet
  facet normal 0 0 1
    outer loop
      vertex 6.76393 42.3511 0.75
      vertex 8.94828 40.7641 0.75
      vertex 9.08076 40.9192 0.75
    endloop
  endfacet
  facet normal 0 0 1
    outer loop
      vertex 9.23588 41.0517 0.75
      vertex 7.64886 43.2361 0.75
      vertex 9.08076 40.9192 0.75
    endloop
  endfacet
  facet normal -0 0 1
    outer loop
      vertex 7.64886 43.2361 0.75
      vertex 9.23588 41.0517 0.75
      vertex 8.18404 43.564 0.75
    endloop
  endfacet
  facet normal 0 0 1
    outer loop
      vertex 8.18404 43.564 0.75
      vertex 9.40981 41.1583 0.75
      vertex 9.59828 41.2364 0.75
    endloop
  endfacet
  facet normal -0 0 1
    outer loop
      vertex 8.76393 43.8042 0.75
      vertex 9.59828 41.2364 0.75
      vertex 9.37426 43.9508 0.75
    endloop
  endfacet
  facet normal 0 0 1
    outer loop
      vertex 9.37426 43.9508 0.75
      vertex 9.79664 41.284 0.75
      vertex 10 41.3 0.75
    endloop
  endfacet
  facet normal 0 -0 1
    outer loop
      vertex 10.2034 41.284 0.75
      vertex 10.6257 43.9508 0.75
      vertex 10 41.3 0.75
    endloop
  endfacet
  facet normal 0 0 1
    outer loop
      vertex 10.6257 43.9508 0.75
      vertex 10.2034 41.284 0.75
      vertex 10.4017 41.2364 0.75
    endloop
  endfacet
  facet normal 0 0 1
    outer loop
      vertex 11.2361 43.8042 0.75
      vertex 10.4017 41.2364 0.75
      vertex 11.816 43.564 0.75
    endloop
  endfacet
  facet normal 0 0 1
    outer loop
      vertex 11.816 43.564 0.75
      vertex 10.5902 41.1583 0.75
      vertex 10.7641 41.0517 0.75
    endloop
  endfacet
  facet normal 0 0 1
    outer loop
      vertex 12.3511 43.2361 0.75
      vertex 10.7641 41.0517 0.75
      vertex 10.9192 40.9192 0.75
    endloop
  endfacet
  facet normal 0 -0 1
    outer loop
      vertex 11.0517 40.7641 0.75
      vertex 13.2361 42.3511 0.75
      vertex 10.9192 40.9192 0.75
    endloop
  endfacet
  facet normal 0 0 1
    outer loop
      vertex 13.2361 42.3511 0.75
      vertex 11.0517 40.7641 0.75
      vertex 13.564 41.816 0.75
    endloop
  endfacet
  facet normal 0 0 1
    outer loop
      vertex 13.564 41.816 0.75
      vertex 11.1583 40.5902 0.75
      vertex 11.2364 40.4017 0.75
    endloop
  endfacet
  facet normal 0 0 1
    outer loop
      vertex 13.8042 41.2361 0.75
      vertex 11.2364 40.4017 0.75
      vertex 13.9508 40.6257 0.75
    endloop
  endfacet
  facet normal 0 0 1
    outer loop
      vertex 13.9508 40.6257 0.75
      vertex 11.284 40.2034 0.75
      vertex 11.3 40 0.75
    endloop
  endfacet
  facet normal -0 0 1
    outer loop
      vertex 11.284 39.7966 0.75
      vertex 13.9508 39.3743 0.75
      vertex 11.3 40 0.75
    endloop
  endfacet
  facet normal 0 0 1
    outer loop
      vertex 11.2364 39.5983 0.75
      vertex 13.8042 38.7639 0.75
      vertex 13.9508 39.3743 0.75
    endloop
  endfacet
  facet normal 0 0 1
    outer loop
      vertex 13.8042 38.7639 0.75
      vertex 11.2364 39.5983 0.75
      vertex 13.564 38.184 0.75
    endloop
  endfacet
  facet normal 0 0 1
    outer loop
      vertex 13.564 38.184 0.75
      vertex 11.1583 39.4098 0.75
      vertex 11.0517 39.2359 0.75
    endloop
  endfacet
  facet normal 0 0 1
    outer loop
      vertex 13.2361 37.6489 0.75
      vertex 11.0517 39.2359 0.75
      vertex 10.9192 39.0808 0.75
    endloop
  endfacet
  facet normal 0 0 1
    outer loop
      vertex 12.8284 37.1716 0.75
      vertex 10.9192 39.0808 0.75
      vertex 12.3511 36.7639 0.75
    endloop
  endfacet
  facet normal -0 0 1
    outer loop
      vertex 10.5902 38.8417 0.75
      vertex 11.816 36.436 0.75
      vertex 10.7641 38.9483 0.75
    endloop
  endfacet
  facet normal 0 0 1
    outer loop
      vertex 11.816 36.436 0.75
      vertex 10.5902 38.8417 0.75
      vertex 10.4017 38.7636 0.75
    endloop
  endfacet
  facet normal 0 0 1
    outer loop
      vertex 11.2361 36.1958 0.75
      vertex 10.4017 38.7636 0.75
      vertex 10.6257 36.0492 0.75
    endloop
  endfacet
  facet normal 0 0 1
    outer loop
      vertex 10.4017 38.7636 0.75
      vertex 10.2034 38.716 0.75
      vertex 10.6257 36.0492 0.75
    endloop
  endfacet
  facet normal 0 0 1
    outer loop
      vertex 10.6257 36.0492 0.75
      vertex 10 38.7 0.75
      vertex 10 36 0.75
    endloop
  endfacet
  facet normal 0 0 1
    outer loop
      vertex 10 38.7 0.75
      vertex 9.37426 36.0492 0.75
      vertex 10 36 0.75
    endloop
  endfacet
  facet normal 0 0 1
    outer loop
      vertex 9.79664 38.716 0.75
      vertex 9.59828 38.7636 0.75
      vertex 9.37426 36.0492 0.75
    endloop
  endfacet
  facet normal 0 0 1
    outer loop
      vertex 9.59828 38.7636 0.75
      vertex 8.76393 36.1958 0.75
      vertex 9.37426 36.0492 0.75
    endloop
  endfacet
  facet normal -0 0 1
    outer loop
      vertex 8.18404 36.436 0.75
      vertex 8.76393 36.1958 0.75
      vertex 9.59828 38.7636 0.75
    endloop
  endfacet
  facet normal 0 0 1
    outer loop
      vertex 9.23588 38.9483 0.75
      vertex 8.18404 36.436 0.75
      vertex 9.40981 38.8417 0.75
    endloop
  endfacet
  facet normal 0 0 1
    outer loop
      vertex 9.08076 39.0808 0.75
      vertex 7.64886 36.7639 0.75
      vertex 9.23588 38.9483 0.75
    endloop
  endfacet
  facet normal -0 0 1
    outer loop
      vertex 7.17157 37.1716 0.75
      vertex 7.64886 36.7639 0.75
      vertex 9.08076 39.0808 0.75
    endloop
  endfacet
  facet normal 0 0 1
    outer loop
      vertex 6.76393 37.6489 0.75
      vertex 9.08076 39.0808 0.75
      vertex 8.94828 39.2359 0.75
    endloop
  endfacet
  facet normal 0 -0 1
    outer loop
      vertex 6.76393 37.6489 0.75
      vertex 8.94828 39.2359 0.75
      vertex 6.43597 38.184 0.75
    endloop
  endfacet
  facet normal 0 0 1
    outer loop
      vertex 6.43597 38.184 0.75
      vertex 8.84169 39.4098 0.75
      vertex 8.76363 39.5983 0.75
    endloop
  endfacet
  facet normal 0 -0 1
    outer loop
      vertex 6.43597 38.184 0.75
      vertex 8.76363 39.5983 0.75
      vertex 6.19577 38.7639 0.75
    endloop
  endfacet
  facet normal -0.996917 -0.078461 0
    outer loop
      vertex 11.3 40 -0.75
      vertex 11.3 40 0.75
      vertex 11.284 40.2034 0.75
    endloop
  endfacet
  facet normal -0.996917 -0.078461 0
    outer loop
      vertex 11.284 40.2034 -0.75
      vertex 11.3 40 -0.75
      vertex 11.284 40.2034 0.75
    endloop
  endfacet
  facet normal -0.972371 -0.233442 0
    outer loop
      vertex 11.284 40.2034 -0.75
      vertex 11.284 40.2034 0.75
      vertex 11.2364 40.4017 0.75
    endloop
  endfacet
  facet normal -0.972371 -0.233442 0
    outer loop
      vertex 11.2364 40.4017 -0.75
      vertex 11.284 40.2034 -0.75
      vertex 11.2364 40.4017 0.75
    endloop
  endfacet
  facet normal -0.923878 -0.382686 0
    outer loop
      vertex 11.2364 40.4017 -0.75
      vertex 11.2364 40.4017 0.75
      vertex 11.1583 40.5902 0.75
    endloop
  endfacet
  facet normal -0.923878 -0.382686 0
    outer loop
      vertex 11.1583 40.5902 -0.75
      vertex 11.2364 40.4017 -0.75
      vertex 11.1583 40.5902 0.75
    endloop
  endfacet
  facet normal -0.852642 -0.522496 0
    outer loop
      vertex 11.1583 40.5902 -0.75
      vertex 11.1583 40.5902 0.75
      vertex 11.0517 40.7641 0.75
    endloop
  endfacet
  facet normal -0.852642 -0.522496 0
    outer loop
      vertex 11.0517 40.7641 -0.75
      vertex 11.1583 40.5902 -0.75
      vertex 11.0517 40.7641 0.75
    endloop
  endfacet
  facet normal -0.760405 -0.649449 0
    outer loop
      vertex 11.0517 40.7641 -0.75
      vertex 11.0517 40.7641 0.75
      vertex 10.9192 40.9192 0.75
    endloop
  endfacet
  facet normal -0.760405 -0.649449 0
    outer loop
      vertex 10.9192 40.9192 -0.75
      vertex 11.0517 40.7641 -0.75
      vertex 10.9192 40.9192 0.75
    endloop
  endfacet
  facet normal -0.649449 -0.760405 0
    outer loop
      vertex 10.9192 40.9192 -0.75
      vertex 10.9192 40.9192 0.75
      vertex 10.7641 41.0517 0.75
    endloop
  endfacet
  facet normal -0.649449 -0.760405 0
    outer loop
      vertex 10.7641 41.0517 -0.75
      vertex 10.9192 40.9192 -0.75
      vertex 10.7641 41.0517 0.75
    endloop
  endfacet
  facet normal -0.522496 -0.852642 0
    outer loop
      vertex 10.7641 41.0517 -0.75
      vertex 10.7641 41.0517 0.75
      vertex 10.5902 41.1583 0.75
    endloop
  endfacet
  facet normal -0.522496 -0.852642 0
    outer loop
      vertex 10.5902 41.1583 -0.75
      vertex 10.7641 41.0517 -0.75
      vertex 10.5902 41.1583 0.75
    endloop
  endfacet
  facet normal -0.382686 -0.923878 0
    outer loop
      vertex 10.5902 41.1583 -0.75
      vertex 10.5902 41.1583 0.75
      vertex 10.4017 41.2364 0.75
    endloop
  endfacet
  facet normal -0.382686 -0.923878 0
    outer loop
      vertex 10.4017 41.2364 -0.75
      vertex 10.5902 41.1583 -0.75
      vertex 10.4017 41.2364 0.75
    endloop
  endfacet
  facet normal -0.233442 -0.972371 0
    outer loop
      vertex 10.4017 41.2364 -0.75
      vertex 10.4017 41.2364 0.75
      vertex 10.2034 41.284 0.75
    endloop
  endfacet
  facet normal -0.233442 -0.972371 0
    outer loop
      vertex 10.2034 41.284 -0.75
      vertex 10.4017 41.2364 -0.75
      vertex 10.2034 41.284 0.75
    endloop
  endfacet
  facet normal -0.078461 -0.996917 0
    outer loop
      vertex 10.2034 41.284 -0.75
      vertex 10.2034 41.284 0.75
      vertex 10 41.3 0.75
    endloop
  endfacet
  facet normal -0.078461 -0.996917 0
    outer loop
      vertex 10 41.3 -0.75
      vertex 10.2034 41.284 -0.75
      vertex 10 41.3 0.75
    endloop
  endfacet
  facet normal 0.078461 -0.996917 0
    outer loop
      vertex 10 41.3 -0.75
      vertex 10 41.3 0.75
      vertex 9.79664 41.284 0.75
    endloop
  endfacet
  facet normal 0.078461 -0.996917 0
    outer loop
      vertex 9.79664 41.284 -0.75
      vertex 10 41.3 -0.75
      vertex 9.79664 41.284 0.75
    endloop
  endfacet
  facet normal 0.233442 -0.972371 0
    outer loop
      vertex 9.79664 41.284 -0.75
      vertex 9.79664 41.284 0.75
      vertex 9.59828 41.2364 0.75
    endloop
  endfacet
  facet normal 0.233442 -0.972371 0
    outer loop
      vertex 9.59828 41.2364 -0.75
      vertex 9.79664 41.284 -0.75
      vertex 9.59828 41.2364 0.75
    endloop
  endfacet
  facet normal 0.382686 -0.923878 0
    outer loop
      vertex 9.59828 41.2364 -0.75
      vertex 9.59828 41.2364 0.75
      vertex 9.40981 41.1583 0.75
    endloop
  endfacet
  facet normal 0.382686 -0.923878 0
    outer loop
      vertex 9.40981 41.1583 -0.75
      vertex 9.59828 41.2364 -0.75
      vertex 9.40981 41.1583 0.75
    endloop
  endfacet
  facet normal 0.522496 -0.852642 0
    outer loop
      vertex 9.40981 41.1583 -0.75
      vertex 9.40981 41.1583 0.75
      vertex 9.23588 41.0517 0.75
    endloop
  endfacet
  facet normal 0.522496 -0.852642 0
    outer loop
      vertex 9.23588 41.0517 -0.75
      vertex 9.40981 41.1583 -0.75
      vertex 9.23588 41.0517 0.75
    endloop
  endfacet
  facet normal 0.649449 -0.760405 0
    outer loop
      vertex 9.23588 41.0517 -0.75
      vertex 9.23588 41.0517 0.75
      vertex 9.08076 40.9192 0.75
    endloop
  endfacet
  facet normal 0.649449 -0.760405 0
    outer loop
      vertex 9.08076 40.9192 -0.75
      vertex 9.23588 41.0517 -0.75
      vertex 9.08076 40.9192 0.75
    endloop
  endfacet
  facet normal 0.760405 -0.649449 0
    outer loop
      vertex 9.08076 40.9192 -0.75
      vertex 9.08076 40.9192 0.75
      vertex 8.94828 40.7641 0.75
    endloop
  endfacet
  facet normal 0.760405 -0.649449 0
    outer loop
      vertex 8.94828 40.7641 -0.75
      vertex 9.08076 40.9192 -0.75
      vertex 8.94828 40.7641 0.75
    endloop
  endfacet
  facet normal 0.852642 -0.522496 0
    outer loop
      vertex 8.94828 40.7641 -0.75
      vertex 8.94828 40.7641 0.75
      vertex 8.84169 40.5902 0.75
    endloop
  endfacet
  facet normal 0.852642 -0.522496 0
    outer loop
      vertex 8.84169 40.5902 -0.75
      vertex 8.94828 40.7641 -0.75
      vertex 8.84169 40.5902 0.75
    endloop
  endfacet
  facet normal 0.923878 -0.382686 0
    outer loop
      vertex 8.84169 40.5902 -0.75
      vertex 8.84169 40.5902 0.75
      vertex 8.76363 40.4017 0.75
    endloop
  endfacet
  facet normal 0.923878 -0.382686 0
    outer loop
      vertex 8.76363 40.4017 -0.75
      vertex 8.84169 40.5902 -0.75
      vertex 8.76363 40.4017 0.75
    endloop
  endfacet
  facet normal 0.972371 -0.233442 0
    outer loop
      vertex 8.76363 40.4017 -0.75
      vertex 8.76363 40.4017 0.75
      vertex 8.71601 40.2034 0.75
    endloop
  endfacet
  facet normal 0.972371 -0.233442 0
    outer loop
      vertex 8.71601 40.2034 -0.75
      vertex 8.76363 40.4017 -0.75
      vertex 8.71601 40.2034 0.75
    endloop
  endfacet
  facet normal 0.996917 -0.078461 0
    outer loop
      vertex 8.71601 40.2034 -0.75
      vertex 8.71601 40.2034 0.75
      vertex 8.7 40 0.75
    endloop
  endfacet
  facet normal 0.996917 -0.078461 0
    outer loop
      vertex 8.7 40 -0.75
      vertex 8.71601 40.2034 -0.75
      vertex 8.7 40 0.75
    endloop
  endfacet
  facet normal 0.996917 0.078461 0
    outer loop
      vertex 8.7 40 0.75
      vertex 8.71601 39.7966 0.75
      vertex 8.71601 39.7966 -0.75
    endloop
  endfacet
  facet normal 0.996917 0.078461 -0
    outer loop
      vertex 8.7 40 -0.75
      vertex 8.7 40 0.75
      vertex 8.71601 39.7966 -0.75
    endloop
  endfacet
  facet normal 0.972371 0.233442 0
    outer loop
      vertex 8.71601 39.7966 0.75
      vertex 8.76363 39.5983 0.75
      vertex 8.76363 39.5983 -0.75
    endloop
  endfacet
  facet normal 0.972371 0.233442 -0
    outer loop
      vertex 8.71601 39.7966 -0.75
      vertex 8.71601 39.7966 0.75
      vertex 8.76363 39.5983 -0.75
    endloop
  endfacet
  facet normal 0.923878 0.382686 0
    outer loop
      vertex 8.76363 39.5983 0.75
      vertex 8.84169 39.4098 0.75
      vertex 8.84169 39.4098 -0.75
    endloop
  endfacet
  facet normal 0.923878 0.382686 -0
    outer loop
      vertex 8.76363 39.5983 -0.75
      vertex 8.76363 39.5983 0.75
      vertex 8.84169 39.4098 -0.75
    endloop
  endfacet
  facet normal 0.852642 0.522496 0
    outer loop
      vertex 8.84169 39.4098 0.75
      vertex 8.94828 39.2359 0.75
      vertex 8.94828 39.2359 -0.75
    endloop
  endfacet
  facet normal 0.852642 0.522496 -0
    outer loop
      vertex 8.84169 39.4098 -0.75
      vertex 8.84169 39.4098 0.75
      vertex 8.94828 39.2359 -0.75
    endloop
  endfacet
  facet normal 0.760405 0.649449 0
    outer loop
      vertex 8.94828 39.2359 0.75
      vertex 9.08076 39.0808 0.75
      vertex 9.08076 39.0808 -0.75
    endloop
  endfacet
  facet normal 0.760405 0.649449 -0
    outer loop
      vertex 8.94828 39.2359 -0.75
      vertex 8.94828 39.2359 0.75
      vertex 9.08076 39.0808 -0.75
    endloop
  endfacet
  facet normal 0.649449 0.760405 0
    outer loop
      vertex 9.08076 39.0808 0.75
      vertex 9.23588 38.9483 0.75
      vertex 9.23588 38.9483 -0.75
    endloop
  endfacet
  facet normal 0.649449 0.760405 -0
    outer loop
      vertex 9.08076 39.0808 -0.75
      vertex 9.08076 39.0808 0.75
      vertex 9.23588 38.9483 -0.75
    endloop
  endfacet
  facet normal 0.522496 0.852642 0
    outer loop
      vertex 9.23588 38.9483 0.75
      vertex 9.40981 38.8417 0.75
      vertex 9.40981 38.8417 -0.75
    endloop
  endfacet
  facet normal 0.522496 0.852642 -0
    outer loop
      vertex 9.23588 38.9483 -0.75
      vertex 9.23588 38.9483 0.75
      vertex 9.40981 38.8417 -0.75
    endloop
  endfacet
  facet normal 0.382686 0.923878 0
    outer loop
      vertex 9.40981 38.8417 0.75
      vertex 9.59828 38.7636 0.75
      vertex 9.59828 38.7636 -0.75
    endloop
  endfacet
  facet normal 0.382686 0.923878 -0
    outer loop
      vertex 9.40981 38.8417 -0.75
      vertex 9.40981 38.8417 0.75
      vertex 9.59828 38.7636 -0.75
    endloop
  endfacet
  facet normal 0.233442 0.972371 0
    outer loop
      vertex 9.59828 38.7636 0.75
      vertex 9.79664 38.716 0.75
      vertex 9.79664 38.716 -0.75
    endloop
  endfacet
  facet normal 0.233442 0.972371 -0
    outer loop
      vertex 9.59828 38.7636 -0.75
      vertex 9.59828 38.7636 0.75
      vertex 9.79664 38.716 -0.75
    endloop
  endfacet
  facet normal 0.078461 0.996917 0
    outer loop
      vertex 9.79664 38.716 0.75
      vertex 10 38.7 0.75
      vertex 10 38.7 -0.75
    endloop
  endfacet
  facet normal 0.078461 0.996917 -0
    outer loop
      vertex 9.79664 38.716 -0.75
      vertex 9.79664 38.716 0.75
      vertex 10 38.7 -0.75
    endloop
  endfacet
  facet normal -0.078461 0.996917 0
    outer loop
      vertex 10 38.7 0.75
      vertex 10.2034 38.716 0.75
      vertex 10.2034 38.716 -0.75
    endloop
  endfacet
  facet normal -0.078461 0.996917 0
    outer loop
      vertex 10 38.7 -0.75
      vertex 10 38.7 0.75
      vertex 10.2034 38.716 -0.75
    endloop
  endfacet
  facet normal -0.233442 0.972371 0
    outer loop
      vertex 10.2034 38.716 0.75
      vertex 10.4017 38.7636 0.75
      vertex 10.4017 38.7636 -0.75
    endloop
  endfacet
  facet normal -0.233442 0.972371 0
    outer loop
      vertex 10.2034 38.716 -0.75
      vertex 10.2034 38.716 0.75
      vertex 10.4017 38.7636 -0.75
    endloop
  endfacet
  facet normal -0.382686 0.923878 0
    outer loop
      vertex 10.4017 38.7636 0.75
      vertex 10.5902 38.8417 0.75
      vertex 10.5902 38.8417 -0.75
    endloop
  endfacet
  facet normal -0.382686 0.923878 0
    outer loop
      vertex 10.4017 38.7636 -0.75
      vertex 10.4017 38.7636 0.75
      vertex 10.5902 38.8417 -0.75
    endloop
  endfacet
  facet normal -0.522496 0.852642 0
    outer loop
      vertex 10.5902 38.8417 0.75
      vertex 10.7641 38.9483 0.75
      vertex 10.7641 38.9483 -0.75
    endloop
  endfacet
  facet normal -0.522496 0.852642 0
    outer loop
      vertex 10.5902 38.8417 -0.75
      vertex 10.5902 38.8417 0.75
      vertex 10.7641 38.9483 -0.75
    endloop
  endfacet
  facet normal -0.649449 0.760405 0
    outer loop
      vertex 10.7641 38.9483 0.75
      vertex 10.9192 39.0808 0.75
      vertex 10.9192 39.0808 -0.75
    endloop
  endfacet
  facet normal -0.649449 0.760405 0
    outer loop
      vertex 10.7641 38.9483 -0.75
      vertex 10.7641 38.9483 0.75
      vertex 10.9192 39.0808 -0.75
    endloop
  endfacet
  facet normal -0.760405 0.649449 0
    outer loop
      vertex 10.9192 39.0808 0.75
      vertex 11.0517 39.2359 0.75
      vertex 11.0517 39.2359 -0.75
    endloop
  endfacet
  facet normal -0.760405 0.649449 0
    outer loop
      vertex 10.9192 39.0808 -0.75
      vertex 10.9192 39.0808 0.75
      vertex 11.0517 39.2359 -0.75
    endloop
  endfacet
  facet normal -0.852642 0.522496 0
    outer loop
      vertex 11.0517 39.2359 0.75
      vertex 11.1583 39.4098 0.75
      vertex 11.1583 39.4098 -0.75
    endloop
  endfacet
  facet normal -0.852642 0.522496 0
    outer loop
      vertex 11.0517 39.2359 -0.75
      vertex 11.0517 39.2359 0.75
      vertex 11.1583 39.4098 -0.75
    endloop
  endfacet
  facet normal -0.923878 0.382686 0
    outer loop
      vertex 11.1583 39.4098 0.75
      vertex 11.2364 39.5983 0.75
      vertex 11.2364 39.5983 -0.75
    endloop
  endfacet
  facet normal -0.923878 0.382686 0
    outer loop
      vertex 11.1583 39.4098 -0.75
      vertex 11.1583 39.4098 0.75
      vertex 11.2364 39.5983 -0.75
    endloop
  endfacet
  facet normal -0.972371 0.233442 0
    outer loop
      vertex 11.2364 39.5983 0.75
      vertex 11.284 39.7966 0.75
      vertex 11.284 39.7966 -0.75
    endloop
  endfacet
  facet normal -0.972371 0.233442 0
    outer loop
      vertex 11.2364 39.5983 -0.75
      vertex 11.2364 39.5983 0.75
      vertex 11.284 39.7966 -0.75
    endloop
  endfacet
  facet normal -0.996917 0.078461 0
    outer loop
      vertex 11.284 39.7966 0.75
      vertex 11.3 40 0.75
      vertex 11.3 40 -0.75
    endloop
  endfacet
  facet normal -0.996917 0.078461 0
    outer loop
      vertex 11.284 39.7966 -0.75
      vertex 11.284 39.7966 0.75
      vertex 11.3 40 -0.75
    endloop
  endfacet
endsolid OpenSCAD_Model
