solid OpenSCAD_Model
  facet normal -1 -0 0
    outer loop
      vertex 0 0.928203 2
      vertex 0 0 0
      vertex 0 0 2
    endloop
  endfacet
  facet normal -1 0 -0
    outer loop
      vertex 0 0.928203 2
      vertex 0 1.4641 0
      vertex 0 0 0
    endloop
  endfacet
  facet normal 0 -1 0
    outer loop
      vertex 0 0 2
      vertex 0 0 0
      vertex 15 0 0
    endloop
  endfacet
  facet normal -0 -1 -0
    outer loop
      vertex 15 0 2
      vertex 0 0 2
      vertex 15 0 0
    endloop
  endfacet
  facet normal 0 0 -1
    outer loop
      vertex 2.59616e-016 13.5359 0
      vertex -1.79295e-016 13.5359 0
      vertex 0 15 0
    endloop
  endfacet
  facet normal -0 -0 -1
    outer loop
      vertex 13.5359 1.4641 0
      vertex 15 0 0
      vertex 8.4641 1.4641 0
    endloop
  endfacet
  facet normal -0 0 -1
    outer loop
      vertex 13.5359 15 0
      vertex 6.5359 13.5359 0
      vertex 0 15 0
    endloop
  endfacet
  facet normal 0 0 -1
    outer loop
      vertex 0 0 0
      vertex 0 1.4641 0
      vertex 2.4002e-015 1.4641 0
    endloop
  endfacet
  facet normal -0 0 -1
    outer loop
      vertex 1.15895e-015 8.4641 0
      vertex 0 6.5359 0
      vertex 0 8.4641 0
    endloop
  endfacet
  facet normal 0 0 -1
    outer loop
      vertex 1.4641 6.5359 0
      vertex 6.5359 8.4641 0
      vertex 6.5359 6.5359 0
    endloop
  endfacet
  facet normal 0 0 -1
    outer loop
      vertex 1.4641 8.4641 0
      vertex 6.5359 8.4641 0
      vertex 1.4641 6.5359 0
    endloop
  endfacet
  facet normal -0 0 -1
    outer loop
      vertex 1.4641 1.4641 0
      vertex 0 0 0
      vertex 2.4002e-015 1.4641 0
    endloop
  endfacet
  facet normal 0 -0 -1
    outer loop
      vertex 1.15895e-015 8.4641 0
      vertex 1.50087e-015 6.5359 0
      vertex 0 6.5359 0
    endloop
  endfacet
  facet normal 0 0 -1
    outer loop
      vertex 13.5359 13.5359 0
      vertex 13.5359 15 0
      vertex 15 15 0
    endloop
  endfacet
  facet normal -0 0 -1
    outer loop
      vertex 1.4641 8.4641 0
      vertex 1.50087e-015 6.5359 0
      vertex 1.15895e-015 8.4641 0
    endloop
  endfacet
  facet normal 0 0 -1
    outer loop
      vertex 2.59616e-016 13.5359 0
      vertex 1.4641 13.5359 0
      vertex 1.15895e-015 8.4641 0
    endloop
  endfacet
  facet normal 0 0 -1
    outer loop
      vertex 2.59616e-016 13.5359 0
      vertex 0 15 0
      vertex 1.4641 13.5359 0
    endloop
  endfacet
  facet normal 0 -0 -1
    outer loop
      vertex 1.4641 13.5359 0
      vertex 1.4641 8.4641 0
      vertex 1.15895e-015 8.4641 0
    endloop
  endfacet
  facet normal 0 -0 -1
    outer loop
      vertex 1.4641 1.4641 0
      vertex 6.5359 1.4641 0
      vertex 0 0 0
    endloop
  endfacet
  facet normal 0 -0 -1
    outer loop
      vertex 8.4641 1.4641 0
      vertex 15 0 0
      vertex 0 0 0
    endloop
  endfacet
  facet normal 0 0 -1
    outer loop
      vertex 1.4641 13.5359 0
      vertex 0 15 0
      vertex 6.5359 13.5359 0
    endloop
  endfacet
  facet normal 0 0 -1
    outer loop
      vertex 1.50087e-015 6.5359 0
      vertex 1.4641 6.5359 0
      vertex 2.4002e-015 1.4641 0
    endloop
  endfacet
  facet normal 0 0 -1
    outer loop
      vertex 1.50087e-015 6.5359 0
      vertex 1.4641 8.4641 0
      vertex 1.4641 6.5359 0
    endloop
  endfacet
  facet normal 0 -0 -1
    outer loop
      vertex 1.4641 6.5359 0
      vertex 1.4641 1.4641 0
      vertex 2.4002e-015 1.4641 0
    endloop
  endfacet
  facet normal 0 -0 -1
    outer loop
      vertex 6.5359 1.4641 0
      vertex 8.4641 1.4641 0
      vertex 0 0 0
    endloop
  endfacet
  facet normal 0 0 -1
    outer loop
      vertex 6.5359 6.5359 0
      vertex 8.4641 6.5359 0
      vertex 8.4641 1.4641 0
    endloop
  endfacet
  facet normal 0 0 -1
    outer loop
      vertex 13.5359 13.5359 0
      vertex 8.4641 13.5359 0
      vertex 13.5359 15 0
    endloop
  endfacet
  facet normal 0 0 -1
    outer loop
      vertex 6.5359 8.4641 0
      vertex 8.4641 6.5359 0
      vertex 6.5359 6.5359 0
    endloop
  endfacet
  facet normal 0 0 -1
    outer loop
      vertex 13.5359 8.4641 0
      vertex 15 15 0
      vertex 13.5359 6.5359 0
    endloop
  endfacet
  facet normal 0 -0 -1
    outer loop
      vertex 6.5359 6.5359 0
      vertex 8.4641 1.4641 0
      vertex 6.5359 1.4641 0
    endloop
  endfacet
  facet normal 0 0 -1
    outer loop
      vertex 13.5359 6.5359 0
      vertex 15 0 0
      vertex 13.5359 1.4641 0
    endloop
  endfacet
  facet normal 0 0 -1
    outer loop
      vertex 8.4641 8.4641 0
      vertex 13.5359 6.5359 0
      vertex 8.4641 6.5359 0
    endloop
  endfacet
  facet normal 0 0 -1
    outer loop
      vertex 15 15 0
      vertex 15 0 0
      vertex 13.5359 6.5359 0
    endloop
  endfacet
  facet normal 0 0 -1
    outer loop
      vertex 6.5359 13.5359 0
      vertex 8.4641 13.5359 0
      vertex 8.4641 8.4641 0
    endloop
  endfacet
  facet normal 0 0 -1
    outer loop
      vertex 6.5359 13.5359 0
      vertex 13.5359 15 0
      vertex 8.4641 13.5359 0
    endloop
  endfacet
  facet normal 0 0 -1
    outer loop
      vertex 6.5359 8.4641 0
      vertex 8.4641 8.4641 0
      vertex 8.4641 6.5359 0
    endloop
  endfacet
  facet normal 0 0 -1
    outer loop
      vertex 6.5359 8.4641 0
      vertex 6.5359 13.5359 0
      vertex 8.4641 8.4641 0
    endloop
  endfacet
  facet normal 0 0 -1
    outer loop
      vertex 8.4641 8.4641 0
      vertex 13.5359 8.4641 0
      vertex 13.5359 6.5359 0
    endloop
  endfacet
  facet normal 0 0 -1
    outer loop
      vertex 13.5359 8.4641 0
      vertex 13.5359 13.5359 0
      vertex 15 15 0
    endloop
  endfacet
  facet normal 0 0 1
    outer loop
      vertex 0 15 2
      vertex -1.13668e-016 14.0718 2
      vertex 1.6459e-016 14.0718 2
    endloop
  endfacet
  facet normal 0 0 1
    outer loop
      vertex 0.928203 0.928203 2
      vertex 2.49523e-015 0.928203 2
      vertex 0 0 2
    endloop
  endfacet
  facet normal 0 0 1
    outer loop
      vertex 7.9282 7.0718 2
      vertex 14.0718 7.0718 2
      vertex 7.9282 7.9282 2
    endloop
  endfacet
  facet normal -0 0 1
    outer loop
      vertex 0 7.9282 2
      vertex 0 7.0718 2
      vertex 1.25398e-015 7.9282 2
    endloop
  endfacet
  facet normal 0 0 1
    outer loop
      vertex 0 7.0718 2
      vertex 1.40584e-015 7.0718 2
      vertex 1.25398e-015 7.9282 2
    endloop
  endfacet
  facet normal 0 0 1
    outer loop
      vertex 0.928203 7.9282 2
      vertex 1.25398e-015 7.9282 2
      vertex 1.40584e-015 7.0718 2
    endloop
  endfacet
  facet normal -0 0 1
    outer loop
      vertex 0 0.928203 2
      vertex 0 0 2
      vertex 2.49523e-015 0.928203 2
    endloop
  endfacet
  facet normal -0 0 1
    outer loop
      vertex 14.0718 7.0718 2
      vertex 15 0 2
      vertex 15 15 2
    endloop
  endfacet
  facet normal 0 -0 1
    outer loop
      vertex 1.6459e-016 14.0718 2
      vertex 0.928203 14.0718 2
      vertex 0 15 2
    endloop
  endfacet
  facet normal 0 0 1
    outer loop
      vertex 0.928203 14.0718 2
      vertex 1.25398e-015 7.9282 2
      vertex 0.928203 7.9282 2
    endloop
  endfacet
  facet normal 0 0 1
    outer loop
      vertex 2.49523e-015 0.928203 2
      vertex 0.928203 0.928203 2
      vertex 0.928203 7.0718 2
    endloop
  endfacet
  facet normal 0 0 1
    outer loop
      vertex 0.928203 14.0718 2
      vertex 1.6459e-016 14.0718 2
      vertex 1.25398e-015 7.9282 2
    endloop
  endfacet
  facet normal 0 0 1
    outer loop
      vertex 7.0718 14.0718 2
      vertex 0 15 2
      vertex 0.928203 14.0718 2
    endloop
  endfacet
  facet normal 0 0 1
    outer loop
      vertex 14.0718 15 2
      vertex 0 15 2
      vertex 7.0718 14.0718 2
    endloop
  endfacet
  facet normal 0 0 1
    outer loop
      vertex 14.0718 7.9282 2
      vertex 7.9282 7.9282 2
      vertex 14.0718 7.0718 2
    endloop
  endfacet
  facet normal -0 0 1
    outer loop
      vertex 0.928203 7.9282 2
      vertex 0.928203 7.0718 2
      vertex 7.0718 7.9282 2
    endloop
  endfacet
  facet normal 0 0 1
    outer loop
      vertex 0 0 2
      vertex 15 0 2
      vertex 7.9282 0.928203 2
    endloop
  endfacet
  facet normal 0 0 1
    outer loop
      vertex 1.40584e-015 7.0718 2
      vertex 0.928203 7.0718 2
      vertex 0.928203 7.9282 2
    endloop
  endfacet
  facet normal -0 0 1
    outer loop
      vertex 1.40584e-015 7.0718 2
      vertex 2.49523e-015 0.928203 2
      vertex 0.928203 7.0718 2
    endloop
  endfacet
  facet normal 0 0 1
    outer loop
      vertex 0.928203 7.0718 2
      vertex 7.0718 7.0718 2
      vertex 7.0718 7.9282 2
    endloop
  endfacet
  facet normal -0 0 1
    outer loop
      vertex 14.0718 0.928203 2
      vertex 15 0 2
      vertex 14.0718 7.0718 2
    endloop
  endfacet
  facet normal -0 0 1
    outer loop
      vertex 0.928203 0.928203 2
      vertex 0 0 2
      vertex 7.0718 0.928203 2
    endloop
  endfacet
  facet normal 0 0 1
    outer loop
      vertex 7.0718 0.928203 2
      vertex 7.9282 0.928203 2
      vertex 7.0718 7.0718 2
    endloop
  endfacet
  facet normal -0 0 1
    outer loop
      vertex 7.0718 0.928203 2
      vertex 0 0 2
      vertex 7.9282 0.928203 2
    endloop
  endfacet
  facet normal 0 0 1
    outer loop
      vertex 7.0718 7.0718 2
      vertex 7.9282 7.0718 2
      vertex 7.0718 7.9282 2
    endloop
  endfacet
  facet normal -0 0 1
    outer loop
      vertex 7.0718 7.0718 2
      vertex 7.9282 0.928203 2
      vertex 7.9282 7.0718 2
    endloop
  endfacet
  facet normal -0 0 1
    outer loop
      vertex 14.0718 14.0718 2
      vertex 14.0718 7.9282 2
      vertex 15 15 2
    endloop
  endfacet
  facet normal -0 0 1
    outer loop
      vertex 7.9282 0.928203 2
      vertex 15 0 2
      vertex 14.0718 0.928203 2
    endloop
  endfacet
  facet normal 0 0 1
    outer loop
      vertex 7.0718 7.9282 2
      vertex 7.9282 7.9282 2
      vertex 7.0718 14.0718 2
    endloop
  endfacet
  facet normal -0 0 1
    outer loop
      vertex 7.0718 7.9282 2
      vertex 7.9282 7.0718 2
      vertex 7.9282 7.9282 2
    endloop
  endfacet
  facet normal 0 0 1
    outer loop
      vertex 7.0718 14.0718 2
      vertex 7.9282 14.0718 2
      vertex 14.0718 15 2
    endloop
  endfacet
  facet normal -0 0 1
    outer loop
      vertex 7.0718 14.0718 2
      vertex 7.9282 7.9282 2
      vertex 7.9282 14.0718 2
    endloop
  endfacet
  facet normal -0 0 1
    outer loop
      vertex 14.0718 15 2
      vertex 14.0718 14.0718 2
      vertex 15 15 2
    endloop
  endfacet
  facet normal 0 0 1
    outer loop
      vertex 14.0718 15 2
      vertex 7.9282 14.0718 2
      vertex 14.0718 14.0718 2
    endloop
  endfacet
  facet normal 0 0 1
    outer loop
      vertex 15 15 2
      vertex 14.0718 7.9282 2
      vertex 14.0718 7.0718 2
    endloop
  endfacet
  facet normal 0 0.965926 0.258819
    outer loop
      vertex 0 0.928203 2
      vertex 2.4002e-015 1.4641 0
      vertex 0 1.4641 0
    endloop
  endfacet
  facet normal -0 0.965926 0.258819
    outer loop
      vertex 0 0.928203 2
      vertex 2.49523e-015 0.928203 2
      vertex 2.4002e-015 1.4641 0
    endloop
  endfacet
  facet normal 0 0.965926 0.258819
    outer loop
      vertex 7.0718 0.928203 2
      vertex 6.5359 1.4641 0
      vertex 1.4641 1.4641 0
    endloop
  endfacet
  facet normal -0 0.965926 0.258819
    outer loop
      vertex 0.928203 0.928203 2
      vertex 7.0718 0.928203 2
      vertex 1.4641 1.4641 0
    endloop
  endfacet
  facet normal 0 0.965926 0.258819
    outer loop
      vertex 14.0718 0.928203 2
      vertex 13.5359 1.4641 0
      vertex 8.4641 1.4641 0
    endloop
  endfacet
  facet normal -0 0.965926 0.258819
    outer loop
      vertex 7.9282 0.928203 2
      vertex 14.0718 0.928203 2
      vertex 8.4641 1.4641 0
    endloop
  endfacet
  facet normal -1 -1.77321e-016 2.43265e-032
    outer loop
      vertex 2.49523e-015 0.928203 2
      vertex 1.40584e-015 7.0718 2
      vertex 1.50087e-015 6.5359 0
    endloop
  endfacet
  facet normal -1 -1.77321e-016 -1.85784e-032
    outer loop
      vertex 2.4002e-015 1.4641 0
      vertex 2.49523e-015 0.928203 2
      vertex 1.50087e-015 6.5359 0
    endloop
  endfacet
  facet normal -1 -1.77321e-016 2.79104e-032
    outer loop
      vertex 1.15895e-015 8.4641 0
      vertex 1.6459e-016 14.0718 2
      vertex 2.59616e-016 13.5359 0
    endloop
  endfacet
  facet normal -1 -1.77321e-016 -2.3049e-032
    outer loop
      vertex 1.15895e-015 8.4641 0
      vertex 1.25398e-015 7.9282 2
      vertex 1.6459e-016 14.0718 2
    endloop
  endfacet
  facet normal 0.965926 1.69154e-016 0.258819
    outer loop
      vertex 0.928203 0.928203 2
      vertex 1.4641 1.4641 0
      vertex 1.4641 6.5359 0
    endloop
  endfacet
  facet normal 0.965926 1.74555e-016 0.258819
    outer loop
      vertex 0.928203 7.0718 2
      vertex 0.928203 0.928203 2
      vertex 1.4641 6.5359 0
    endloop
  endfacet
  facet normal 0.965926 1.69154e-016 0.258819
    outer loop
      vertex 0.928203 7.9282 2
      vertex 1.4641 8.4641 0
      vertex 1.4641 13.5359 0
    endloop
  endfacet
  facet normal 0.965926 1.74555e-016 0.258819
    outer loop
      vertex 0.928203 14.0718 2
      vertex 0.928203 7.9282 2
      vertex 1.4641 13.5359 0
    endloop
  endfacet
  facet normal 1 -1.18424e-016 0
    outer loop
      vertex 15 0 2
      vertex 15 0 0
      vertex 15 15 0
    endloop
  endfacet
  facet normal 1 -1.18424e-016 0
    outer loop
      vertex 15 15 2
      vertex 15 0 2
      vertex 15 15 0
    endloop
  endfacet
  facet normal 0 1 0
    outer loop
      vertex 15 15 0
      vertex 13.5359 15 0
      vertex 14.0718 15 2
    endloop
  endfacet
  facet normal 0 1 0
    outer loop
      vertex 15 15 2
      vertex 15 15 0
      vertex 14.0718 15 2
    endloop
  endfacet
  facet normal -0.965926 3.38308e-016 0.258819
    outer loop
      vertex 13.5359 8.4641 0
      vertex 14.0718 14.0718 2
      vertex 13.5359 13.5359 0
    endloop
  endfacet
  facet normal -0.965926 2.79287e-016 0.258819
    outer loop
      vertex 13.5359 8.4641 0
      vertex 14.0718 7.9282 2
      vertex 14.0718 14.0718 2
    endloop
  endfacet
  facet normal -0.965926 2.79287e-016 0.258819
    outer loop
      vertex 14.0718 0.928203 2
      vertex 14.0718 7.0718 2
      vertex 13.5359 6.5359 0
    endloop
  endfacet
  facet normal -0.965926 0 0.258819
    outer loop
      vertex 13.5359 1.4641 0
      vertex 14.0718 0.928203 2
      vertex 13.5359 6.5359 0
    endloop
  endfacet
  facet normal 1.31233e-016 1 0
    outer loop
      vertex 13.5359 15 0
      vertex 0 15 0
      vertex 0 15 2
    endloop
  endfacet
  facet normal 1.26235e-016 1 -3.38246e-017
    outer loop
      vertex 14.0718 15 2
      vertex 13.5359 15 0
      vertex 0 15 2
    endloop
  endfacet
  facet normal -1 1.22461e-016 3.27708e-032
    outer loop
      vertex 0 15 0
      vertex -1.79295e-016 13.5359 0
      vertex -1.13668e-016 14.0718 2
    endloop
  endfacet
  facet normal -1 1.22461e-016 0
    outer loop
      vertex 0 15 2
      vertex 0 15 0
      vertex -1.13668e-016 14.0718 2
    endloop
  endfacet
  facet normal 0 -0.965926 0.258819
    outer loop
      vertex -1.79295e-016 13.5359 0
      vertex 1.6459e-016 14.0718 2
      vertex -1.13668e-016 14.0718 2
    endloop
  endfacet
  facet normal 0 -0.965926 0.258819
    outer loop
      vertex -1.79295e-016 13.5359 0
      vertex 2.59616e-016 13.5359 0
      vertex 1.6459e-016 14.0718 2
    endloop
  endfacet
  facet normal -2.79287e-016 -0.965926 0.258819
    outer loop
      vertex 7.9282 14.0718 2
      vertex 13.5359 13.5359 0
      vertex 14.0718 14.0718 2
    endloop
  endfacet
  facet normal 0 -0.965926 0.258819
    outer loop
      vertex 7.9282 14.0718 2
      vertex 8.4641 13.5359 0
      vertex 13.5359 13.5359 0
    endloop
  endfacet
  facet normal 0 -0.965926 0.258819
    outer loop
      vertex 0.928203 14.0718 2
      vertex 6.5359 13.5359 0
      vertex 7.0718 14.0718 2
    endloop
  endfacet
  facet normal 0 -0.965926 0.258819
    outer loop
      vertex 0.928203 14.0718 2
      vertex 1.4641 13.5359 0
      vertex 6.5359 13.5359 0
    endloop
  endfacet
  facet normal -1 -0 0
    outer loop
      vertex 0 7.9282 2
      vertex 0 6.5359 0
      vertex 0 7.0718 2
    endloop
  endfacet
  facet normal -1 0 -0
    outer loop
      vertex 0 7.9282 2
      vertex 0 8.4641 0
      vertex 0 6.5359 0
    endloop
  endfacet
  facet normal 0 0.965926 0.258819
    outer loop
      vertex 0 7.9282 2
      vertex 1.15895e-015 8.4641 0
      vertex 0 8.4641 0
    endloop
  endfacet
  facet normal -0 0.965926 0.258819
    outer loop
      vertex 0 7.9282 2
      vertex 1.25398e-015 7.9282 2
      vertex 1.15895e-015 8.4641 0
    endloop
  endfacet
  facet normal 0 0.965926 0.258819
    outer loop
      vertex 0.928203 7.9282 2
      vertex 6.5359 8.4641 0
      vertex 1.4641 8.4641 0
    endloop
  endfacet
  facet normal -0 0.965926 0.258819
    outer loop
      vertex 0.928203 7.9282 2
      vertex 7.0718 7.9282 2
      vertex 6.5359 8.4641 0
    endloop
  endfacet
  facet normal 0 0.965926 0.258819
    outer loop
      vertex 7.9282 7.9282 2
      vertex 13.5359 8.4641 0
      vertex 8.4641 8.4641 0
    endloop
  endfacet
  facet normal -0 0.965926 0.258819
    outer loop
      vertex 7.9282 7.9282 2
      vertex 14.0718 7.9282 2
      vertex 13.5359 8.4641 0
    endloop
  endfacet
  facet normal 0 -0.965926 0.258819
    outer loop
      vertex 0 6.5359 0
      vertex 1.40584e-015 7.0718 2
      vertex 0 7.0718 2
    endloop
  endfacet
  facet normal 0 -0.965926 0.258819
    outer loop
      vertex 0 6.5359 0
      vertex 1.50087e-015 6.5359 0
      vertex 1.40584e-015 7.0718 2
    endloop
  endfacet
  facet normal 0 -0.965926 0.258819
    outer loop
      vertex 0.928203 7.0718 2
      vertex 6.5359 6.5359 0
      vertex 7.0718 7.0718 2
    endloop
  endfacet
  facet normal 0 -0.965926 0.258819
    outer loop
      vertex 0.928203 7.0718 2
      vertex 1.4641 6.5359 0
      vertex 6.5359 6.5359 0
    endloop
  endfacet
  facet normal 0 -0.965926 0.258819
    outer loop
      vertex 7.9282 7.0718 2
      vertex 13.5359 6.5359 0
      vertex 14.0718 7.0718 2
    endloop
  endfacet
  facet normal 0 -0.965926 0.258819
    outer loop
      vertex 7.9282 7.0718 2
      vertex 8.4641 6.5359 0
      vertex 13.5359 6.5359 0
    endloop
  endfacet
  facet normal -0.965926 1.39644e-016 0.258819
    outer loop
      vertex 7.0718 7.9282 2
      vertex 7.0718 14.0718 2
      vertex 6.5359 13.5359 0
    endloop
  endfacet
  facet normal -0.965926 1.69154e-016 0.258819
    outer loop
      vertex 6.5359 8.4641 0
      vertex 7.0718 7.9282 2
      vertex 6.5359 13.5359 0
    endloop
  endfacet
  facet normal -0.965926 2.79287e-016 0.258819
    outer loop
      vertex 7.0718 0.928203 2
      vertex 7.0718 7.0718 2
      vertex 6.5359 6.5359 0
    endloop
  endfacet
  facet normal -0.965926 1.69154e-016 0.258819
    outer loop
      vertex 6.5359 1.4641 0
      vertex 7.0718 0.928203 2
      vertex 6.5359 6.5359 0
    endloop
  endfacet
  facet normal 0.965926 -3.38308e-016 0.258819
    outer loop
      vertex 8.4641 8.4641 0
      vertex 8.4641 13.5359 0
      vertex 7.9282 14.0718 2
    endloop
  endfacet
  facet normal 0.965926 -2.79287e-016 0.258819
    outer loop
      vertex 7.9282 7.9282 2
      vertex 8.4641 8.4641 0
      vertex 7.9282 14.0718 2
    endloop
  endfacet
  facet normal 0.965926 -1.39644e-016 0.258819
    outer loop
      vertex 7.9282 0.928203 2
      vertex 8.4641 6.5359 0
      vertex 7.9282 7.0718 2
    endloop
  endfacet
  facet normal 0.965926 0 0.258819
    outer loop
      vertex 7.9282 0.928203 2
      vertex 8.4641 1.4641 0
      vertex 8.4641 6.5359 0
    endloop
  endfacet
endsolid OpenSCAD_Model
